<?xml version="1.0" encoding="UTF-8"?>
<svg width="62px" height="130px" viewBox="0 0 62 130" version="1.1" xmlns="http://www.w3.org/2000/svg" xmlns:xlink="http://www.w3.org/1999/xlink">
    <!-- Generator: sketchtool 62 (101010) - https://sketch.com -->
    <title>201AEB1A-8FFC-4F36-966E-43194A17587B</title>
    <desc>Created with sketchtool.</desc>
    <g id="Page-1" stroke="none" stroke-width="1" fill="none" fill-rule="evenodd" opacity="0.400000006">
        <g id="Free-Gift-Card-28-March" transform="translate(0.000000, -653.000000)" fill="#9AA7FF">
            <path d="M61.9813679,702.040002 C62.7959641,734.554188 36.7410781,746.838882 15.0240552,770.668596 C11.6891983,774.328414 9.1323638,777.976547 6.29513091,779.843848 C0.585199715,783.602991 -3.9200158,782.392399 -10.3215225,782.875 C-18.018625,783.453419 -29.93057,782.018472 -37.2408779,778.69402 C-40.908223,777.026536 -46.7345251,769.084077 -48.9544382,765.556303 C-52.6982557,759.609683 -56.1871655,752.498045 -58.2940326,745.711257 C-61.4626454,735.499524 -63.262515,724.786494 -60.9594799,714.28263 C-57.8839637,700.265014 -56.0297877,685.490194 -48.4623556,673.205499 C-40.9525548,661.016623 -34.0556406,654.283587 -20.1454414,652.463026 C-8.71117118,650.967315 2.95916567,653.303195 13.9745007,656.493266 C33.3408318,662.101013 61.3618315,677.325715 61.9813679,702.040002 Z" id="Mask"></path>
        </g>
    </g>
</svg>