<?xml version="1.0" encoding="UTF-8"?>
<svg width="103px" height="137px" viewBox="0 0 103 137" version="1.1" xmlns="http://www.w3.org/2000/svg" xmlns:xlink="http://www.w3.org/1999/xlink">
    <!-- Generator: sketchtool 62 (101010) - https://sketch.com -->
    <title>ED7DD2B0-7623-478C-B6CF-908961BE0468</title>
    <desc>Created with sketchtool.</desc>
    <g id="Page-1" stroke="none" stroke-width="1" fill="none" fill-rule="evenodd">
        <g id="Landing-Page-Design-V3-Inspect-Mode" transform="translate(-1263.000000, -367.000000)" stroke="#EDD767" stroke-width="4.7">
            <g id="Intro-Section" transform="translate(-52.000000, 28.000000)">
                <g id="Traingular-Shapes" transform="translate(0.000000, 136.000000)">
                    <path d="M1327.47656,294.542851 L1328.60518,267.409334 C1328.79931,262.742118 1332.74021,259.115967 1337.40743,259.310099 C1340.70746,259.447364 1343.62569,261.493008 1344.88016,264.548387 L1350.38645,277.959494 C1352.54686,283.221371 1358.56381,285.735609 1363.82569,283.575202 C1366.78575,282.359867 1369.01279,279.837744 1369.85235,276.75 L1369.91006,276.537773 C1371.02953,272.420584 1375.27467,269.990451 1379.39186,271.109919 C1382.11122,271.849314 1384.21222,274.010772 1384.8742,276.75 C1385.66405,280.018324 1388.95384,282.027528 1392.22216,281.237684 C1394.6016,280.662655 1396.40522,278.718438 1396.80037,276.302608 L1401.59597,246.983135 C1402.26765,242.876614 1406.14115,240.092124 1410.24767,240.763802 C1413.63161,241.317293 1416.21502,244.085894 1416.53328,247.5 L1417.47929,257.648166 C1417.92798,262.461383 1422.19359,265.999532 1427.00681,265.550845 C1430.64639,265.211563 1433.69189,262.646273 1434.64469,259.117275 L1435.0764,257.51831 C1436.07863,253.806294 1439.90027,251.609572 1443.61229,252.611793 C1446.57237,253.410998 1448.66112,256.052671 1448.75613,259.117275 L1448.99436,266.802026 C1449.06506,269.082681 1450.97121,270.874203 1453.25187,270.803502 C1455.20089,270.743081 1456.84231,269.328159 1457.18936,267.409334 C1457.98278,263.022631 1462.1821,260.109697 1466.5688,260.903115 C1469.74303,261.477234 1472.27065,263.886092 1472.99675,267.029039 L1478.8867,292.523947 C1480.25419,298.443171 1476.56427,304.350217 1470.64505,305.717703 C1469.83306,305.905293 1469.00238,306 1468.169,306" id="Path-2" transform="translate(1404.500000, 247.500000) rotate(45.000000) translate(-1404.500000, -247.500000) "></path>
                </g>
            </g>
        </g>
    </g>
</svg>