<?xml version="1.0" encoding="UTF-8"?>
<svg width="102px" height="70px" viewBox="0 0 102 70" version="1.1" xmlns="http://www.w3.org/2000/svg" xmlns:xlink="http://www.w3.org/1999/xlink">
    <!-- Generator: sketchtool 62 (101010) - https://sketch.com -->
    <title>F4CF45D1-119C-4227-B334-6E732EB659EB</title>
    <desc>Created with sketchtool.</desc>
    <g id="Page-1" stroke="none" stroke-width="1" fill="none" fill-rule="evenodd" opacity="0.699999988">
        <g id="Landing-Page-Design-V3-Inspect-Mode" transform="translate(-321.000000, -517.000000)" stroke="#581EF1" stroke-width="4.7">
            <g id="Intro-Section" transform="translate(-52.000000, 28.000000)">
                <g id="Traingular-Shapes" transform="translate(0.000000, 136.000000)">
                    <path d="M370.934012,400.451294 L371.087377,397.241402 C371.237024,394.109314 373.897396,391.691568 377.029484,391.841215 C379.127022,391.941433 380.997957,393.191224 381.8937,395.090527 L385.932761,403.654814 C387.592395,407.173843 391.79053,408.681181 395.309559,407.021548 C397.092365,406.180747 398.441377,404.631496 399.029013,402.75 L399.079534,402.588241 C399.948709,399.805314 402.909323,398.253911 405.69225,399.123086 C407.402947,399.657377 408.725729,401.023109 409.205105,402.75 C409.819433,404.963045 412.111472,406.25906 414.324517,405.644731 C415.852618,405.220539 417.00643,403.964158 417.299263,402.405543 L420.550528,385.100582 C421.071537,382.327495 423.741929,380.501825 426.515016,381.022834 C428.730655,381.439109 430.41155,383.25841 430.651577,385.5 L431.263704,391.216612 C431.615316,394.500293 434.562304,396.877205 437.845986,396.525593 C440.21899,396.271495 442.213661,394.630677 442.920598,392.351213 L443.300233,391.12711 C444.068597,388.649584 446.69991,387.264034 449.177435,388.032397 C451.084298,388.623778 452.40891,390.356018 452.479957,392.351213 L452.637312,396.770144 C452.6925,398.319969 453.99362,399.531611 455.543444,399.476423 C456.835873,399.430401 457.929728,398.507612 458.192794,397.241402 L462.252687,377.699966 C462.688762,375.601014 463.728657,373.675227 465.244533,372.159351 L474.170538,363.233346 L474.170538,363.233346" id="Path-2" transform="translate(422.085269, 385.500000) rotate(45.000000) translate(-422.085269, -385.500000) "></path>
                </g>
            </g>
        </g>
    </g>
</svg>