<?xml version="1.0" encoding="UTF-8"?>
<svg width="431px" height="458px" viewBox="0 0 431 458" version="1.1" xmlns="http://www.w3.org/2000/svg" xmlns:xlink="http://www.w3.org/1999/xlink">
    <!-- Generator: sketchtool 62 (101010) - https://sketch.com -->
    <title>F1EB1284-339B-4AA8-B066-D2A1B434DD37</title>
    <desc>Created with sketchtool.</desc>
    <defs>
        <path d="M262,0 C268.627417,-1.21743675e-15 274,5.372583 274,12 L274,336 C274,342.627417 268.627417,348 262,348 L12,348 C5.372583,348 8.11624501e-16,342.627417 0,336 L0,12 C-8.11624501e-16,5.372583 5.372583,1.21743675e-15 12,0 L262,0 Z M127.697538,34.631877 L103.161633,34.631068 C98.0302101,34.631068 93.8703704,38.7909077 93.8703704,43.9223301 C93.8703704,49.0537525 98.0302101,53.2135922 103.161633,53.2135922 L103.161633,53.2135922 L170.838367,53.2135922 C175.96979,53.2135922 180.12963,49.0537525 180.12963,43.9223301 C180.12963,38.7909077 175.96979,34.631068 170.838367,34.631068 L170.838367,34.631068 L146.302,34.631 L146.302469,21.972372 C146.302469,16.9248937 142.282465,12.8163377 137.269485,12.6737313 L137,12.6699029 C131.862388,12.6699029 127.697531,16.8347602 127.697531,21.972372 L127.697531,21.972372 L127.697538,34.631877 L127.697538,34.631877 Z" id="path-1"></path>
        <filter x="-8.4%" y="-6.3%" width="116.8%" height="113.2%" filterUnits="objectBoundingBox" id="filter-3">
            <feOffset dx="0" dy="1" in="SourceAlpha" result="shadowOffsetOuter1"></feOffset>
            <feGaussianBlur stdDeviation="7.5" in="shadowOffsetOuter1" result="shadowBlurOuter1"></feGaussianBlur>
            <feColorMatrix values="0 0 0 0 0.552762681   0 0 0 0 0.552762681   0 0 0 0 0.552762681  0 0 0 0.25 0" type="matrix" in="shadowBlurOuter1"></feColorMatrix>
        </filter>
    </defs>
    <g id="Page-1" stroke="none" stroke-width="1" fill="none" fill-rule="evenodd">
        <g id="Free-Gift-Card-28-March" transform="translate(-846.000000, -103.000000)">
            <g id="Starbucks-Card" transform="translate(1090.011851, 314.250000) rotate(-30.000000) translate(-1090.011851, -314.250000) translate(919.511851, 140.250000)">
                <g id="fun-hat" transform="translate(292.989784, 84.460963) rotate(25.000000) translate(-292.989784, -84.460963) translate(257.989784, 48.460963)" fill="#D59B5D" fill-rule="nonzero">
                    <path d="M56.3020162,61.5921288 L52.5446058,61.5921288 L50.5596705,58.4020689 C50.4537363,58.2249716 50.2874373,58.1067144 50.1051594,58.0328758 C49.6358529,57.8557784 49.1055899,58.0922927 48.9386992,58.5497462 L47.5449834,62.212258 L43.8633249,63.2609973 C43.6816387,63.3054158 43.530135,63.4230963 43.4088137,63.5563519 C43.0910111,63.9399668 43.1667629,64.5012558 43.5603174,64.7966103 L46.5300268,67.1006065 L46.2572018,71.028476 L46.2572018,71.0878929 C46.2572018,71.5753433 46.6661435,71.9739566 47.1662241,71.9739566 C47.3632972,71.9739566 47.5449834,71.9145396 47.6964871,71.8112809 L50.862678,69.5817 L54.3626503,70.8957971 C54.5443365,70.9546374 54.7260226,70.9696358 54.9083005,70.9252172 C55.3929939,70.8069601 55.6960013,70.3200864 55.559293,69.8470578 L54.5745189,66.0962857 L57.0293524,62.9800645 C57.150082,62.8323872 57.2110384,62.6408681 57.2110384,62.4487723 C57.2110384,61.9907421 56.8020969,61.5921288 56.3020162,61.5921288 Z M52.8630004,65.3873194 C52.6961095,65.6088353 52.6357448,65.8747698 52.6961095,66.1407042 L53.3476938,68.6362195 L51.0295687,67.7651542 C50.7419485,67.6618955 50.4235539,67.6913156 50.1661159,67.868413 L48.1663854,69.2713471 L48.3480713,66.7608334 C48.3628667,66.4654789 48.2421372,66.1851227 48.0148817,66.0074486 L46.0453334,64.4718356 L48.484188,63.7778678 C48.757013,63.7040291 48.9842686,63.4969349 49.0754076,63.2315772 L49.9690427,60.8687408 L51.2414372,62.9212242 C51.408328,63.1871587 51.6959484,63.3492577 52.0143428,63.3492577 L54.4384022,63.3492577 L52.8630004,65.3873194 Z" id="Shape"></path>
                    <path d="M34.2042894,11.8835226 C34.4586139,11.8835226 34.7123183,11.781392 34.8872439,11.6204937 C35.4746716,11.0659076 35.9988282,11.0659076 36.7928171,11.0659076 C37.7456037,11.0659076 38.9204591,11.0659076 40.0642993,9.97042901 C41.1913912,8.88921462 41.1913912,7.77947193 41.1913912,6.88825456 C41.1913912,6.143101 41.1913912,5.58851485 41.7949467,5.01852378 C42.3823744,4.46336724 42.9065311,4.46336724 43.7005199,4.46336724 C44.6055432,4.46336724 45.828162,4.46336724 46.9720021,3.3678887 C47.3367408,3.01756372 47.321233,2.46240718 46.9397463,2.12634635 C46.5588797,1.7908559 45.9553242,1.80512006 45.5899653,2.15601542 C45.0025376,2.71060158 44.4783809,2.71060158 43.6843921,2.71060158 C42.7793689,2.71060158 41.5567501,2.71060158 40.4135302,3.80608012 C39.285818,4.8872945 39.285818,5.9970372 39.285818,6.88825456 C39.285818,7.63340812 39.285818,8.18799428 38.6822625,8.75798535 C38.0948347,9.31314189 37.5706781,9.31314189 36.7766892,9.31314189 C35.8239026,9.31314189 34.6490472,9.31314189 33.5058273,10.4086204 C33.3309017,10.5689484 33.2359953,10.7880441 33.2359953,11.0219743 C33.2515028,11.4892644 33.6801328,11.8835226 34.2042894,11.8835226 L34.2042894,11.8835226 Z" id="Path"></path>
                    <path d="M27.5112193,59.7908451 C26.9231271,60.3455913 26.3983775,60.3455913 25.6034906,60.3455913 C24.6974437,60.3455913 23.473442,60.3455913 22.3289289,61.44026 C21.1999412,62.5201052 21.1999412,63.6295975 21.1999412,64.5195861 C21.1999412,65.2641888 21.1999412,65.818935 20.5957029,66.3879348 C20.0076108,66.9426809 19.4828612,66.9426809 18.6879743,66.9426809 C17.73411,66.9426809 16.5579256,66.9426809 15.4134126,68.0373497 C15.2382892,68.1975591 15.1432754,68.4164929 15.1432754,68.6502502 C15.1432754,69.1320184 15.57239,69.5259852 16.0971397,69.5259852 C16.3511309,69.5259852 16.605743,69.4239301 16.7802457,69.2631507 C17.3689588,68.7084045 17.8930874,68.7084045 18.6879743,68.7084045 C19.6418386,68.7084045 20.8186438,68.7084045 21.9631568,67.6137358 C23.0921447,66.5338906 23.0921447,65.4243983 23.0921447,64.5344097 C23.0921447,63.7898069 23.0921447,63.2350608 23.695762,62.666061 C24.2844751,62.1113149 24.8086037,62.1113149 25.6034906,62.1113149 C26.5101585,62.1113149 27.7341601,62.1113149 28.8786731,61.0166461 C29.2444452,60.6665801 29.2282992,60.1118339 28.8470018,59.7760215 C28.4650836,59.4402091 27.8769914,59.4402091 27.5112193,59.7908451 L27.5112193,59.7908451 Z" id="Path"></path>
                    <path d="M64.5801524,6.99428697 C66.2384113,6.99428697 67.5804468,5.65225155 67.5804468,3.99399263 C67.5804468,2.33573371 66.2384113,0.99428697 64.5801524,0.99428697 C62.9218935,0.99428697 61.5804468,2.33573371 61.5804468,3.99399263 C61.5804468,5.65225155 62.9218935,6.99428697 64.5801524,6.99428697 Z M64.5801524,2.8032967 C65.2284986,2.8032967 65.771437,3.33092454 65.771437,3.99399263 C65.771437,4.64233885 65.2438092,5.18527724 64.5801524,5.18527724 C63.9170843,5.18527724 63.3894565,4.65764941 63.3894565,3.99399263 C63.3894565,3.33092454 63.9170843,2.8032967 64.5801524,2.8032967 Z" id="Shape"></path>
                    <path d="M8.3708611,58.3134154 C6.71954411,58.3134154 5.3708611,59.6622192 5.3708611,61.3136841 C5.3708611,62.965149 6.71954411,64.3134154 8.3708611,64.3134154 C10.0221781,64.3134154 11.3708611,62.965149 11.3708611,61.3136841 C11.3708611,59.6622192 10.0221781,58.3134154 8.3708611,58.3134154 L8.3708611,58.3134154 Z M9.71954411,61.3136841 C9.71954411,62.0566283 9.1142763,62.6619505 8.3708611,62.6619505 C7.6279834,62.6619505 7.02217809,62.0566283 7.02217809,61.3136841 C7.02217809,60.5702024 7.6279834,59.9648803 8.3708611,59.9648803 C9.1142763,59.9648803 9.71954411,60.5702024 9.71954411,61.3136841 Z" id="Shape"></path>
                    <path d="M14.6510535,46.817638 C14.6057937,46.6399917 14.4852969,46.477918 14.3501052,46.3746754 L11.4005768,44.0710395 L11.6715478,40.1432076 C11.7015251,39.65641 11.3253398,39.227867 10.8292453,39.1984514 C10.6182288,39.1834554 10.4078,39.242863 10.2273487,39.3755211 L7.08208631,41.679157 L3.53124912,40.3646889 C3.06454407,40.1876192 2.53788455,40.4240965 2.37212795,40.8814785 C2.29689087,41.0591248 2.29689087,41.250614 2.34215064,41.4282603 L3.38077497,45.0752033 L0.88266892,48.1759412 C0.566438168,48.5594961 0.641675242,49.1206973 1.03314307,49.4160057 C1.18361722,49.5342443 1.37935113,49.6080714 1.57508519,49.6080714 L5.39689337,49.6818985 L7.38303461,52.7826364 C7.54879121,53.0485292 7.83445705,53.1961834 8.1506878,53.1961834 L8.25590219,53.1961834 C8.60211025,53.1517718 8.88777609,52.9302906 9.00827293,52.6055667 L10.3172805,48.9586236 L14.0338744,47.9100483 C14.5158619,47.7773902 14.7862452,47.290016 14.6510535,46.817638 L14.6510535,46.817638 Z M9.36917584,47.3932587 C9.08351,47.4670858 8.85779878,47.673571 8.76727925,47.9544599 L7.92497658,50.3019308 L6.67592363,48.3380148 C6.51016703,48.087118 6.22450118,47.9250444 5.92355289,47.9250444 L3.42544699,47.8806328 L5.08066262,45.8278937 C5.26170183,45.6064124 5.32165629,45.311104 5.24641922,45.0457878 L4.56928555,42.6533287 L6.91691746,43.5248344 C7.20258315,43.628077 7.53350875,43.5836654 7.77450243,43.4065957 L9.74536121,41.9594694 L9.56490976,44.440175 C9.55021505,44.7354833 9.67012414,45.0157957 9.89583536,45.193442 L11.8373044,46.7138188 L9.36917584,47.3932587 Z" id="Shape"></path>
                    <path d="M13.935472,17.9721065 C14.1023199,18.0757725 14.2993427,18.1354237 14.5111568,18.1203662 L18.3581281,17.8389043 L20.6910421,20.8481131 C20.9939718,21.2338199 21.5696568,21.3079497 21.9631104,21.0114303 C22.1299584,20.8927068 22.2358655,20.7149109 22.2962149,20.5220575 L23.265945,16.7860289 L26.9466599,15.3775617 C27.415846,15.1997659 27.6430433,14.6808569 27.4614037,14.2210203 C27.3856713,14.0432244 27.2643811,13.8949647 27.0981248,13.7912987 L23.8564214,11.8343865 L23.7203396,8.05376415 C23.7049565,7.56439135 23.2807366,7.17868455 22.7813758,7.1937421 C22.584353,7.1937421 22.3873304,7.26787195 22.2204824,7.4010741 L19.2521257,9.8624167 L15.5258532,8.8836711 C15.0412839,8.75046895 14.5413315,9.0319308 14.4052497,9.50624605 C14.3596919,9.68462085 14.3596919,9.87689529 14.4354244,10.0552701 L15.8139915,13.5689092 L13.6627169,16.7414352 C13.4053449,17.1566781 13.511252,17.7051232 13.935472,17.9721065 Z M17.6919192,13.3609982 L16.78313,11.0484943 L19.2521257,11.7006054 C19.5396724,11.7747352 19.8426022,11.7156629 20.0697995,11.5228095 L21.9784935,9.95102514 L22.0690176,12.3828316 C22.0844006,12.679351 22.2358655,12.9463342 22.4932375,13.1090725 L24.5989543,14.3843375 L22.1755163,15.3184894 C21.9027611,15.4221554 21.7057384,15.644545 21.630006,15.9260068 L21.0087634,18.3276982 L19.5094977,16.4003221 C19.3426498,16.1779325 19.0704863,16.0447304 18.782348,16.0447304 C18.7675566,16.0447304 18.7367903,16.0447304 18.7219987,16.0447304 L16.2228282,16.2225262 L17.6008037,14.1914841 C17.7676517,13.9395584 17.7978263,13.643039 17.6919192,13.3609982 Z" id="Shape"></path>
                    <path d="M62.035886,37.8661248 C62.5811602,37.3246548 63.0655196,37.3097887 63.7923548,37.3097887 L63.8982159,37.3097887 C64.7456974,37.3097887 65.8965687,37.2949226 66.9717405,36.2119825 C67.3194858,35.8609132 67.3194858,35.3045771 66.9563639,34.9678022 C66.5932422,34.6310274 66.0178064,34.6310274 65.6694697,34.9826683 C65.6694697,34.9826683 65.6694697,34.9826683 65.6540933,34.9969627 C65.094034,35.5532988 64.594298,35.5532988 63.8373014,35.5532988 C62.9744435,35.5532988 61.808787,35.5532988 60.7188301,36.651105 C59.6436585,37.7340451 59.6436585,38.8467173 59.6436585,39.7398283 C59.6436585,40.4859935 59.6436585,41.0423296 59.0682228,41.6129602 C58.5081635,42.1692963 58.0084275,42.1692963 57.2514309,42.1692963 C56.343035,42.1692963 55.2229165,42.1692963 54.1329596,43.2671025 C53.0577879,44.3506142 53.0577879,45.4627148 53.0577879,46.3558258 C53.0577879,47.101991 53.0577879,47.6583271 52.4823523,48.2295293 C52.134607,48.5805986 52.149392,49.1369347 52.5131053,49.4737096 C52.876227,49.8099129 53.4516627,49.7956184 53.7999995,49.4439775 C54.8745798,48.3610374 54.8745798,47.2483652 54.8745798,46.3558258 C54.8745798,45.6090889 54.8745798,45.0527528 55.4500155,44.4821223 C56.0100747,43.9257862 56.5098107,43.9257862 57.2668073,43.9257862 C58.1752033,43.9257862 59.2953218,43.9257862 60.38587,42.82798 C61.4604503,41.7450399 61.4604503,40.6323677 61.4604503,39.7398283 C61.4604503,38.9930915 61.4604503,38.4367554 62.035886,37.8661248 L62.035886,37.8661248 Z" id="Path"></path>
                    <path d="M60.5246762,27.5794659 C60.5246762,29.5086872 62.319518,31.0639832 64.5243424,31.0791739 C66.7298344,31.0791739 68.5246762,29.5086872 68.5246762,27.5794659 C68.5246762,25.6496605 66.7298344,24.0791739 64.5243424,24.0791739 C62.319518,24.0791739 60.5246762,25.6496605 60.5246762,27.5794659 Z M66.4560676,27.5794659 C66.4560676,28.5212906 65.584688,29.284332 64.5076492,29.284332 C63.4306106,29.284332 62.5585633,28.5212906 62.5585633,27.5794659 C62.5585633,26.6370571 63.4306106,25.8740157 64.5076492,25.8740157 C65.584688,25.8740157 66.4560676,26.6370571 66.4560676,27.5794659 Z" id="Shape"></path>
                    <path d="M65.4838411,52.2738652 C63.0071655,52.2738652 60.9838411,54.2813823 60.9838411,56.7738652 C60.9838411,59.2505408 62.9907261,61.2738652 65.4838411,61.2738652 C67.9605167,61.2738652 69.9838411,59.2669802 69.9838411,56.7738652 C69.9674015,54.2813823 67.9605167,52.2738652 65.4838411,52.2738652 L65.4838411,52.2738652 Z M68.0250101,56.7738652 C68.0250101,58.1819726 66.875509,59.3314737 65.4674016,59.3314737 C64.0592942,59.3314737 62.9097931,58.1819726 62.9097931,56.7738652 C62.9097931,55.3657578 64.0592942,54.2162567 65.4674016,54.2162567 C66.8919484,54.2162567 68.0250101,55.3493184 68.0250101,56.7738652 Z" id="Shape"></path>
                    <path d="M5.05777551,21.8631479 C6.71995546,21.8631479 8.05803941,20.525064 8.05803941,18.862884 C8.05803941,17.2012317 6.71995546,15.8631479 5.05777551,15.8631479 C3.39612336,15.8631479 2.05803941,17.2012317 2.05803941,18.862884 C2.05803941,20.525064 3.40931942,21.8631479 5.05777551,21.8631479 Z M3.67957543,18.862884 C3.67957543,18.1064838 4.3013753,17.4846839 5.05777551,17.4846839 C5.81470338,17.4846839 6.43650339,18.1064838 6.43650339,18.862884 C6.43650339,19.6198119 5.81470338,20.2416118 5.05777551,20.2416118 C4.3013753,20.2416118 3.67957543,19.6335358 3.67957543,18.862884 Z" id="Shape"></path>
                </g>
                <g id="Rectangle" transform="translate(-0.000000, 0.000000)">
                    <mask id="mask-2" fill="white">
                        <use xlink:href="#path-1"></use>
                    </mask>
                    <g id="Mask">
                        <use fill="black" fill-opacity="1" filter="url(#filter-3)" xlink:href="#path-1"></use>
                        <use fill="#FEFAF6" fill-rule="evenodd" xlink:href="#path-1"></use>
                    </g>
                    <rect stroke="#D29552" opacity="0.300000012" mask="url(#mask-2)" x="-0.845679012" y="42.2330097" width="20.2962963" height="53.2135922"></rect>
                    <rect stroke="#D29552" opacity="0.300000012" mask="url(#mask-2)" x="-0.845679012" y="112.339806" width="20.2962963" height="53.2135922"></rect>
                    <rect stroke="#D29552" opacity="0.300000012" mask="url(#mask-2)" x="-0.845679012" y="182.446602" width="20.2962963" height="53.2135922"></rect>
                    <rect stroke="#D29552" opacity="0.300000012" mask="url(#mask-2)" x="-0.845679012" y="252.553398" width="20.2962963" height="53.2135922"></rect>
                </g>
                <path d="M102.52142,326.981179 C103.6518,326.981179 104.654856,326.758469 105.53059,326.313049 C106.406323,325.867629 107.114363,325.27478 107.65471,324.534504 C108.195056,323.794228 108.558392,322.984944 108.744718,322.10665 L108.744718,322.10665 L108.744718,319.547051 L102.09287,319.547051 L102.09287,321.44793 L106.546068,321.44793 C106.34732,322.451694 105.909453,323.235885 105.232468,323.800502 C104.555482,324.365119 103.744963,324.647428 102.80091,324.647428 C101.521469,324.647428 100.512202,324.258469 99.7731074,323.480552 C99.0340131,322.702635 98.664466,321.617315 98.664466,320.224592 C98.664466,319.346299 98.8259487,318.580928 99.1489143,317.928482 C99.4718799,317.276035 99.9252739,316.774153 100.509096,316.422836 C101.092919,316.071518 101.763693,315.895859 102.52142,315.895859 C103.291569,315.895859 103.959238,316.074655 104.524428,316.432246 C105.089618,316.789837 105.502641,317.269762 105.763498,317.87202 L105.763498,317.87202 L108.521127,317.87202 C108.223005,316.516939 107.546019,315.441029 106.49017,314.644291 C105.434321,313.847553 104.105194,313.449184 102.502788,313.449184 C101.210925,313.449184 100.074335,313.737767 99.0930164,314.314931 C98.111698,314.892095 97.3508656,315.69197 96.8105194,316.714555 C96.2701731,317.737139 96,318.907152 96,320.224592 C96,321.542033 96.2701731,322.712045 96.8105194,323.73463 C97.3508656,324.757215 98.1148034,325.553952 99.1023327,326.124843 C100.089862,326.695734 101.229558,326.981179 102.52142,326.981179 Z M112.042694,314.879548 C112.527142,314.879548 112.918427,314.744668 113.216549,314.474906 C113.514671,314.205144 113.663732,313.863237 113.663732,313.449184 C113.663732,313.022585 113.514671,312.674404 113.216549,312.404642 C112.918427,312.134881 112.527142,312 112.042694,312 C111.558245,312 111.16696,312.134881 110.868838,312.404642 C110.570716,312.674404 110.421655,313.022585 110.421655,313.449184 C110.421655,313.863237 110.570716,314.205144 110.868838,314.474906 C111.16696,314.744668 111.558245,314.879548 112.042694,314.879548 Z M113.346978,326.868256 L113.346978,316.441656 L110.719777,316.441656 L110.719777,326.868256 L113.346978,326.868256 Z M118.75044,326.868256 L118.75044,318.681305 L120.837295,318.681305 L120.837295,316.441656 L118.75044,316.441656 L118.75044,316.422836 C118.75044,315.732748 118.905712,315.249686 119.216256,314.973651 C119.5268,314.697616 120.067146,314.584693 120.837295,314.634881 L120.837295,314.634881 L120.837295,312.33877 C120.713077,312.326223 120.532962,312.31995 120.296948,312.31995 C118.918134,312.31995 117.877812,312.655583 117.175983,313.326851 C116.474154,313.998118 116.123239,314.954831 116.123239,316.196989 L116.123239,316.196989 L116.123239,316.441656 L114.800323,316.441656 L114.800323,318.681305 L116.123239,318.681305 L116.123239,326.868256 L118.75044,326.868256 Z M127.917694,326.868256 L127.917694,324.590966 L126.892899,324.590966 C126.420872,324.590966 126.085485,324.49059 125.886737,324.289837 C125.687989,324.089084 125.588615,323.737767 125.588615,323.235885 L125.588615,323.235885 L125.588615,318.681305 L127.899061,318.681305 L127.899061,316.441656 L125.588615,316.441656 L125.588615,313.863237 L122.961414,313.863237 L122.961414,316.441656 L121.526702,316.441656 L121.526702,318.681305 L122.961414,318.681305 L122.961414,323.198243 C122.961414,324.515684 123.268853,325.456713 123.883729,326.02133 C124.498606,326.585947 125.383656,326.868256 126.538879,326.868256 L126.538879,326.868256 L127.917694,326.868256 Z M139.805311,326.981179 C141.444982,326.981179 142.805164,326.55458 143.885857,325.70138 C144.966549,324.848181 145.6808,323.687578 146.028609,322.219573 L146.028609,322.219573 L143.27098,322.219573 C142.98528,322.934755 142.541202,323.499373 141.938747,323.913425 C141.336292,324.327478 140.612725,324.534504 139.768046,324.534504 C139.072428,324.534504 138.445129,324.358846 137.88615,324.007528 C137.327171,323.656211 136.89241,323.154329 136.581866,322.501882 C136.271322,321.849435 136.11605,321.090339 136.11605,320.224592 C136.11605,319.346299 136.271322,318.580928 136.581866,317.928482 C136.89241,317.276035 137.327171,316.774153 137.88615,316.422836 C138.445129,316.071518 139.072428,315.895859 139.768046,315.895859 C140.612725,315.895859 141.336292,316.102886 141.938747,316.516939 C142.541202,316.930991 142.98528,317.495609 143.27098,318.21079 L143.27098,318.21079 L146.028609,318.21079 C145.6808,316.742785 144.966549,315.582183 143.885857,314.728984 C142.805164,313.875784 141.444982,313.449184 139.805311,313.449184 C138.538292,313.449184 137.426545,313.73463 136.47007,314.305521 C135.513595,314.876412 134.771396,315.676286 134.243471,316.705144 C133.715547,317.734003 133.451585,318.907152 133.451585,320.224592 C133.451585,321.529486 133.715547,322.696361 134.243471,323.72522 C134.771396,324.754078 135.516701,325.553952 136.479387,326.124843 C137.442073,326.695734 138.550714,326.981179 139.805311,326.981179 Z M152.046948,327 C152.916471,327 153.661776,326.789837 154.282864,326.369511 C154.903951,325.949184 155.344924,325.387704 155.605781,324.685069 L155.605781,324.685069 L155.605781,326.868256 L158.214349,326.868256 L158.214349,316.441656 L155.605781,316.441656 L155.605781,318.606023 C155.344924,317.903388 154.903951,317.345044 154.282864,316.930991 C153.661776,316.516939 152.916471,316.309912 152.046948,316.309912 C151.177426,316.309912 150.394855,316.523212 149.699237,316.949812 C149.003619,317.376412 148.460167,317.994354 148.068882,318.803639 C147.677597,319.612923 147.481954,320.563363 147.481954,321.654956 C147.481954,322.74655 147.677597,323.696989 148.068882,324.506274 C148.460167,325.315558 149.003619,325.933501 149.699237,326.3601 C150.394855,326.7867 151.177426,327 152.046948,327 Z M152.866784,324.666248 C152.046948,324.666248 151.388595,324.399624 150.891725,323.866374 C150.394855,323.333124 150.14642,322.595985 150.14642,321.654956 C150.14642,320.713927 150.394855,319.973651 150.891725,319.434128 C151.388595,318.894605 152.046948,318.624843 152.866784,318.624843 C153.661776,318.624843 154.317024,318.897742 154.832526,319.443538 C155.348029,319.989335 155.605781,320.726474 155.605781,321.654956 C155.605781,322.570891 155.348029,323.301757 154.832526,323.847553 C154.317024,324.39335 153.661776,324.666248 152.866784,324.666248 Z M163.226526,326.868256 L163.226526,321.843162 C163.226526,320.036386 164.189212,319.132999 166.114583,319.132999 L166.114583,319.132999 L166.878521,319.132999 L166.878521,316.291092 C166.095951,316.291092 165.387911,316.482434 164.754401,316.865119 C164.120892,317.247804 163.6116,317.771644 163.226526,318.436637 L163.226526,318.436637 L163.226526,316.441656 L160.599325,316.441656 L160.599325,326.868256 L163.226526,326.868256 Z M172.375147,327 C173.244669,327 173.986869,326.789837 174.601746,326.369511 C175.216623,325.949184 175.6607,325.387704 175.933979,324.685069 L175.933979,324.685069 L175.933979,326.868256 L178.542547,326.868256 L178.542547,312.941029 L175.933979,312.941029 L175.933979,318.606023 C175.6607,317.903388 175.216623,317.345044 174.601746,316.930991 C173.986869,316.516939 173.244669,316.309912 172.375147,316.309912 C171.505624,316.309912 170.723054,316.523212 170.027435,316.949812 C169.331817,317.376412 168.788366,317.994354 168.39708,318.803639 C168.005795,319.612923 167.810153,320.563363 167.810153,321.654956 C167.810153,322.74655 168.005795,323.696989 168.39708,324.506274 C168.788366,325.315558 169.331817,325.933501 170.027435,326.3601 C170.723054,326.7867 171.505624,327 172.375147,327 Z M173.194982,324.666248 C172.375147,324.666248 171.716794,324.399624 171.219924,323.866374 C170.723054,323.333124 170.474619,322.595985 170.474619,321.654956 C170.474619,320.713927 170.723054,319.973651 171.219924,319.434128 C171.716794,318.894605 172.375147,318.624843 173.194982,318.624843 C173.989975,318.624843 174.645222,318.897742 175.160725,319.443538 C175.676228,319.989335 175.933979,320.726474 175.933979,321.654956 C175.933979,322.570891 175.676228,323.301757 175.160725,323.847553 C174.645222,324.39335 173.989975,324.666248 173.194982,324.666248 Z" id="FreeGiftCard" fill="#1D1D1B" fill-rule="nonzero"></path>
                <g id="Group-3" transform="translate(245.153001, 36.081378)"></g>
                <g id="Group-2" transform="translate(34.662775, 87.814706)">
                    <g id="Starbucks" transform="translate(26.220833, 25.346939)" fill="#06704B" fill-rule="nonzero">
                        <path d="M83.75942,33.7289409 L83.75942,33.7289409 C83.070506,33.6034183 79.8388729,33.0636715 76.08116,33.0636715 C72.3234471,33.0636715 69.0918141,33.6034183 68.4279515,33.7289409 C68.0396545,33.7917021 67.8893459,33.4276868 68.189963,33.2142985 C68.4655286,33.0009102 76.08116,27.1766651 76.08116,27.1766651 C76.08116,27.1766651 83.7343686,33.0009102 83.9723571,33.2142985 C84.2729741,33.4276868 84.1226656,33.7917021 83.75942,33.7289409 Z M70.5573221,71.4861162 L70.5573221,71.4861162 C70.5573221,71.4861162 70.131448,71.6367433 70.043768,72.0007586 C71.6470588,73.2308793 72.7242698,76.0425839 76.0686343,76.0425839 C79.4129988,76.0425839 80.5277869,73.2434316 82.118552,72.0007586 C81.9932949,71.6367433 81.6049979,71.4861162 81.6049979,71.4861162 C81.6049979,71.4861162 79.5006787,72.0007586 76.0561086,72.0007586 C72.6365899,72.0007586 70.5573221,71.4861162 70.5573221,71.4861162 Z M76.0686343,66.7790216 L76.0686343,66.7790216 C75.1417318,66.7790216 74.9538462,66.4401108 74.3275607,66.4401108 C73.7263266,66.4401108 72.5489099,66.9170964 72.28587,67.3438729 C72.3234471,67.5823657 72.4111271,67.7706495 72.5614356,67.9463811 C73.9142123,68.1597693 74.5154463,68.9129045 76.08116,68.9129045 C77.6468737,68.9129045 78.2481078,68.1597693 79.6008844,67.9463811 C79.7762443,67.7706495 79.8388729,67.5823657 79.87645,67.3438729 C79.6384615,66.9170964 78.4610448,66.4401108 77.8598108,66.4401108 C77.2209996,66.4401108 77.0080625,66.7790216 76.0686343,66.7790216 Z M152.16232,81.1890074 L152.16232,81.1890074 C152.07464,83.0341885 151.886754,84.8417129 151.673817,86.6241327 C143.056129,88.0676417 139.962279,80.3480065 131.131654,80.7496786 C131.645208,82.6199642 132.096133,84.553011 132.39675,86.5111624 C139.686713,86.4735057 142.642781,93.3270355 150.746915,92.2977508 C150.321041,94.3814247 149.807487,96.4525464 149.206253,98.473459 C142.793089,99.1010716 140.525936,92.7119751 133.123241,92.9002589 C133.18587,93.9546481 133.210921,95.0090373 133.210921,96.1010833 C133.210921,96.7035914 133.210921,97.3060995 133.18587,97.8835032 C139.511353,97.8207419 141.553044,103.670092 147.590436,103.393942 C146.863945,105.452511 146.024722,107.435767 145.085294,109.393919 C140.751399,109.18053 139.273365,103.60733 132.672316,104.059211 C132.459379,105.477616 132.22139,106.89602 131.920773,108.276768 C137.645023,107.887648 138.885068,113.159594 142.980975,113.586371 C141.928815,115.481761 140.814027,117.352047 139.611559,119.134467 C137.206623,117.841585 135.089778,113.91273 130.480317,113.674237 C130.931242,112.230728 131.357116,110.724457 131.707836,109.243292 C127.611929,109.243292 122.93984,107.649156 119.031818,104.059211 C120.296915,96.8165617 109.086405,89.4609418 109.086405,84.1638912 C109.086405,78.4024073 112.004895,75.2392397 112.004895,67.4568432 C112.004895,61.7330161 109.199136,55.4568899 104.990498,51.2142285 C104.176327,50.3732276 103.337104,49.7079582 102.372624,49.1054501 C106.255594,53.9004106 109.211662,59.5991332 109.211662,66.1765135 C109.211662,73.4693721 105.842246,77.3354659 105.842246,84.0885777 C105.842246,90.816585 115.687454,96.6659347 115.687454,103.594778 C115.687454,106.343721 114.810654,109.029903 111.929741,114.264193 C116.351316,118.695138 122.113143,121.10517 125.845804,121.10517 C127.060798,121.10517 127.687084,120.71605 128.138009,119.774631 C128.501255,118.958735 128.8645,118.117734 129.190169,117.301838 C133.198396,117.452465 135.039675,121.10517 137.231674,122.548679 C136.029206,124.180472 134.726532,125.749504 133.398807,127.280878 C131.920773,125.623981 129.904134,122.875038 126.985644,122.096798 C126.47209,123.126083 125.933484,124.117711 125.33225,125.109339 C127.862443,125.774608 129.578466,128.335268 130.906191,129.992165 C129.490786,131.498435 127.987701,132.91684 126.421987,134.272483 C125.457507,132.766213 123.954422,130.833166 122.2384,129.816433 C121.637166,130.657434 120.973303,131.510987 120.309441,132.314332 C121.724846,133.280855 123.014994,135.025618 123.829165,136.469127 C122.050514,137.912636 120.184183,139.26828 118.255224,140.573714 C117.290745,132.828974 106.744097,127.519371 109.574907,118.531958 C108.648005,120.10099 107.533217,122.084246 107.533217,124.469174 C107.533217,130.983793 114.459934,136.142769 115.011065,142.619731 C113.59566,143.460732 112.117626,144.276628 110.614541,145.029763 C110.376553,137.950293 103.049013,130.167896 103.049013,124.318547 C103.049013,117.803928 111.579021,111.264204 111.579021,103.569674 C111.579021,95.9127995 101.721288,90.5780922 101.721288,83.8249804 C101.721288,77.0718686 105.904875,73.1806703 105.904875,64.5572729 C105.904875,58.2183854 102.898704,51.8041844 98.251666,47.6995978 C97.4374949,46.9715672 96.6233237,46.4067158 95.6588441,45.8920735 C100.017791,51.138915 102.547984,55.9338755 102.547984,63.1639729 C102.547984,71.2978325 97.7631633,75.7915388 97.7631633,83.7496669 C97.7631633,91.7077949 107.395434,96.1387401 107.395434,103.557121 C107.395434,111.000607 98.4270259,117.251629 98.4270259,124.870846 C98.4270259,131.799689 106.343274,138.741085 106.468531,146.96281 C104.752509,147.715945 102.973858,148.406319 101.170156,149.046484 C102.197265,140.724341 93.2789593,132.1386 93.2789593,125.347832 C93.2789593,117.92945 102.585561,111.565458 102.585561,103.544569 C102.585561,95.5613365 93.1286508,91.8458697 93.1286508,83.6241444 C93.1286508,75.4275235 98.94058,70.8710559 98.94058,61.8334341 C98.94058,54.7539637 95.445907,48.3899717 90.3604689,44.4611167 C90.2352118,44.3732509 90.1475319,44.2853852 90.0348005,44.1849672 C89.5588235,43.8586086 89.1580008,44.2728329 89.5212464,44.6996095 C93.1035993,49.1933159 95.0325586,53.774888 95.0325586,60.5028953 C95.0325586,68.8250387 88.3688811,75.5404938 88.3688811,83.5990399 C88.3688811,93.0634382 97.3122378,95.7747247 97.3122378,103.557121 C97.3122378,111.364622 87.7050185,117.577987 87.7050185,125.837369 C87.7050185,133.494243 96.7986837,141.992118 95.23297,150.866561 C93.4292678,151.318442 91.5629371,151.745218 89.6966063,152.071577 C91.4126285,141.063252 82.4943233,133.14278 82.4943233,125.962892 C82.4943233,118.155391 92.4397367,111.188891 92.4397367,103.557121 C92.4397367,96.3772329 85.3000823,94.0299617 84.3606541,86.6743417 C84.235397,85.6827138 83.4337515,84.9295786 82.3064377,85.1053102 C80.8659811,85.3689075 78.9996503,86.3354309 76.0686343,86.3354309 C73.150144,86.3354309 71.3088647,85.3689075 69.8308309,85.1053102 C68.7410942,84.9295786 67.9394488,85.6701615 67.7766146,86.6743417 C66.8622378,94.0299617 59.7225833,96.3772329 59.7225833,103.557121 C59.7225833,111.188891 69.6930481,118.155391 69.6930481,125.962892 C69.6930481,133.14278 60.7496915,141.063252 62.4657137,152.071577 C60.599383,151.745218 58.7330522,151.318442 56.9293501,150.866561 C55.3636364,142.004671 64.4573015,133.506796 64.4573015,125.837369 C64.4573015,117.577987 54.8500823,111.364622 54.8500823,103.557121 C54.8500823,95.7747247 63.831016,93.0634382 63.831016,83.5990399 C63.831016,75.553046 57.1422871,68.8250387 57.1422871,60.5028953 C57.1422871,53.774888 59.0712464,49.1933159 62.6786508,44.6996095 C63.0043192,44.2728329 62.6160222,43.8586086 62.1400452,44.1849672 C62.0147882,44.2728329 61.9271082,44.3606987 61.8018511,44.4611167 C56.716413,48.3774195 53.22174,54.7414115 53.22174,61.8334341 C53.22174,70.8710559 59.0336693,75.4275235 59.0336693,83.6241444 C59.0336693,91.858422 49.5767585,95.5613365 49.5767585,103.544569 C49.5767585,111.565458 58.8833608,117.92945 58.8833608,125.347832 C58.8833608,132.126048 49.9650555,140.724341 50.9921637,149.046484 C49.1884615,148.418872 47.4348622,147.715945 45.6937886,146.96281 C45.8190457,138.728533 53.7352941,131.799689 53.7352941,124.870846 C53.7352941,117.239076 44.7543603,111.000607 44.7543603,103.557121 C44.7543603,96.1387401 54.3991567,91.7077949 54.3991567,83.7496669 C54.3991567,75.7915388 49.6143357,71.2978325 49.6143357,63.1639729 C49.6143357,55.9213232 52.144529,51.138915 56.5410531,45.8920735 C55.5389963,46.4067158 54.7624023,46.9715672 53.9231798,47.6995978 C49.2886672,51.8041844 46.2699712,58.2183854 46.2699712,64.5572729 C46.2699712,73.1806703 50.4535582,77.0718686 50.4535582,83.8249804 C50.4535582,90.5780922 40.6334019,95.9127995 40.6334019,103.569674 C40.6334019,111.264204 49.1634101,117.803928 49.1634101,124.318547 C49.1634101,130.167896 41.8108186,137.950293 41.5728301,145.029763 C40.069745,144.276628 38.6167626,143.460732 37.176306,142.619731 C37.7149116,136.142769 44.641629,130.983793 44.641629,124.469174 C44.641629,122.084246 43.5268408,120.10099 42.5874126,118.531958 C45.4558001,127.519371 34.8841012,132.828974 33.9196216,140.573714 C32.0157137,139.280832 30.149383,137.925188 28.3456808,136.469127 C29.1849033,135.025618 30.45,133.268303 31.9029823,132.314332 C31.2140683,131.498435 30.5752571,130.657434 29.9489716,129.816433 C28.2580008,130.845718 26.7298643,132.766213 25.7653846,134.272483 C24.2247223,132.91684 22.7216372,131.498435 21.2811806,129.992165 C22.6089058,128.335268 24.3499794,125.774608 26.8551213,125.109339 C26.2789387,124.117711 25.7152818,123.113531 25.2017277,122.096798 C22.2832374,122.875038 20.2916495,125.623981 18.7885644,127.280878 C17.4608392,125.736951 16.1706911,124.180472 14.968223,122.548679 C17.1977993,121.10517 19.0390786,117.452465 23.0473056,117.301838 C23.3729741,118.117734 23.7111682,118.958735 24.0994652,119.774631 C24.5253394,120.703498 25.1516248,121.10517 26.3916701,121.10517 C30.0992801,121.10517 35.8485808,118.695138 40.282682,114.264193 C37.4142945,109.017351 36.5500206,106.331169 36.5500206,103.594778 C36.5500206,96.6659347 46.3952283,90.816585 46.3952283,84.0885777 C46.3952283,77.3354659 42.9882353,73.4819244 42.9882353,66.1765135 C42.9882353,59.5991332 45.9693542,53.9004106 49.8272727,49.1054501 C48.8627931,49.7079582 48.0235705,50.3732276 47.2093994,51.2142285 C43.0258124,55.4568899 40.2200535,61.7330161 40.2200535,67.4568432 C40.2200535,75.2392397 43.1134924,78.4024073 43.1134924,84.1638912 C43.1134924,89.473494 31.9029823,96.829114 33.1806047,104.059211 C29.2600576,107.649156 24.5879679,109.243292 20.4920609,109.243292 C20.8553065,110.724457 21.2811806,112.230728 21.7321061,113.674237 C17.1476964,113.91273 15.0433772,117.841585 12.6008638,119.134467 C11.3983957,117.352047 10.2836076,115.494313 9.23144796,113.586371 C13.327355,113.159594 14.5674002,107.887648 20.2916495,108.276768 C19.9910325,106.89602 19.753044,105.477616 19.540107,104.059211 C12.9766351,103.60733 11.4610243,109.18053 7.12712875,109.393919 C6.22527766,107.435767 5.38605512,105.452511 4.62198684,103.393942 C10.6468531,103.670092 12.7010695,97.8207419 19.0265529,97.8835032 C19.0015014,97.3060995 19.0015014,96.7035914 19.0015014,96.1010833 C19.0015014,95.0215896 19.0265529,93.9672004 19.0891814,92.9002589 C11.6739613,92.7245274 9.41933361,99.1136239 3.0061703,98.473459 C2.42998766,96.4525464 1.91643357,94.3688725 1.46550802,92.2977508 C9.56964212,93.3270355 12.5257096,86.4735057 19.8156726,86.5111624 C20.141341,84.553011 20.5672151,82.6199642 21.1058206,80.7496786 C12.250144,80.3605587 9.18134513,88.080194 0.563656931,86.6241327 C0.325668449,84.8417129 0.175359934,83.0341885 0.0876799671,81.1890074 C10.0831962,82.3438146 13.8534348,74.0718802 22.9846771,75.101165 C23.8614768,72.9045208 24.8510078,70.7831901 25.965796,68.7748297 C14.5172974,66.7539171 10.6343274,76.3438379 0,74.8626722 C1.06468531,33.7289409 34.721267,0.754173661 76.0686343,0.754173661 C117.416002,0.754173661 151.072583,33.7289409 152.25,74.8626722 C141.590621,76.3438379 137.695125,66.7539171 126.246627,68.7748297 C127.361415,70.7957424 128.388523,72.9045208 129.227746,75.101165 C138.371514,74.0718802 142.129227,82.3312624 152.16232,81.1890074 Z M43.3264295,49.2309726 L43.3264295,49.2309726 C37.7149116,46.9464627 30.9134513,47.4485528 25.1265734,51.189124 C24.2247223,45.7916555 21.306232,40.9715905 17.1101193,38.0720202 C16.5339367,37.6829004 15.9327026,38.0720202 15.9953311,38.7372896 C16.8721308,50.1598393 10.2084533,60.0510143 2.01663924,68.7622775 C10.4464418,71.2978325 17.6487248,60.4150296 28.6212464,64.2058098 C32.5417935,58.3690124 37.5520773,53.2727979 43.3264295,49.2309726 Z M76.0686343,42.3272338 L76.0686343,42.3272338 C68.9916084,42.3272338 63.0919992,46.3062978 61.5262855,51.4903781 C61.4010284,51.8794979 61.588914,52.1556475 62.0398396,51.9422592 C63.3049362,51.3774078 64.7579186,51.1012583 66.3236323,51.1012583 C69.2170712,51.1012583 71.7472645,52.1556475 73.2503497,54.0008286 C73.9142123,56.1974728 73.9768408,59.3606404 73.2252982,61.2058215 C72.0478815,60.9422242 71.6220074,60.0008052 70.4445907,60.0008052 C69.3047511,60.0008052 68.4029,60.8167017 66.4363636,60.8167017 C64.4447758,60.8167017 64.2318387,59.9129395 62.9416907,59.9129395 C61.4135541,59.9129395 61.1379885,61.481971 61.1379885,63.2267341 C61.1379885,71.1221009 68.3653229,81.9797993 76.08116,81.9797993 C83.7969971,81.9797993 91.0243316,71.1346532 91.0243316,63.2267341 C91.0243316,61.481971 90.661086,59.938044 89.0953723,59.7246557 C88.2812012,60.3020593 87.5672357,60.8167017 85.7510078,60.8167017 C83.75942,60.8167017 83.2208145,60.0008052 82.0809749,60.0008052 C80.6906211,60.0008052 80.8158782,62.9505846 79.1624846,63.1388684 C78.0476964,60.4526863 77.9850679,57.0510259 78.9244961,54.0008286 C80.440107,52.1681997 82.9703003,51.1012583 85.8512135,51.1012583 C87.4169272,51.1012583 88.8949609,51.3774078 90.1600576,51.9422592 C90.6109831,52.1556475 90.7612916,51.8794979 90.6360346,51.4903781 C89.0828466,46.3062978 83.1581859,42.3272338 76.0686343,42.3272338 Z M87.3417729,53.6368133 L87.3417729,53.6368133 C85.6508021,53.6368133 83.67174,54.1514556 82.4066434,55.5698601 C82.2813863,55.9338755 82.2813863,56.5112791 82.4692719,56.8627421 C85.5380708,55.8083529 88.2561497,55.7832484 89.5713492,57.251862 C90.2602633,56.6242493 90.4732003,56.0468457 90.4732003,55.3815763 C90.4732003,54.3522916 89.4460921,53.6368133 87.3417729,53.6368133 Z M62.6160222,57.251862 L62.6160222,57.251862 C64.0940559,55.7455917 67.2254833,55.8083529 70.4821678,57.0133692 C70.6074249,55.4192331 67.713986,53.6368133 64.8205471,53.6368133 C62.7412793,53.6368133 61.6891197,54.3648439 61.6891197,55.3815763 C61.676594,56.0468457 61.9145825,56.6242493 62.6160222,57.251862 Z M111.353558,30.5406687 L111.353558,30.5406687 C105.779617,30.9297886 100.907116,32.8628354 96.9865693,36.0636598 C98.6775401,31.3314606 100.781859,27.2017696 103.462361,23.1850488 C96.3477581,23.9381839 90.3855204,26.523948 86.0516248,30.9925498 L82.682209,22.0678983 L90.2101604,15.4026523 L80.1144385,14.7122784 L76.08116,5.29808905 L72.0478815,14.7122784 L61.9521596,15.4026523 L69.5176882,22.0678983 L66.1106952,30.9925498 C61.7767997,26.523948 55.8396133,23.9381839 48.737536,23.1850488 C51.3929864,27.1892173 53.5223571,31.3189084 55.1882764,36.0636598 C51.2677293,32.8628354 46.4202797,30.9423408 40.8212875,30.5406687 C44.1907034,34.8586436 47.1467709,39.4402157 49.3512958,44.3732509 C49.5892842,44.9506546 50.1278898,45.1263861 50.7040724,44.825132 C58.357281,41.0217995 66.9749691,38.8879166 76.0936857,38.8879166 C85.224928,38.8879166 93.8426162,41.0343518 101.483299,44.825132 C102.059482,45.1263861 102.598087,44.9506546 102.836076,44.3732509 C105.028075,39.4276635 108.009194,34.8460913 111.353558,30.5406687 Z M123.553599,64.2183621 L123.553599,64.2183621 C134.488544,60.4150296 141.690827,71.2978325 150.145681,68.7748297 C141.953867,60.0635665 135.265138,50.1723916 136.166989,38.7498418 C136.19204,38.0845725 135.590806,37.6954526 135.027149,38.0845725 C130.868614,40.9841428 127.950123,45.8042077 127.048272,51.2016763 C121.236343,47.461105 114.459934,46.9464627 108.848416,49.2435249 C114.597717,53.2727979 119.608001,58.3690124 123.553599,64.2183621 Z" id="Shape"></path>
                    </g>
                    <rect id="Rectangle" fill="#CA975D" x="99.8083333" y="0" width="3.38333333" height="18.5877551" rx="1.69166667"></rect>
                    <rect id="Rectangle-Copy-8" fill="#CA975D" x="99.8083333" y="188.412245" width="3.38333333" height="18.5877551" rx="1.69166667"></rect>
                    <path d="M150.251313,9.90429155 C151.1563,9.90560882 151.889502,10.6391183 151.890441,11.5441058 L151.906432,26.9678632 C151.907367,27.8699402 151.176848,28.6019763 150.274771,28.6029116 C150.273414,28.602913 150.272057,28.6029127 150.2707,28.6029107 C149.365713,28.6015934 148.63251,27.868084 148.631572,26.9630965 L148.615581,11.539339 C148.614645,10.637262 149.345165,9.90522597 150.247242,9.9042907 C150.248599,9.90428929 150.249956,9.90428957 150.251313,9.90429155 Z" id="Rectangle-Copy-2" fill="#CA975D" transform="translate(150.261006, 19.253601) rotate(30.000000) translate(-150.261006, -19.253601) "></path>
                    <path d="M183.647523,42.655646 C184.552156,42.6569633 185.285072,43.3901866 185.286009,44.2948206 L185.30196,59.6857352 C185.302895,60.5874596 184.57266,61.3192093 183.670936,61.3201438 C183.66958,61.3201452 183.668223,61.3201449 183.666866,61.320143 C182.762233,61.3188257 182.029317,60.5856024 182.02838,59.6809684 L182.012429,44.2900538 C182.011494,43.3883294 182.741728,42.6565797 183.643453,42.6556451 C183.644809,42.6556437 183.646166,42.655644 183.647523,42.655646 Z" id="Rectangle-Copy-4" fill="#CA975D" transform="translate(183.657194, 51.987894) rotate(60.000000) translate(-183.657194, -51.987894) "></path>
                    <path d="M193.695833,89.5488946 C194.629082,89.5488946 195.385629,90.305442 195.385629,91.2386905 L195.385629,106.467432 C195.385629,107.40068 194.629082,108.157228 193.695833,108.157228 C192.762585,108.157228 192.006037,107.40068 192.006037,106.467432 L192.006037,91.2386905 C192.006037,90.305442 192.762585,89.5488946 193.695833,89.5488946 Z" id="Rectangle-Copy-6" fill="#CA975D" transform="translate(193.695833, 98.853061) rotate(90.000000) translate(-193.695833, -98.853061) "></path>
                    <path d="M9.30416667,90.3937925 C10.2374152,90.3937925 10.9939626,91.1503399 10.9939626,92.0835884 L10.9939626,107.31233 C10.9939626,108.245578 10.2374152,109.002126 9.30416667,109.002126 C8.37091815,109.002126 7.61437075,108.245578 7.61437075,107.31233 L7.61437075,92.0835884 C7.61437075,91.1503399 8.37091815,90.3937925 9.30416667,90.3937925 Z" id="Rectangle-Copy-7" fill="#CA975D" transform="translate(9.304167, 99.697959) rotate(90.000000) translate(-9.304167, -99.697959) "></path>
                    <path d="M46.2741271,9.90429155 C47.1762036,9.90297851 47.9085455,10.6331916 47.9098586,11.5352681 C47.9098605,11.5366251 47.9098608,11.537982 47.9098594,11.539339 L47.893868,26.9630965 C47.8929297,27.868084 47.1597273,28.6015934 46.2547403,28.6029107 C45.3526638,28.6042238 44.6203219,27.8740107 44.6190088,26.9719342 C44.6190069,26.9705772 44.6190066,26.9692202 44.619008,26.9678632 L44.6349994,11.5441058 C44.6359377,10.6391183 45.3691401,9.90560882 46.2741271,9.90429155 Z" id="Rectangle-Copy-3" fill="#CA975D" transform="translate(46.264434, 19.253601) rotate(-30.000000) translate(-46.264434, -19.253601) "></path>
                    <path d="M150.251313,170.784463 C151.1563,170.78578 151.889502,171.51929 151.890441,172.424277 L151.906432,187.848035 C151.907367,188.750112 151.176848,189.482148 150.274771,189.483083 C150.273414,189.483085 150.272057,189.483084 150.2707,189.483082 C149.365713,189.481765 148.63251,188.748256 148.631572,187.843268 L148.615581,172.419511 C148.614645,171.517434 149.345165,170.785398 150.247242,170.784462 C150.248599,170.784461 150.249956,170.784461 150.251313,170.784463 Z" id="Rectangle-Copy-2" fill="#CA975D" transform="translate(150.261006, 180.133773) scale(1, -1) rotate(30.000000) translate(-150.261006, -180.133773) "></path>
                    <path d="M46.2741271,170.784463 C47.1762036,170.78315 47.9085455,171.513363 47.9098586,172.41544 C47.9098605,172.416797 47.9098608,172.418154 47.9098594,172.419511 L47.893868,187.843268 C47.8929297,188.748256 47.1597273,189.481765 46.2547403,189.483082 C45.3526638,189.484395 44.6203219,188.754182 44.6190088,187.852106 C44.6190069,187.850749 44.6190066,187.849392 44.619008,187.848035 L44.6349994,172.424277 C44.6359377,171.51929 45.3691401,170.78578 46.2741271,170.784463 Z" id="Rectangle-Copy-3" fill="#CA975D" transform="translate(46.264434, 180.133773) scale(1, -1) rotate(-30.000000) translate(-46.264434, -180.133773) "></path>
                    <path d="M17.4241701,42.655646 C18.3258941,42.654333 19.0579502,43.3842602 19.0592632,44.2859842 C19.0592652,44.2873407 19.0592655,44.2886973 19.0592641,44.2900538 L19.0433129,59.6809684 C19.0423754,60.5856024 18.3094597,61.3188257 17.4048262,61.320143 C16.5031023,61.321456 15.7710461,60.5915287 15.7697331,59.6898048 C15.7697311,59.6884482 15.7697308,59.6870917 15.7697322,59.6857352 L15.7856834,44.2948206 C15.786621,43.3901866 16.5195366,42.6569633 17.4241701,42.655646 Z" id="Rectangle-Copy-5" fill="#CA975D" transform="translate(17.414498, 51.987894) rotate(-60.000000) translate(-17.414498, -51.987894) "></path>
                    <path d="M183.647523,139.589756 C184.552156,139.591073 185.285072,140.324296 185.286009,141.22893 L185.30196,156.619845 C185.302895,157.521569 184.57266,158.253319 183.670936,158.254254 C183.66958,158.254255 183.668223,158.254255 183.666866,158.254253 C182.762233,158.252935 182.029317,157.519712 182.02838,156.615078 L182.012429,141.224164 C182.011494,140.322439 182.741728,139.590689 183.643453,139.589755 C183.644809,139.589753 183.646166,139.589754 183.647523,139.589756 Z" id="Rectangle-Copy-4" fill="#CA975D" transform="translate(183.657194, 148.922004) scale(1, -1) rotate(60.000000) translate(-183.657194, -148.922004) "></path>
                    <path d="M17.4241701,139.589756 C18.3258941,139.588443 19.0579502,140.31837 19.0592632,141.220094 C19.0592652,141.22145 19.0592655,141.222807 19.0592641,141.224164 L19.0433129,156.615078 C19.0423754,157.519712 18.3094597,158.252935 17.4048262,158.254253 C16.5031023,158.255566 15.7710461,157.525638 15.7697331,156.623914 C15.7697311,156.622558 15.7697308,156.621201 15.7697322,156.619845 L15.7856834,141.22893 C15.786621,140.324296 16.5195366,139.591073 17.4241701,139.589756 Z" id="Rectangle-Copy-5" fill="#CA975D" transform="translate(17.414498, 148.922004) scale(1, -1) rotate(-60.000000) translate(-17.414498, -148.922004) "></path>
                </g>
                <g id="logo" transform="translate(248.894966, 87.191206) rotate(-90.000000) translate(-248.894966, -87.191206) translate(176.394966, 80.191206)" fill="#1D1D1B" fill-rule="nonzero">
                    <path d="M92.7325581,7.86902183 L92.7325581,7.86902183 C92.7325581,11.8536911 90.3696316,14 85.968681,14 C81.6661857,14 79.244186,11.8256957 79.244186,7.9250125 L79.244186,0.823529412 L84.0881854,0.823529412 L84.0881854,7.68238627 C84.0881854,9.58606899 84.6296894,10.4352608 85.9391445,10.4352608 C87.238754,10.4352608 87.8787133,9.67938677 87.8787133,7.50508249 L87.8787133,0.83286119 L92.7227126,0.83286119 L92.7227126,7.86902183 L92.7325581,7.86902183 Z" id="Path"></path>
                    <polygon id="Path" points="22.7502528 4.17944147 22.7502528 4.17944147 22.7502528 14 17.7148635 14 17.7148635 4.17944147 13.4883721 4.17944147 13.4883721 0.823529412 26.9767442 0.823529412 26.9767442 4.17944147"></polygon>
                    <path d="M34.9658359,3.83719548 L34.9658359,3.83719548 L33.758639,8.33392751 L36.2024766,8.33392751 L34.9658359,3.83719548 Z M38.1163254,14 L38.1163254,14 L37.2918982,11.5662507 L32.6888466,11.5662507 L31.8349756,14 L26.9767442,14 L31.9036779,0.823529412 L38.0966962,0.823529412 L42.994186,14 L38.1163254,14 Z" id="Shape"></path>
                    <path d="M108.75,11.9384861 L108.75,11.9384861 L107.296175,8.6741996 C106.408269,9.27020697 105.559391,9.80202893 104.134838,9.80202893 C102.241939,9.80202893 100.973501,8.3441032 100.973501,6.5377424 C100.973501,4.7313816 102.085823,3.18176243 104.066537,3.18176243 C105.325218,3.18176243 106.408269,3.7777698 107.286418,4.42879324 L108.710971,1.21952278 C107.101031,0.449297865 105.491091,0 103.276203,0 C99.1976879,0 96.1046512,2.61326309 96.1046512,6.50106502 C96.1046512,10.5997619 99.1001157,13.1764706 103.432319,13.1764706 C105.803321,13.1855169 107.481562,12.681203 108.75,11.9384861 Z" id="Path"></path>
                    <polygon id="Path" points="119.951833 14 119.951833 14 116.867092 9.18954248 116.867092 14 112.122093 14 112.122093 0.823529412 116.867092 0.823529412 116.867092 5.65300059 119.755352 0.823529412 125.040672 0.823529412 120.58057 7.31669638 125.610465 14"></polygon>
                    <path d="M5.63161539,14 L5.63161539,14 C8.65439698,14 11.8023256,12.9298124 11.8023256,9.46629604 C11.8023256,6.38220987 9.18386509,5.52605976 7.1237528,5.08825573 C5.59310862,4.73801251 4.85185326,4.58234885 4.85185326,3.94996525 C4.85185326,3.13273106 5.91078948,3.06462821 6.4402576,3.06462821 C7.84575477,3.06462821 9.11647824,3.62890896 10.2428013,4.31966644 L11.4942714,1.2647672 C9.83848022,0.544822794 7.87463485,0 6.03593649,0 C2.91688797,0 0.45245457,1.50799166 0.45245457,4.60180681 C0.45245457,7.12161223 2.34891308,8.09451008 4.43790546,8.60041696 C5.87228271,8.97984712 6.80607193,9.0771369 6.80607193,9.79708131 C6.80607193,10.5170257 6.08406996,10.7407922 5.40057476,10.7407922 C3.86993057,10.7407922 2.43555332,10.0792217 1.53064418,9.29117443 L0,12.2487839 C1.67504458,13.3384295 3.63888994,14 5.63161539,14 Z" id="Path"></path>
                    <path d="M132.941522,14 L132.941522,14 C135.976682,14 139.098837,12.9298124 139.098837,9.46629604 C139.098837,6.38220987 136.469654,5.52605976 134.43977,5.08825573 C132.902858,4.73801251 132.158567,4.58234885 132.158567,3.94996525 C132.158567,3.13273106 133.192841,3.06462821 133.753476,3.06462821 C135.126064,3.06462821 136.440656,3.62890896 137.532927,4.31966644 L138.779855,1.2647672 C137.155948,0.544822794 135.184061,0 133.337833,0 C130.177014,0 127.702488,1.50799166 127.702488,4.60180681 C127.702488,7.12161223 129.606713,8.09451008 131.70426,8.60041696 C133.173509,8.97984712 134.082124,9.0771369 134.082124,9.79708131 C134.082124,10.5170257 133.39583,10.7407922 132.709536,10.7407922 C131.172623,10.7407922 129.703374,10.0792217 128.794759,9.29117443 L127.296512,12.2487839 C128.930085,13.3384295 130.940637,14 132.941522,14 Z" id="Path"></path>
                    <path d="M141.627907,1.65908115 L141.627907,1.65908115 L141.627907,1.6350365 C141.627907,0.75339917 142.380016,0 143.338748,0 C144.272686,0 145,0.729354516 145,1.6350365 C145,2.54071848 144.272686,3.29411765 143.313953,3.29411765 C142.346956,3.29411765 141.627907,2.54071848 141.627907,1.65908115 Z M144.760317,1.6350365 L144.760317,1.6350365 C144.760317,0.857592672 144.173507,0.208387004 143.347013,0.208387004 C142.48746,0.208387004 141.85106,0.857592672 141.85106,1.6350365 L141.85106,1.65908115 C141.85106,2.43652497 142.495725,3.08573064 143.322218,3.08573064 C144.165242,3.08573064 144.760317,2.43652497 144.760317,1.6350365 Z M142.669289,0.75339917 L142.669289,0.75339917 L143.446192,0.75339917 C143.661081,0.75339917 143.842909,0.833548018 143.950353,0.93774152 C144.033003,1.01789037 144.082592,1.12208387 144.082592,1.25032203 L144.082592,1.27436668 C144.082592,1.53084299 143.892499,1.71518534 143.628021,1.77128954 L144.165242,2.44453986 L143.875969,2.44453986 L143.363543,1.79533419 L143.338748,1.79533419 L142.908972,1.79533419 L142.908972,2.44453986 L142.669289,2.44453986 L142.669289,0.75339917 L142.669289,0.75339917 Z M143.421398,1.5789323 L143.421398,1.5789323 C143.661081,1.5789323 143.826379,1.4747388 143.826379,1.2663518 C143.826379,1.08200945 143.69414,0.977815944 143.421398,0.977815944 L142.917237,0.977815944 L142.917237,1.57091742 L143.421398,1.57091742 L143.421398,1.5789323 Z" id="Shape"></path>
                    <path d="M56.4850213,9.07546049 L56.4850213,9.07546049 C58.179689,8.48603684 59.0664337,6.86036839 59.0664337,5.34878194 C59.0664337,2.24004753 56.8594246,0.823529412 53.7361128,0.823529412 L46.3662791,0.823529412 L46.3662791,14 L51.1152896,14 L51.1152896,10.0926916 L52.2976158,10.0926916 L54.7509428,14 L59.8546512,14 L56.4850213,9.07546049 Z M54.287865,5.34878194 L54.287865,5.34878194 C54.287865,6.21390374 53.7164073,6.73677956 52.7902518,6.73677956 L51.134995,6.73677956 L51.134995,3.97029115 L52.8296626,3.97029115 C53.72626,3.97029115 54.2977177,4.43612597 54.2977177,5.32026144 L54.2977177,5.34878194 L54.287865,5.34878194 Z" id="Shape"></path>
                    <path d="M72.9836596,7.25965538 L72.9836596,7.25965538 C74.7031952,6.88888889 75.5822837,5.93820559 75.5822837,4.3315508 C75.5822837,2.08793821 73.8627481,0.823529412 70.8583909,0.823529412 L63.2267442,0.823529412 L63.2267442,14 L70.5492609,14 C74.0849352,14 75.872093,12.7641117 75.872093,10.2733214 C75.8624327,8.55258467 74.7321762,7.42127154 72.9836596,7.25965538 Z M67.8250529,3.69459299 L67.8250529,3.69459299 L69.5156075,3.69459299 C70.3946959,3.69459299 70.954994,4.06535948 70.954994,4.83541295 L70.954994,4.86393345 C70.954994,5.60546643 70.4236769,6.03327392 69.4866266,6.03327392 L67.8347132,6.03327392 L67.8347132,3.69459299 L67.8250529,3.69459299 Z M71.0419369,9.91206179 L71.0419369,9.91206179 C71.0419369,10.6821153 70.4526578,11.1384433 69.5156075,11.1384433 L67.8250529,11.1384433 L67.8250529,8.6761735 L69.5445884,8.6761735 C70.4526578,8.6761735 71.0419369,9.07546049 71.0419369,9.87403446 L71.0419369,9.91206179 Z" id="Shape"></path>
                </g>
            </g>
        </g>
    </g>
</svg>