<?xml version="1.0" encoding="UTF-8"?>
<svg width="205px" height="37px" viewBox="0 0 205 37" version="1.1" xmlns="http://www.w3.org/2000/svg" xmlns:xlink="http://www.w3.org/1999/xlink">
    <!-- Generator: sketchtool 62 (101010) - https://sketch.com -->
    <title>76FC1BE2-7246-4ED4-8495-39D1CF32D035</title>
    <desc>Created with sketchtool.</desc>
    <g id="Page-1" stroke="none" stroke-width="1" fill="none" fill-rule="evenodd">
        <g id="Landing-Page-Design-V3-Inspect-Mode" transform="translate(-98.000000, -35.000000)">
            <g id="Intro-Section" transform="translate(-52.000000, 28.000000)">
                <g id="Navigation" transform="translate(150.000000, 0.000000)">
                    <g id="Logo" transform="translate(0.000000, 7.000000)">
                        <g id="Group">
                            <path d="M7.31351351,0 L29.2540541,0 C33.293196,0 36.5675676,3.27437153 36.5675676,7.31351351 L36.5675676,29.2540541 C36.5675676,33.293196 33.293196,36.5675676 29.2540541,36.5675676 L7.31351351,36.5675676 C3.27437153,36.5675676 0,33.293196 0,29.2540541 L0,7.31351351 C0,3.27437153 3.27437153,0 7.31351351,0 Z" id="Rectangle" fill="#2AB7FF"></path>
                            <path d="M1.82837838,10.1576577 L34.7391892,10.1576577 C34.963586,10.1576577 35.1454955,10.3395672 35.1454955,10.563964 C35.1454955,10.7883607 34.963586,10.9702703 34.7391892,10.9702703 L1.82837838,10.9702703 C1.6039816,10.9702703 1.42207207,10.7883607 1.42207207,10.563964 C1.42207207,10.3395672 1.6039816,10.1576577 1.82837838,10.1576577 Z" id="Rectangle" fill="#FFFFFF"></path>
                            <path d="M29.0910449,2.31375627 L29.0910449,8.07016777 C29.0910449,8.29456455 28.9091354,8.47647408 28.6847386,8.47647408 C28.4603419,8.47647408 28.2784323,8.29456455 28.2784323,8.07016777 L28.2784323,2.31375627 C28.2784323,2.08935949 28.4603419,1.90744996 28.6847386,1.90744996 C28.9091354,1.90744996 29.0910449,2.08935949 29.0910449,2.31375627 Z" id="Rectangle" fill="#FFFFFF"></path>
                            <path d="M8.28913524,2.31375627 L8.28913524,8.07016777 C8.28913524,8.29456455 8.10722571,8.47647408 7.88282894,8.47647408 C7.65843216,8.47647408 7.47652263,8.29456455 7.47652263,8.07016777 L7.47652263,2.31375627 C7.47652263,2.08935949 7.65843216,1.90744996 7.88282894,1.90744996 C8.10722571,1.90744996 8.28913524,2.08935949 8.28913524,2.31375627 Z" id="Rectangle-Copy" fill="#FFFFFF"></path>
                            <g id="cloudy" transform="translate(6.094595, 16.252252)" fill="#FFFFFF" fill-rule="nonzero">
                                <path d="M19.6158771,4.85699711 C18.9064979,4.85699711 18.1971187,5.01267009 17.5802672,5.29288146 C16.9325732,5.57309283 16.3774068,6.00897719 15.9147682,6.53826534 C15.6371851,6.8807459 15.1128613,6.9118805 14.8044356,6.60053453 C14.4651672,6.32032316 14.4343247,5.79103501 14.7427504,5.47968904 C15.3596019,4.76359332 16.1306662,4.20317057 16.9634157,3.82955541 C17.1176286,3.76728622 17.3026841,3.67388243 17.4568969,3.61161323 C16.9634157,2.64644073 16.223194,1.83694121 15.3596019,1.21424928 C14.2492692,0.435884356 12.9538811,0 11.5351227,0 C9.8696237,0 8.35833757,0.622691937 7.18631976,1.61899904 C6.01430194,2.64644073 5.18155244,4.07863219 4.93481185,5.72876582 C4.90396928,5.97784259 4.78059898,6.16465017 4.56470096,6.28918856 C4.44133067,6.38259235 4.2871178,6.41372695 4.13290493,6.41372695 C2.99172968,6.41372695 1.94308217,6.8807459 1.20286039,7.65911082 C0.462638611,8.40634115 0,9.46491744 0,10.6168975 C0,11.7688776 0.462638611,12.8274539 1.23370296,13.5746842 C1.97392474,14.3219145 3.02257226,14.8200681 4.1637475,14.8200681 L19.6775623,14.8200681 C21.0037929,14.9134719 22.2374959,14.3530491 23.1319306,13.4190112 C24.0263652,12.5161079 24.5815315,11.2707241 24.5815315,9.8696672 C24.5815315,8.46861034 24.0263652,7.22322647 23.1319306,6.32032316 C22.2374959,5.41741985 21.0037929,4.85699711 19.6158771,4.85699711 Z" id="Path"></path>
                            </g>
                        </g>
                        <g id="CalendarsCloud" transform="translate(45.432432, 9.972973)" fill-rule="nonzero">
                            <path d="M7.44784682,15.3502134 C8.46809981,15.3502134 9.47474943,15.1290778 10.4677957,14.6868065 C11.4608419,14.2445353 12.3314578,13.6423661 13.0796433,12.8802987 L13.0796433,12.8802987 L11.4676436,11.0839972 C10.937112,11.6147226 10.3283611,12.0297771 9.64139075,12.3291607 C8.95442041,12.6285443 8.2708509,12.7782361 7.59068224,12.7782361 C6.70646298,12.7782361 5.89706228,12.5639047 5.16248013,12.1352418 C4.42789797,11.7065789 3.84975461,11.1214201 3.42805004,10.3797653 C3.00634548,9.63811048 2.79549319,8.82501185 2.79549319,7.94046942 C2.79549319,7.05592698 3.00634548,6.24282835 3.42805004,5.50117354 C3.84975461,4.75951873 4.42789797,4.17776197 5.16248013,3.75590327 C5.89706228,3.33404457 6.70646298,3.12311522 7.59068224,3.12311522 C8.29805765,3.12311522 8.99523052,3.28641536 9.68220087,3.61301565 C10.3691712,3.93961593 10.9643188,4.3954955 11.4676436,4.98065434 L11.4676436,4.98065434 L13.0592383,2.9802276 C12.3654662,2.2589853 11.5288588,1.69423898 10.5494159,1.28598862 C9.56997304,0.877738265 8.57012511,0.673613087 7.54987212,0.673613087 C6.14872468,0.673613087 4.87340845,0.993409199 3.72392341,1.63300142 C2.57443838,2.27259365 1.66641322,3.15033191 0.99984793,4.26621622 C0.333282643,5.38210052 -8.11925352e-14,6.62045993 -8.11925352e-14,7.98129445 C-8.11925352e-14,9.34212897 0.326480957,10.5838905 0.97944287,11.7065789 C1.63240478,12.8292674 2.53022741,13.7172119 3.67291076,14.3704125 C4.81559411,15.0236131 6.07390613,15.3502134 7.44784682,15.3502134 Z M18.1400982,15.2685633 C18.9154904,15.2685633 19.6024608,15.1460882 20.2010092,14.901138 C20.7995576,14.6561878 21.289279,14.2955666 21.6701735,13.8192745 L21.6701735,13.8192745 L21.6701735,15.1460882 L24.2820212,15.1460882 L24.2616161,8.00170697 C24.2480127,6.7769559 23.8501141,5.82437174 23.0679201,5.14395448 C22.2857261,4.46353722 21.1872537,4.12332859 19.7725029,4.12332859 C18.8338702,4.12332859 18.014267,4.22879327 17.3136932,4.43972262 C16.6131195,4.65065197 15.8343264,4.99426268 14.9773139,5.47055477 L14.9773139,5.47055477 L15.9363517,7.30768137 C17.0654317,6.62726411 18.1468998,6.28705548 19.1807562,6.28705548 C19.9833552,6.28705548 20.595507,6.46396396 21.0172116,6.81778094 C21.4389162,7.17159791 21.6497684,7.66830251 21.6497684,8.30789474 L21.6497684,8.30789474 L21.6497684,8.59366999 L18.4665791,8.59366999 C17.1470519,8.60727833 16.1267989,8.90325984 15.4058201,9.48161451 C14.6848414,10.0599692 14.324352,10.8594595 14.324352,11.8800853 C14.324352,12.5196776 14.4807908,13.0980322 14.7936683,13.6151494 C15.1065459,14.1322665 15.5520564,14.5371147 16.1301998,14.8296942 C16.7083431,15.1222736 17.3783093,15.2685633 18.1400982,15.2685633 Z M18.772655,13.2273115 C18.1741066,13.2273115 17.7013894,13.0912281 17.3545034,12.8190612 C17.0076173,12.5468943 16.8341743,12.1794689 16.8341743,11.7167852 C16.8341743,11.2404931 17.0008156,10.8968824 17.3340983,10.6859531 C17.6673809,10.4750237 18.18771,10.369559 18.8950854,10.369559 L18.8950854,10.369559 L21.6497684,10.369559 L21.6497684,11.3493599 C21.5817516,11.8800853 21.2756757,12.3257587 20.7315407,12.6863798 C20.1874058,13.0470009 19.5344439,13.2273115 18.772655,13.2273115 Z M30.015843,15.1460882 L30.015843,-1.1168054e-13 L27.3631852,-1.1168054e-13 L27.3631852,15.1460882 L30.015843,15.1460882 Z M38.0350315,15.2481508 C38.9872676,15.2481508 39.8544826,15.0848506 40.6366766,14.7582504 C41.4188705,14.4316501 42.082035,13.9689663 42.6261699,13.3701991 L42.6261699,13.3701991 L41.1978157,11.8800853 C40.8169213,12.2747274 40.3714108,12.577513 39.8612843,12.7884424 C39.3511578,12.9993717 38.8172254,13.1048364 38.2594871,13.1048364 C37.4568881,13.1048364 36.7801203,12.8837008 36.2291837,12.4414296 C35.678247,11.9991584 35.3143568,11.3901849 35.137513,10.6145092 L35.137513,10.6145092 L43.1975116,10.6145092 C43.211115,10.4376008 43.2179166,10.172238 43.2179166,9.81842105 C43.2179166,8.02211949 42.7792079,6.62726411 41.9017903,5.63385491 C41.0243727,4.64044571 39.715048,4.14374111 37.9738163,4.14374111 C36.8991498,4.14374111 35.940112,4.37848506 35.0967028,4.84797297 C34.2532937,5.31746088 33.5969309,5.97406354 33.1276146,6.81778094 C32.6582982,7.66149834 32.42364,8.62769085 32.42364,9.71635846 C32.42364,10.8050261 32.6548974,11.7678165 33.117412,12.6047297 C33.5799267,13.441643 34.2362895,14.0914414 35.0865003,14.5541252 C35.9367111,15.0168089 36.9195548,15.2481508 38.0350315,15.2481508 Z M40.7897145,8.8386202 L35.0762978,8.8386202 C35.1987281,8.02211949 35.5218083,7.37912518 36.0455381,6.90963727 C36.569268,6.44014936 37.2188291,6.20540541 37.9942213,6.20540541 C38.8240271,6.20540541 39.4905924,6.44355145 39.9939172,6.91984353 C40.497242,7.39613561 40.7625078,8.03572783 40.7897145,8.8386202 L40.7897145,8.8386202 Z M48.1559411,15.1460882 L48.1559411,9.77759602 C48.1559411,8.86583689 48.4110044,8.1173779 48.9211308,7.53221906 C49.4312573,6.94706022 50.1284302,6.64767662 51.0126495,6.63406828 C51.760835,6.63406828 52.3525817,6.85520389 52.7878897,7.29747511 C53.2231976,7.73974633 53.4408516,8.3419156 53.4408516,9.10398293 L53.4408516,9.10398293 L53.4408516,15.1460882 L56.1139144,15.1460882 L56.1139144,8.32830725 C56.1139144,7.03551446 55.753425,6.01148649 55.0324463,5.25622333 C54.3114675,4.50096017 53.3252229,4.12332859 52.0737126,4.12332859 C50.2100505,4.15054528 48.9041266,4.8649834 48.1559411,6.26664296 L48.1559411,6.26664296 L48.1559411,4.22539118 L45.5032833,4.22539118 L45.5032833,15.1460882 L48.1559411,15.1460882 Z M63.2964955,15.2685633 C64.1126979,15.2685633 64.8302758,15.1086652 65.4492293,14.7888691 C66.0681828,14.469073 66.5749084,14.0029872 66.9694062,13.3906117 L66.9694062,13.3906117 L66.9694062,15.1460882 L69.622064,15.1460882 L69.622064,-1.1168054e-13 L66.9694062,-1.1168054e-13 L66.9694062,6.02169275 C66.561305,5.40931721 66.0443769,4.9398293 65.4186217,4.61322902 C64.7928665,4.28662873 64.0650861,4.12332859 63.2352803,4.12332859 C62.2286307,4.12332859 61.3342089,4.35467046 60.5520149,4.8173542 C59.769821,5.28003793 59.1644709,5.92983642 58.7359646,6.76674964 C58.3074584,7.60366287 58.0932052,8.5664533 58.0932052,9.65512091 C58.0932052,10.7573969 58.3108592,11.7337956 58.7461671,12.5843172 C59.1814751,13.4348388 59.790226,14.0948435 60.57242,14.5643314 C61.3546139,15.0338193 62.2626391,15.2685633 63.2964955,15.2685633 Z M63.8678371,13.0435989 C62.9564111,13.0435989 62.2150273,12.734009 61.6436856,12.1148293 C61.072344,11.4956496 60.7798714,10.6961593 60.7662681,9.71635846 C60.7798714,8.73655761 61.072344,7.93706733 61.6436856,7.31788762 C62.2150273,6.69870792 62.9564111,6.38911807 63.8678371,6.38911807 C64.7792632,6.38911807 65.5240478,6.69870792 66.1021912,7.31788762 C66.6803346,7.93706733 66.9694062,8.73655761 66.9694062,9.71635846 C66.9694062,10.6961593 66.6803346,11.4956496 66.1021912,12.1148293 C65.5240478,12.734009 64.7792632,13.0435989 63.8678371,13.0435989 Z M75.9476325,15.2685633 C76.7230248,15.2685633 77.4099952,15.1460882 78.0085436,14.901138 C78.607092,14.6561878 79.0968134,14.2955666 79.4777079,13.8192745 L79.4777079,13.8192745 L79.4777079,15.1460882 L82.0895555,15.1460882 L82.0691505,8.00170697 C82.0555471,6.7769559 81.6576484,5.82437174 80.8754545,5.14395448 C80.0932605,4.46353722 78.9947881,4.12332859 77.5800373,4.12332859 C76.6414046,4.12332859 75.8218013,4.22879327 75.1212276,4.43972262 C74.4206539,4.65065197 73.6418608,4.99426268 72.7848483,5.47055477 L72.7848483,5.47055477 L73.7438861,7.30768137 C74.8729661,6.62726411 75.9544342,6.28705548 76.9882906,6.28705548 C77.7908896,6.28705548 78.4030414,6.46396396 78.824746,6.81778094 C79.2464505,7.17159791 79.4573028,7.66830251 79.4573028,8.30789474 L79.4573028,8.30789474 L79.4573028,8.59366999 L76.2741135,8.59366999 C74.9545863,8.60727833 73.9343333,8.90325984 73.2133545,9.48161451 C72.4923758,10.0599692 72.1318864,10.8594595 72.1318864,11.8800853 C72.1318864,12.5196776 72.2883252,13.0980322 72.6012027,13.6151494 C72.9140803,14.1322665 73.3595908,14.5371147 73.9377342,14.8296942 C74.5158775,15.1222736 75.1858436,15.2685633 75.9476325,15.2685633 Z M76.5801894,13.2273115 C75.981641,13.2273115 75.5089238,13.0912281 75.1620377,12.8190612 C74.8151517,12.5468943 74.6417087,12.1794689 74.6417087,11.7167852 C74.6417087,11.2404931 74.80835,10.8968824 75.1416327,10.6859531 C75.4749153,10.4750237 75.9952443,10.369559 76.7026198,10.369559 L76.7026198,10.369559 L79.4573028,10.369559 L79.4573028,11.3493599 C79.389286,11.8800853 79.0832101,12.3257587 78.5390751,12.6863798 C77.9949402,13.0470009 77.3419783,13.2273115 76.5801894,13.2273115 Z M87.721352,15.1460882 L87.721352,9.87965861 C87.721352,8.87264106 88.0580355,8.07315078 88.7314025,7.48118777 C89.4047695,6.88922475 90.3059929,6.62726411 91.4350729,6.69530583 L91.4350729,6.69530583 L91.4350729,4.12332859 C90.5916638,4.13693694 89.8536808,4.33085586 89.2211239,4.70508535 C88.5885671,5.07931484 88.0886431,5.62024656 87.721352,6.32788051 L87.721352,6.32788051 L87.721352,4.22539118 L85.0686943,4.22539118 L85.0686943,15.1460882 L87.721352,15.1460882 Z M96.5567429,15.2481508 C97.7946499,15.2481508 98.8217046,14.9623755 99.637907,14.390825 C100.454109,13.8192745 100.862211,13.0027738 100.862211,11.9413229 C100.862211,11.2200806 100.681966,10.6383239 100.321476,10.1960526 C99.9609871,9.75378141 99.5358817,9.42037696 99.0461602,9.19583926 C98.5564388,8.97130156 97.9306836,8.74336178 97.1688947,8.51201991 C96.4479159,8.30789474 95.9207852,8.11397582 95.5875026,7.93026316 C95.2542199,7.7465505 95.0875786,7.48458985 95.0875786,7.14438122 C95.0875786,6.81778094 95.2202115,6.57623281 95.4854773,6.41973684 C95.7507431,6.26324087 96.1078316,6.18499289 96.5567429,6.18499289 C97.032861,6.18499289 97.55319,6.27344713 98.11773,6.45035562 C98.68227,6.62726411 99.2298058,6.87221432 99.7603373,7.18520626 L99.7603373,7.18520626 L100.719375,5.26642959 C100.17524,4.89900427 99.5528859,4.61322902 98.8523122,4.40910384 C98.1517384,4.20497866 97.4409622,4.10291607 96.7199834,4.10291607 C95.5364899,4.10291607 94.5536462,4.38528924 93.7714523,4.95003556 C92.9892583,5.51478189 92.5981613,6.33468468 92.5981613,7.40974395 C92.5981613,8.10376956 92.7682035,8.6651138 93.1082878,9.09377667 C93.4483722,9.52243954 93.8496717,9.84223566 94.3121864,10.053165 C94.774701,10.2640944 95.3732495,10.4784258 96.1078316,10.6961593 C96.8696205,10.9275012 97.4205571,11.1384305 97.7606415,11.3289474 C98.1007258,11.5194642 98.270768,11.8052394 98.270768,12.1862731 C98.270768,12.5264817 98.1245317,12.7816382 97.8320592,12.9517425 C97.5395866,13.1218468 97.1484897,13.206899 96.6587682,13.206899 C96.0466164,13.206899 95.4004562,13.087826 94.7202876,12.8496799 C94.0401189,12.6115339 93.4551738,12.2815315 92.9654524,11.8596728 L92.9654524,11.8596728 L92.0472247,13.7172119 C92.604963,14.2071124 93.2851317,14.584744 94.0877307,14.8501067 C94.8903297,15.1154694 95.7133338,15.2481508 96.5567429,15.2481508 Z" id="Calendars" fill="#05408E"></path>
                            <path d="M109.636386,15.2889758 C110.615829,15.2889758 111.581669,15.0882527 112.533905,14.6868065 C113.486141,14.2853604 114.322748,13.7308203 115.043727,13.0231863 L115.043727,13.0231863 L113.860234,11.7371977 C113.302495,12.2679232 112.663137,12.6863798 111.942158,12.9925676 C111.221179,13.2987553 110.486597,13.4518492 109.738412,13.4518492 C108.731762,13.4518492 107.806733,13.206899 106.963323,12.7169986 C106.119914,12.2270982 105.453349,11.5602892 104.963628,10.7165718 C104.473906,9.87285443 104.229045,8.95429113 104.229045,7.96088193 C104.229045,6.95386439 104.473906,6.031899 104.963628,5.19498578 C105.453349,4.35807255 106.119914,3.69466572 106.963323,3.20476529 C107.806733,2.71486486 108.731762,2.46991465 109.738412,2.46991465 C110.5002,2.46991465 111.241584,2.62981271 111.962563,2.94960882 C112.683542,3.26940493 113.316099,3.71507824 113.860234,4.28662873 L113.860234,4.28662873 L115.023322,2.87816501 C114.343153,2.19774775 113.537154,1.67042437 112.605322,1.29619488 C111.673491,0.921965386 110.711053,0.73485064 109.718006,0.73485064 C108.344066,0.73485064 107.085754,1.05464675 105.94307,1.69423898 C104.800387,2.3338312 103.899164,3.20816738 103.2394,4.31724751 C102.579636,5.42632764 102.249755,6.64767662 102.249755,7.98129445 C102.249755,9.32852063 102.576236,10.5600759 103.229197,11.6759602 C103.882159,12.7918445 104.77318,13.6729848 105.90226,14.3193812 C107.03134,14.9657776 108.276049,15.2889758 109.636386,15.2889758 Z M119.594055,15.1460882 L119.594055,-3.77103122e-14 L117.696385,-3.77103122e-14 L117.696385,15.1460882 L119.594055,15.1460882 Z M127.898915,15.2073257 C128.973581,15.2073257 129.929218,14.9759839 130.765826,14.5133001 C131.602433,14.0506164 132.255395,13.40422 132.724711,12.574111 C133.194028,11.7440019 133.428686,10.7982219 133.428686,9.73677098 C133.428686,8.67532006 133.194028,7.73294215 132.724711,6.90963727 C132.255395,6.08633239 131.602433,5.44333807 130.765826,4.98065434 C129.929218,4.5179706 128.973581,4.28662873 127.898915,4.28662873 C126.810645,4.28662873 125.848206,4.5179706 125.011599,4.98065434 C124.174991,5.44333807 123.522029,6.08633239 123.052713,6.90963727 C122.583397,7.73294215 122.348739,8.67532006 122.348739,9.73677098 C122.348739,10.8118303 122.583397,11.7610123 123.052713,12.5843172 C123.522029,13.4076221 124.174991,14.0506164 125.011599,14.5133001 C125.848206,14.9759839 126.810645,15.2073257 127.898915,15.2073257 Z M127.898915,13.5947368 C127.191539,13.5947368 126.562383,13.4348388 126.011447,13.1150427 C125.46051,12.7952466 125.032004,12.3427691 124.725928,11.7576102 C124.419852,11.1724514 124.266814,10.5056425 124.266814,9.7571835 C124.266814,9.02233286 124.419852,8.3657302 124.725928,7.78737553 C125.032004,7.20902086 125.46051,6.75654339 126.011447,6.4299431 C126.562383,6.10334282 127.191539,5.94004267 127.898915,5.94004267 C128.592687,5.94004267 129.215041,6.10334282 129.765978,6.4299431 C130.316914,6.75654339 130.745421,7.20902086 131.051497,7.78737553 C131.357572,8.3657302 131.51061,9.02233286 131.51061,9.7571835 C131.51061,10.5056425 131.357572,11.1724514 131.051497,11.7576102 C130.745421,12.3427691 130.316914,12.7952466 129.765978,13.1150427 C129.215041,13.4348388 128.592687,13.5947368 127.898915,13.5947368 Z M139.713444,15.2073257 C141.67233,15.1801091 143.005461,14.3976292 143.712836,12.8598862 L143.712836,12.8598862 L143.712836,15.1460882 L145.630912,15.1460882 L145.630912,4.34786629 L143.712836,4.34786629 L143.712836,9.65512091 C143.712836,10.7437885 143.416963,11.6385372 142.825216,12.339367 C142.233469,13.0401968 141.434271,13.3974158 140.427621,13.4110242 C139.557006,13.4110242 138.873436,13.1558677 138.376913,12.6455548 C137.88039,12.1352418 137.632128,11.4242058 137.632128,10.5124467 L137.632128,10.5124467 L137.632128,4.34786629 L135.714053,4.34786629 L135.714053,11.0227596 C135.714053,12.3291607 136.06774,13.3531887 136.775116,14.0948435 C137.482491,14.8364983 138.461934,15.2073257 139.713444,15.2073257 Z M153.44605,15.2481508 C154.357476,15.2481508 155.156674,15.0542319 155.843644,14.666394 C156.530615,14.2785562 157.07815,13.7240161 157.486251,13.0027738 L157.486251,13.0027738 L157.486251,15.1460882 L159.383922,15.1460882 L159.383922,-3.77103122e-14 L157.486251,-3.77103122e-14 L157.486251,6.49118065 C157.091754,5.76993836 156.547619,5.21880038 155.853847,4.83776671 C155.160075,4.45673305 154.350674,4.26621622 153.425645,4.26621622 C152.418995,4.26621622 151.524573,4.49755808 150.742379,4.96024182 C149.960185,5.42292556 149.351434,6.06591987 148.916126,6.88922475 C148.480818,7.71252963 148.263164,8.65490754 148.263164,9.71635846 C148.263164,10.7914177 148.480818,11.747404 148.916126,12.5843172 C149.351434,13.4212304 149.960185,14.074431 150.742379,14.5439189 C151.524573,15.0134068 152.425797,15.2481508 153.44605,15.2481508 Z M153.833746,13.6151494 C153.12637,13.6151494 152.497214,13.4518492 151.946278,13.1252489 C151.395341,12.7986486 150.963434,12.3427691 150.650556,11.7576102 C150.337679,11.1724514 150.18124,10.5124467 150.18124,9.77759602 C150.18124,9.04274538 150.337679,8.38274064 150.650556,7.79758179 C150.963434,7.21242295 151.395341,6.7531413 151.946278,6.41973684 C152.497214,6.08633239 153.12637,5.91963016 153.833746,5.91963016 C154.541121,5.91963016 155.170277,6.0829303 155.721214,6.40953058 C156.27215,6.73613087 156.704058,7.19201043 157.016935,7.77716927 C157.329813,8.36232812 157.486251,9.02913703 157.486251,9.77759602 C157.486251,10.5124467 157.329813,11.1724514 157.016935,11.7576102 C156.704058,12.3427691 156.27215,12.7986486 155.721214,13.1252489 C155.170277,13.4518492 154.541121,13.6151494 153.833746,13.6151494 Z" id="Cloud" fill="#2AB7FF"></path>
                        </g>
                    </g>
                </g>
            </g>
        </g>
    </g>
</svg>