<svg width="643" height="480" viewBox="0 0 643 480" fill="none" xmlns="http://www.w3.org/2000/svg">
<path d="M0 422.085H643V421.765H0V422.085Z" fill="#ECECEC"/>
<path d="M535.978 442.785H578.573V442.465H535.978V442.785Z" fill="#ECECEC"/>
<path d="M428.728 442.785H519.786V442.465H428.728V442.785Z" fill="#ECECEC"/>
<path d="M353.831 430.843H378.514V430.522H353.831V430.843Z" fill="#ECECEC"/>
<path d="M67.4622 433.005H111.559V432.683H67.4622V433.005Z" fill="#ECECEC"/>
<path d="M123.009 433.005H203.188V432.683H123.009V433.005Z" fill="#ECECEC"/>
<path d="M242.196 438.434H289.539V438.113H242.196V438.434Z" fill="#ECECEC"/>
<path d="M334.633 0.990662C330.763 0.990662 327.615 4.13882 327.615 8.00967V357.07C327.615 360.941 330.763 364.089 334.633 364.089H582.958C586.828 364.089 589.977 360.941 589.977 357.07V8.00967C589.977 4.13882 586.828 0.990662 582.958 0.990662H334.633ZM582.958 364.41H334.633C330.587 364.41 327.293 361.118 327.293 357.07V8.00967C327.293 3.96262 330.587 0.669159 334.633 0.669159H582.958C587.005 0.669159 590.298 3.96262 590.298 8.00967V357.07C590.298 361.118 587.005 364.41 582.958 364.41Z" fill="#ECECEC"/>
<path d="M433.381 414.546H457.181V241.494H433.381V414.546Z" fill="#E7E7E7"/>
<path d="M190.388 414.546H452.61V421.764H190.388V414.546Z" fill="#F0F0F0"/>
<path d="M433.381 414.546H185.821V241.494H433.381V414.546Z" fill="#F7F7F7"/>
<path d="M433.381 235.194H457.181V241.492H433.381V235.194Z" fill="#E7E7E7"/>
<path d="M433.381 235.194H185.821V241.492H433.381V235.194Z" fill="#F0F0F0"/>
<path d="M195.977 292.08H423.224V256.316H195.977V292.08ZM424.824 293.68H194.378V254.716H424.824V293.68Z" fill="#E1E1E1"/>
<path d="M195.977 399.723H423.224V304.833H195.977V399.723ZM424.824 401.323H194.378V303.233H424.824V401.323Z" fill="#E1E1E1"/>
<path d="M225.426 260.64H393.776V255.516H225.426V260.64Z" fill="#E1E1E1"/>
<path d="M225.426 309.157H393.776V304.033H225.426V309.157Z" fill="#E1E1E1"/>
<path d="M541.28 417.172C540.232 417.172 539.374 416.314 539.374 415.266V118.089C539.374 117.042 540.232 116.185 541.28 116.185C542.328 116.185 543.184 117.042 543.184 118.089V415.266C543.184 416.314 542.328 417.172 541.28 417.172Z" fill="#CDE5FF"/>
<path d="M550.333 421.764H532.227V417.804C532.227 414.918 534.566 412.577 537.452 412.577H545.108C547.994 412.577 550.333 414.918 550.333 417.804V421.764Z" fill="#A6D1FE"/>
<path d="M504.29 157.559C504.29 157.559 505.23 121.195 541.282 121.195C577.332 121.195 578.272 157.559 578.272 157.559H504.29Z" fill="#A6D1FE"/>
<path d="M101.718 417.172C100.67 417.172 99.8132 416.314 99.8132 415.266V118.089C99.8132 117.042 100.67 116.185 101.718 116.185C102.766 116.185 103.624 117.042 103.624 118.089V415.266C103.624 416.314 102.766 417.172 101.718 417.172Z" fill="#F5F5F5"/>
<path d="M110.771 421.764H92.6643V417.804C92.6643 414.918 95.0035 412.577 97.8893 412.577H105.546C108.432 412.577 110.771 414.918 110.771 417.804V421.764Z" fill="#F0F0F0"/>
<path d="M64.7283 157.559C64.7283 157.559 65.6683 121.195 101.719 121.195C137.769 121.195 138.711 157.559 138.711 157.559H64.7283Z" fill="#E1E1E1"/>
<path d="M367.855 232.467H276.368V235.194H367.855V232.467Z" fill="#E1E1E1"/>
<path d="M367.856 232.468H276.368L285.175 180.091H376.661L367.856 232.468Z" fill="#E1E1E1"/>
<path d="M366.157 232.468H274.67L283.476 180.091H374.964L366.157 232.468Z" fill="#ECECEC"/>
<path d="M278.145 228.351L285.632 183.817C285.728 183.251 286.218 182.835 286.792 182.835H370.328C371.056 182.835 371.609 183.489 371.488 184.206L364.001 228.742C363.906 229.308 363.416 229.722 362.841 229.722H279.305C278.577 229.722 278.024 229.068 278.145 228.351Z" fill="#FAFAFA"/>
<path d="M347.157 232.467H255.671V235.194H347.157V232.467Z" fill="#F0F0F0"/>
<path d="M440.953 121.195H198.573V42.8555H440.953V121.195Z" fill="#ECECEC"/>
<path d="M440.953 121.195H444.427V42.8555H440.953V121.195Z" fill="#E1E1E1"/>
<path d="M430.341 110.582H209.186V53.4677H430.341V110.582Z" fill="white"/>
<path d="M319.763 95.3358L306.452 82.0244L319.763 68.713L333.075 82.0244L319.763 95.3358Z" fill="#F5F5F5"/>
<path d="M284.028 95.3358L270.716 82.0244L284.028 68.713L297.339 82.0244L284.028 95.3358Z" fill="#F5F5F5"/>
<path d="M248.293 95.3358L234.981 82.0244L248.293 68.713L261.604 82.0244L248.293 95.3358Z" fill="#F5F5F5"/>
<path d="M355.499 95.3358L342.187 82.0244L355.499 68.713L368.81 82.0244L355.499 95.3358Z" fill="#F5F5F5"/>
<path d="M391.234 95.3358L377.922 82.0244L391.234 68.713L404.545 82.0244L391.234 95.3358Z" fill="#F5F5F5"/>
<path d="M63.0875 209.903C62.0265 243.107 69.6409 284.257 115.677 287.875C138.733 289.687 164.283 282.101 187.243 285.495C211.703 289.112 227.767 297.645 256.823 294.229C369.728 280.963 437.025 185.26 429.279 118.914C422.872 64.0428 367.479 -32.7557 262.609 28.9363C241.95 41.089 225.466 57.0765 205.106 69.2176C185.814 80.7196 155.213 70.7505 117.957 97.5456C84.3013 121.753 63.9337 183.447 63.0875 209.903Z" fill="#007CFF"/>
<g opacity="0.899994">
<g opacity="0.899994">
<path opacity="0.899994" d="M63.0875 209.903C62.0265 243.107 69.6409 284.257 115.677 287.875C138.733 289.687 164.283 282.101 187.243 285.495C211.703 289.112 227.767 297.645 256.823 294.229C369.728 280.963 437.025 185.26 429.279 118.914C422.872 64.0428 367.479 -32.7557 262.609 28.9363C241.95 41.089 225.466 57.0765 205.106 69.2176C185.814 80.7196 155.213 70.7505 117.957 97.5456C84.3013 121.753 63.9337 183.447 63.0875 209.903Z" fill="white"/>
</g>
</g>
<path d="M570.842 465.282C570.842 473.325 459.208 479.844 321.5 479.844C183.793 479.844 72.1589 473.325 72.1589 465.282C72.1589 457.24 183.793 450.721 321.5 450.721C459.208 450.721 570.842 457.24 570.842 465.282Z" fill="#CDE5FF"/>
<path d="M466.74 88.2384C467.165 81.8367 462.319 76.6464 455.917 76.6464H277.889C271.487 76.6464 265.953 81.8367 265.529 88.2384L261.443 149.856L235.811 339.475C234.945 345.877 239.435 351.066 245.835 351.066H423.864C430.265 351.066 436.157 345.877 437.022 339.475L462.655 149.856L466.74 88.2384Z" fill="#007CFF"/>
<g opacity="0.199997">
<g opacity="0.199997">
<path opacity="0.199997" d="M466.74 88.2384C467.165 81.8367 462.319 76.6464 455.917 76.6464H277.889C271.487 76.6464 265.953 81.8367 265.529 88.2384L261.443 149.856L235.811 339.475C234.945 345.877 239.435 351.066 245.835 351.066H423.864C430.265 351.066 436.157 345.877 437.022 339.475L462.655 149.856L466.74 88.2384Z" fill="black"/>
</g>
</g>
<path d="M417.527 351.067H239.498C233.096 351.067 228.608 345.877 229.474 339.475L255.106 149.856H456.318L430.684 339.475C429.82 345.877 423.929 351.067 417.527 351.067Z" fill="#007CFF"/>
<path d="M304.354 73.4315H277.84V72.1455H304.354V73.4315Z" fill="#007CFF"/>
<path d="M265.297 74.7993L264.764 73.6291C266.932 72.6453 269.216 72.1463 271.552 72.1463V73.4323C269.4 73.4323 267.296 73.8914 265.297 74.7993Z" fill="#007CFF"/>
<path d="M449.58 76.6468H271.551C265.15 76.6468 259.616 81.8371 259.192 88.2388L255.106 149.856H456.317L460.403 88.2388C460.827 81.8371 455.982 76.6468 449.58 76.6468Z" fill="#007CFF"/>
<g opacity="0.899994">
<g opacity="0.899994">
<path d="M265.047 134.81L267.905 91.693C268.128 88.3224 271.042 85.5896 274.413 85.5896H445.533C448.904 85.5896 451.455 88.3224 451.231 91.693L448.372 134.81C448.149 138.181 445.235 140.913 441.865 140.913H270.745C267.374 140.913 264.823 138.181 265.047 134.81Z" fill="white"/>
</g>
</g>
<g opacity="0.8">
<path d="M433.206 92.659L431.262 94.4697C431.166 94.5597 431.037 94.6111 430.905 94.6111L420.59 94.6124C420.443 94.6124 420.303 94.552 420.204 94.444L418.531 92.6346C418.22 92.2976 418.459 91.7511 418.917 91.7511L432.847 91.7485C433.324 91.7485 433.554 92.3336 433.206 92.659Z" fill="#007CFF"/>
<path d="M430.476 126.075L416.546 126.078C416.069 126.078 415.839 125.494 416.187 125.168L418.124 123.358C418.22 123.266 418.349 123.216 418.483 123.216L428.798 123.214C428.944 123.214 429.083 123.275 429.184 123.382L430.862 125.191C431.173 125.528 430.935 126.075 430.476 126.075Z" fill="#007CFF"/>
<path d="M431.832 109.273L430.832 110.202C430.735 110.292 430.606 110.343 430.474 110.343L418.404 110.345C418.1 110.345 417.858 110.086 417.88 109.781L418.012 107.972C418.033 107.697 418.26 107.483 418.537 107.483L430.659 107.481C430.805 107.481 430.946 107.542 431.046 107.65L431.86 108.531C432.057 108.744 432.044 109.077 431.832 109.273Z" fill="#007CFF"/>
<path d="M433.476 110.255L432.457 124.219C432.425 124.678 431.859 124.876 431.547 124.538L429.88 122.728C429.781 122.622 429.732 122.479 429.742 122.334L430.497 111.984C430.506 111.851 430.565 111.728 430.662 111.638L432.592 109.832C432.942 109.506 433.51 109.778 433.476 110.255Z" fill="#007CFF"/>
<path d="M434.679 93.7376L433.662 107.701C433.629 108.16 433.063 108.358 432.75 108.019L431.084 106.211C430.986 106.104 430.936 105.96 430.946 105.816L431.701 95.4647C431.71 95.3336 431.769 95.2101 431.866 95.1188L433.796 93.3145C434.146 92.9879 434.714 93.2605 434.679 93.7376Z" fill="#007CFF"/>
</g>
<g opacity="0.8">
<g opacity="0.8">
<path d="M410.902 131.842C410.968 130.859 411.827 130.055 412.81 130.055H434.648C435.74 130.055 436.573 130.947 436.501 132.035V132.037C436.436 133.02 435.577 133.822 434.593 133.822H412.755C411.663 133.822 410.83 132.931 410.902 131.842Z" fill="#007CFF"/>
</g>
</g>
<g opacity="0.8">
<g opacity="0.8">
<path d="M383.562 131.842C383.626 130.859 384.487 130.055 385.471 130.055H407.308C408.4 130.055 409.233 130.947 409.161 132.035V132.037C409.096 133.02 408.237 133.822 407.253 133.822H385.415C384.324 133.822 383.49 132.931 383.562 131.842Z" fill="#007CFF"/>
</g>
</g>
<g opacity="0.8">
<g opacity="0.8">
<path d="M356.222 131.842C356.286 130.859 357.145 130.055 358.131 130.055H379.968C381.059 130.055 381.893 130.947 381.821 132.035V132.037C381.756 133.02 380.897 133.822 379.913 133.822H358.075C356.983 133.822 356.15 132.931 356.222 131.842Z" fill="#007CFF"/>
</g>
</g>
<g opacity="0.8">
<path d="M328.882 131.842C328.946 130.859 329.805 130.055 330.79 130.055H352.628C353.719 130.055 354.553 130.947 354.481 132.035V132.037C354.416 133.02 353.557 133.822 352.573 133.822H330.735C329.643 133.822 328.81 132.931 328.882 131.842Z" fill="#007CFF"/>
</g>
<g opacity="0.100006">
<g opacity="0.100006">
<path opacity="0.100006" d="M268.51 237.836L276.555 178.324C277.087 174.385 280.712 171.191 284.651 171.191H344.164C348.103 171.191 350.865 174.385 350.331 178.324L342.287 237.836C341.755 241.775 338.13 244.968 334.191 244.968H274.679C270.738 244.968 267.977 241.775 268.51 237.836Z" fill="#1A2E35"/>
</g>
</g>
<g opacity="0.100006">
<g opacity="0.100006">
<path opacity="0.100006" d="M353.272 237.836L361.317 178.324C361.848 174.385 365.475 171.191 369.414 171.191H428.926C432.865 171.191 435.627 174.385 435.094 178.324L427.05 237.836C426.517 241.775 422.892 244.968 418.952 244.968H359.44C355.501 244.968 352.74 241.775 353.272 237.836Z" fill="#1A2E35"/>
</g>
</g>
<g opacity="0.100006">
<g opacity="0.100006">
<path opacity="0.100006" d="M257.052 322.598L265.097 263.086C265.628 259.147 269.255 255.954 273.194 255.954H332.706C336.645 255.954 339.407 259.147 338.874 263.086L330.83 322.598C330.297 326.537 326.672 329.73 322.732 329.73H263.219C259.28 329.73 256.519 326.537 257.052 322.598Z" fill="#1A2E35"/>
</g>
</g>
<g opacity="0.100006">
<g opacity="0.100006">
<path opacity="0.100006" d="M341.814 322.598L349.859 263.086C350.391 259.147 354.016 255.954 357.955 255.954H417.468C421.407 255.954 424.169 259.147 423.635 263.086L415.591 322.598C415.059 326.537 411.434 329.73 407.495 329.73H347.982C344.042 329.73 341.281 326.537 341.814 322.598Z" fill="#1A2E35"/>
</g>
</g>
<path d="M264.549 237.836L272.593 178.324C273.125 174.385 276.751 171.191 280.691 171.191H340.203C344.142 171.191 346.903 174.385 346.371 178.324L338.326 237.836C337.793 241.775 334.168 244.968 330.229 244.968H270.717C266.778 244.968 264.015 241.775 264.549 237.836Z" fill="#007CFF"/>
<g opacity="0.199997">
<g opacity="0.199997">
<path opacity="0.199997" d="M264.549 237.836L272.593 178.324C273.125 174.385 276.751 171.191 280.691 171.191H340.203C344.142 171.191 346.903 174.385 346.371 178.324L338.326 237.836C337.793 241.775 334.168 244.968 330.229 244.968H270.717C266.778 244.968 264.015 241.775 264.549 237.836Z" fill="white"/>
</g>
</g>
<path d="M349.311 237.836L357.356 178.324C357.889 174.385 361.514 171.191 365.453 171.191H424.965C428.904 171.191 431.666 174.385 431.133 178.324L423.089 237.836C422.556 241.775 418.931 244.968 414.992 244.968H355.479C351.54 244.968 348.779 241.775 349.311 237.836Z" fill="#007CFF"/>
<g opacity="0.199997">
<g opacity="0.199997">
<path opacity="0.199997" d="M349.311 237.836L357.356 178.324C357.889 174.385 361.514 171.191 365.453 171.191H424.965C428.904 171.191 431.666 174.385 431.133 178.324L423.089 237.836C422.556 241.775 418.931 244.968 414.992 244.968H355.479C351.54 244.968 348.779 241.775 349.311 237.836Z" fill="white"/>
</g>
</g>
<path d="M253.091 322.598L261.136 263.086C261.668 259.147 265.294 255.954 269.233 255.954H328.745C332.684 255.954 335.446 259.147 334.913 263.086L326.869 322.598C326.336 326.537 322.711 329.73 318.772 329.73H259.259C255.319 329.73 252.558 326.537 253.091 322.598Z" fill="#007CFF"/>
<g opacity="0.199997">
<g opacity="0.199997">
<path opacity="0.199997" d="M253.091 322.598L261.136 263.086C261.668 259.147 265.294 255.954 269.233 255.954H328.745C332.684 255.954 335.446 259.147 334.913 263.086L326.869 322.598C326.336 326.537 322.711 329.73 318.772 329.73H259.259C255.319 329.73 252.558 326.537 253.091 322.598Z" fill="white"/>
</g>
</g>
<path d="M337.853 322.598L345.897 263.086C346.43 259.147 350.055 255.954 353.995 255.954H413.507C417.446 255.954 420.207 259.147 419.675 263.086L411.631 322.598C411.099 326.537 407.474 329.73 403.533 329.73H344.021C340.082 329.73 337.32 326.537 337.853 322.598Z" fill="#007CFF"/>
<g opacity="0.199997">
<g opacity="0.199997">
<path opacity="0.199997" d="M337.853 322.598L345.897 263.086C346.43 259.147 350.055 255.954 353.995 255.954H413.507C417.446 255.954 420.207 259.147 419.675 263.086L411.631 322.598C411.099 326.537 407.474 329.73 403.533 329.73H344.021C340.082 329.73 337.32 326.537 337.853 322.598Z" fill="white"/>
</g>
</g>
<path d="M302.113 232.84C298.184 232.84 295.405 229.627 295.936 225.698L300.699 190.46C301.23 186.533 304.879 183.319 308.808 183.319C312.735 183.319 315.515 186.533 314.984 190.46L310.221 225.698C309.69 229.627 306.041 232.84 302.113 232.84Z" fill="white"/>
<path d="M280.699 208.08C281.23 204.151 284.879 200.938 288.807 200.938H324.045C327.972 200.938 330.753 204.151 330.222 208.08C329.691 212.009 326.042 215.222 322.113 215.222H286.876C282.948 215.222 280.168 212.009 280.699 208.08Z" fill="white"/>
<path d="M274.127 310.351C271.724 307.573 272.338 303.028 275.492 300.251L303.777 275.333C306.93 272.555 311.475 272.555 313.878 275.333C316.28 278.111 315.666 282.657 312.512 285.435L284.227 310.351C281.074 313.129 276.529 313.129 274.127 310.351Z" fill="white"/>
<path d="M278.86 275.333C282.013 272.556 286.559 272.556 288.96 275.333L310.51 300.25C312.912 303.028 312.297 307.573 309.144 310.35C305.991 313.129 301.445 313.129 299.042 310.35L277.494 285.434C275.092 282.656 275.707 278.11 278.86 275.333Z" fill="white"/>
<path d="M365.461 208.08C365.992 204.151 369.64 200.938 373.569 200.938H408.807C412.735 200.938 415.515 204.151 414.983 208.08C414.452 212.009 410.804 215.222 406.875 215.222H371.637C367.71 215.222 364.93 212.009 365.461 208.08Z" fill="white"/>
<path d="M355.504 281.739C356.035 277.81 359.683 274.596 363.612 274.596H398.85C402.777 274.596 405.557 277.81 405.026 281.739C404.495 285.667 400.847 288.881 396.918 288.881H361.68C357.753 288.881 354.973 285.667 355.504 281.739Z" fill="white"/>
<path d="M352.502 303.945C353.033 300.016 356.681 296.802 360.61 296.802H395.847C399.776 296.802 402.555 300.016 402.024 303.945C401.493 307.875 397.845 311.089 393.916 311.089H358.678C354.751 311.089 351.97 307.875 352.502 303.945Z" fill="white"/>
<path d="M171.496 161.099C169.185 165.386 166.805 170.017 164.632 174.544C162.412 179.091 160.365 183.693 158.563 188.312C158.094 189.466 157.705 190.623 157.269 191.779C157.037 192.322 156.898 192.927 156.828 193.653C156.703 195.098 157.075 197 157.813 198.982C159.323 202.94 162.155 207.242 165.079 210.985L160.7 216.177C159.378 215.34 158.302 214.54 157.172 213.636C156.06 212.747 154.969 211.816 153.944 210.798C151.872 208.78 149.944 206.511 148.303 203.829C146.683 201.146 145.302 197.972 144.938 194.161C144.751 192.269 144.897 190.233 145.402 188.257C145.772 186.918 146.107 185.552 146.512 184.231C148.1 178.924 150.032 173.803 152.213 168.829C153.317 166.346 154.447 163.882 155.691 161.474C156.945 159.04 158.145 156.703 159.627 154.238L171.496 161.099Z" fill="#FF8C7B"/>
<path d="M163.294 209.487L169.761 211.178L164.984 220.475C164.984 220.475 160.201 218.661 159.008 214.445L163.294 209.487Z" fill="#FF8C7B"/>
<path d="M178.621 214.119L172.87 221.409L164.984 220.475L169.76 211.179L178.621 214.119Z" fill="#FF8C7B"/>
<path d="M201.821 112.052C201.966 112.767 202.464 113.27 202.931 113.175C203.398 113.08 203.659 112.424 203.513 111.707C203.368 110.994 202.872 110.491 202.405 110.586C201.937 110.681 201.676 111.337 201.821 112.052Z" fill="#1A2E35"/>
<path d="M202.397 113.283C202.397 113.283 204.861 117.078 207.057 118.703C206.032 120.141 203.771 120.038 203.771 120.038L202.397 113.283Z" fill="#FF5551"/>
<path d="M201.977 105.935C201.806 105.935 201.637 105.951 201.469 105.986C200.468 106.189 199.645 106.985 199.149 108.229C198.645 109.496 198.546 111.066 198.868 112.653C199.529 115.901 201.759 118.209 203.867 117.775C204.867 117.572 205.691 116.774 206.185 115.532C206.689 114.265 206.788 112.694 206.467 111.108C206.144 109.521 205.438 108.114 204.481 107.145C203.698 106.353 202.825 105.935 201.977 105.935ZM203.366 118.146C201.275 118.146 199.192 115.857 198.554 112.716C198.218 111.07 198.324 109.434 198.85 108.109C199.386 106.763 200.293 105.896 201.406 105.67C202.52 105.446 203.692 105.888 204.71 106.918C205.711 107.932 206.448 109.397 206.781 111.044C207.116 112.691 207.011 114.327 206.485 115.65C205.949 116.998 205.042 117.864 203.93 118.09C203.743 118.127 203.555 118.146 203.366 118.146Z" fill="#1A2E35"/>
<path d="M269.594 186.168L277.84 184.421L278.907 195.615C278.907 195.615 271.787 196.975 268.372 191.341L269.594 186.168Z" fill="#FF8C7B"/>
<path d="M285.635 186.931L285.108 195.092L278.908 195.614L277.839 184.42L285.635 186.931Z" fill="#FF8C7B"/>
<path d="M198.396 108.614C198.292 108.614 198.188 108.577 198.106 108.501C197.932 108.34 197.921 108.069 198.081 107.894C199.691 106.154 201.644 106.463 201.727 106.477C201.96 106.517 202.118 106.738 202.078 106.97C202.038 107.203 201.813 107.359 201.586 107.322C201.521 107.311 199.995 107.088 198.711 108.476C198.627 108.568 198.512 108.614 198.396 108.614Z" fill="#1A2E35"/>
<path d="M181.966 125.065C183.264 131.682 184.047 140.85 179.417 145.266C179.417 145.266 181.225 151.979 193.522 151.979C207.043 151.979 200.025 146.088 200.025 146.088C194.407 144.343 194.454 137.941 195.74 132.8L181.966 125.065Z" fill="#FF8C7B"/>
<path d="M195.852 143.655C198.888 141.477 203.385 138.905 204.318 141.583C204.881 143.2 205.112 151.05 201.989 150.464C197.371 149.6 195.852 143.655 195.852 143.655Z" fill="#1A2E35"/>
<path d="M176.885 149.692C175.68 147.987 175.73 142.598 177.015 141.649C179.089 140.114 187.966 139.761 199.926 142.512C198.637 147.729 201.396 150.466 201.396 150.466L176.885 149.692Z" fill="#007CFF"/>
<path d="M138.164 453.548C138.257 453.568 138.342 453.594 138.416 453.63C138.586 453.712 138.693 453.832 138.741 453.996C138.856 454.381 138.713 454.503 138.667 454.542C138.179 454.957 136.374 454.575 135.101 454.066C135.965 453.762 137.36 453.373 138.164 453.548ZM136.692 454.993C137.599 455.189 138.507 455.24 138.943 454.868C139.127 454.713 139.312 454.414 139.152 453.874C139.067 453.59 138.882 453.378 138.6 453.244C137.378 452.662 134.572 453.805 134.453 453.854C134.375 453.886 134.323 453.96 134.32 454.045C134.318 454.13 134.365 454.209 134.441 454.245C134.871 454.452 135.781 454.796 136.692 454.993Z" fill="#007CFF"/>
<path d="M137.049 451.063C137.08 451.07 137.111 451.079 137.143 451.09C137.408 451.182 137.404 451.312 137.403 451.367C137.388 451.974 135.945 453.193 134.885 453.687C135.149 452.964 135.753 451.538 136.529 451.143C136.706 451.052 136.877 451.026 137.049 451.063ZM134.489 454.261C134.524 454.268 134.56 454.267 134.595 454.257C135.617 453.958 137.806 452.405 137.831 451.379C137.837 451.193 137.772 450.855 137.284 450.685C136.967 450.575 136.648 450.602 136.333 450.761C135.124 451.379 134.362 453.884 134.33 453.989C134.308 454.065 134.327 454.146 134.382 454.203C134.413 454.232 134.449 454.252 134.489 454.261Z" fill="#007CFF"/>
<path d="M204.91 454.756C205.062 454.756 205.2 454.773 205.324 454.805C205.522 454.859 205.66 454.956 205.743 455.104C205.896 455.372 205.84 455.503 205.786 455.579C205.365 456.164 203.079 456.177 201.396 455.939C202.235 455.508 203.853 454.756 204.91 454.756ZM203.476 456.51C204.637 456.51 205.757 456.35 206.134 455.83C206.265 455.646 206.368 455.336 206.115 454.892C205.975 454.644 205.744 454.475 205.437 454.392C203.931 453.982 200.77 455.783 200.636 455.86C200.559 455.905 200.517 455.993 200.531 456.08C200.545 456.169 200.613 456.239 200.701 456.257C201.278 456.372 202.393 456.51 203.476 456.51Z" fill="#007CFF"/>
<path d="M202.95 452.593C202.992 452.593 203.035 452.596 203.079 452.601C203.464 452.64 203.489 452.791 203.496 452.84C203.595 453.455 202.126 454.992 201.012 455.662C201.128 454.95 201.45 453.492 202.207 452.872C202.434 452.685 202.679 452.593 202.95 452.593ZM200.743 456.261C200.773 456.261 200.802 456.254 200.831 456.242C201.922 455.752 204.085 453.796 203.92 452.773C203.881 452.533 203.71 452.234 203.122 452.174C202.682 452.13 202.285 452.252 201.934 452.542C200.783 453.486 200.54 455.923 200.53 456.027C200.522 456.103 200.555 456.176 200.618 456.22C200.654 456.247 200.699 456.261 200.743 456.261Z" fill="#007CFF"/>
<path d="M190.797 456.047H199.842L200.743 435.099H191.698L190.797 456.047Z" fill="#FF8C7B"/>
<path d="M124.406 451.859L133.247 453.772L142.123 434.261L133.282 432.347L124.406 451.859Z" fill="#FF8C7B"/>
<path d="M134.097 452.885L124.164 450.735C123.804 450.657 123.436 450.84 123.28 451.176L119.834 458.655C119.476 459.432 119.95 460.342 120.787 460.508C124.268 461.2 125.996 461.361 130.364 462.306C133.051 462.887 139.117 464.366 142.829 465.17C146.457 465.954 147.817 462.408 146.371 461.748C139.881 458.782 137.17 456.172 135.414 453.74C135.097 453.3 134.625 453 134.097 452.885Z" fill="#1A2E35"/>
<path d="M199.782 455H189.904C189.534 455 189.214 455.255 189.134 455.617L187.348 463.657C187.163 464.49 187.795 465.28 188.648 465.266C192.211 465.206 197.361 464.996 201.84 464.996C207.076 464.996 211.599 465.282 217.74 465.282C221.454 465.282 222.484 461.527 220.93 461.188C213.854 459.639 208.077 459.473 201.961 455.704C201.297 455.294 200.563 455 199.782 455Z" fill="#1A2E35"/>
<path d="M163.221 147.311C154.744 149.254 147.753 170.897 147.753 170.897L164.777 183.874C164.777 183.874 171.026 177.982 173.807 167.156C176.721 155.813 171.89 145.324 163.221 147.311Z" fill="#007CFF"/>
<g opacity="0.399994">
<g opacity="0.399994">
<path opacity="0.399994" d="M163.221 147.311C154.744 149.254 147.753 170.897 147.753 170.897L164.777 183.874C164.777 183.874 171.026 177.982 173.807 167.156C176.721 155.813 171.89 145.324 163.221 147.311Z" fill="white"/>
</g>
</g>
<path d="M214.057 157.636L228.341 170.777C230.718 172.967 233.104 175.133 235.493 177.265C237.86 179.399 240.282 181.54 242.576 183.396L240.588 182.329C241.694 182.732 242.852 183.132 244.069 183.457C245.291 183.772 246.557 184.053 247.85 184.311C250.449 184.779 253.161 185.124 255.927 185.345C258.695 185.582 261.517 185.73 264.368 185.809C267.199 185.911 270.154 185.951 272.937 185.971L274.287 192.626C271.257 193.753 268.341 194.568 265.285 195.251C262.248 195.908 259.157 196.379 256.009 196.671C252.859 196.932 249.65 197.018 246.371 196.802C243.089 196.605 239.732 196.081 236.308 195.075L235.333 194.79L234.318 194.008C231.497 191.833 228.991 189.709 226.465 187.546C223.965 185.376 221.498 183.195 219.055 181.004C214.202 176.575 209.38 172.178 204.65 167.61L214.057 157.636Z" fill="#FF8C7B"/>
<g opacity="0.199997">
<g opacity="0.199997">
<path opacity="0.199997" d="M170.487 163.227C165.881 167.783 164.379 176.082 164.023 183.296L164.774 183.876C164.774 183.876 171.028 177.977 173.811 167.154C173.983 166.478 174.131 165.8 174.255 165.135L170.487 163.227Z" fill="black"/>
</g>
</g>
<path d="M216.794 156.381C218.642 166.153 219.799 186.221 214.432 225.96H166.051C165.718 218.534 170.385 182.305 163.22 147.312C163.22 147.312 171.514 145.646 179.416 145.266C185.598 144.967 194.549 144.771 199.983 145.267C202.251 145.474 204.478 145.801 206.462 146.152C211.694 147.078 215.806 151.161 216.794 156.381Z" fill="#007CFF"/>
<g opacity="0.399994">
<g opacity="0.399994">
<path opacity="0.399994" d="M216.794 156.381C218.642 166.153 219.799 186.221 214.432 225.96H166.051C165.718 218.534 170.385 182.305 163.22 147.312C163.22 147.312 171.514 145.646 179.416 145.266C185.598 144.967 194.549 144.771 199.983 145.267C202.251 145.474 204.478 145.801 206.462 146.152C211.694 147.078 215.806 151.161 216.794 156.381Z" fill="white"/>
</g>
</g>
<g opacity="0.199997">
<g opacity="0.199997">
<path opacity="0.199997" d="M209.39 170.824L218.132 168.731C218.404 174.025 218.428 180.587 218.035 188.702C214.007 184.121 208.873 176.98 209.39 170.824Z" fill="black"/>
</g>
</g>
<g opacity="0.199997">
<g opacity="0.199997">
<path opacity="0.199997" d="M200.741 435.105L200.278 445.903H191.23L191.691 435.105H200.741Z" fill="black"/>
</g>
</g>
<g opacity="0.199997">
<g opacity="0.199997">
<path opacity="0.199997" d="M133.278 432.352L142.122 434.267L137.543 444.324L128.698 442.408L133.278 432.352Z" fill="black"/>
</g>
</g>
<path d="M177.666 115.384C179.99 124.055 180.91 129.248 186.261 132.853C194.31 138.277 204.33 132.053 204.644 122.862C204.927 114.589 201.079 101.798 191.774 100.052C182.606 98.3301 175.343 106.712 177.666 115.384Z" fill="#FF8C7B"/>
<path d="M197.337 116.041C201.396 115.47 200.234 110.77 198.71 108.477C198.71 108.477 207.775 97.6089 197.337 93.2146C186.899 88.8203 189.471 95.6799 189.471 95.6799C189.471 95.6799 181.329 89.5714 174.255 94.5006C167.18 99.4299 173.289 101.574 173.289 101.574C173.289 101.574 160.406 105.361 165.561 111.88C170.717 118.398 176.015 117.731 176.015 117.731C176.015 117.731 165.358 121.935 173.502 126.651C181.648 131.366 184.633 131.584 184.633 131.584C189.098 132.139 193.314 129.394 194.612 125.086L197.337 116.041Z" fill="#1A2E35"/>
<path d="M193.844 116.072C193.985 118.419 195.075 120.627 196.386 122.073C198.357 124.244 200.415 122.892 200.764 120.247C201.078 117.865 200.433 113.864 198.021 112.666C195.646 111.485 193.684 113.389 193.844 116.072Z" fill="#FF8C7B"/>
<path d="M197.269 225.96C197.269 225.96 187.004 295.086 181.369 320.984C175.198 349.344 142.105 443.172 142.105 443.172L125.914 439.666C125.914 439.666 149.053 363.203 154.233 323.555C158.211 293.1 166.052 225.96 166.052 225.96H197.269Z" fill="#1A2E35"/>
<path d="M145.983 437.767C146.052 437.782 142.965 443.623 142.965 443.623L124.747 439.678L126.283 434.202L145.983 437.767Z" fill="#007CFF"/>
<g opacity="0.300003">
<g opacity="0.300003">
<path opacity="0.300003" d="M190.782 250.59C178.912 252.917 180.169 297.181 181.596 319.949C185.02 303.856 190.031 272.889 193.453 250.91C192.666 250.516 191.779 250.394 190.782 250.59Z" fill="black"/>
</g>
</g>
<path d="M214.432 225.96C214.432 225.96 215.678 293.59 214.694 321.176C213.67 349.866 203.649 443.811 203.649 443.811H188.326C188.326 443.811 187.763 351.543 187.081 323.366C186.338 292.646 182.629 225.96 182.629 225.96H214.432Z" fill="#1A2E35"/>
<path d="M206.598 437.707C206.668 437.707 205.734 444.069 205.734 444.069H187.093L186.589 438.392L206.598 437.707Z" fill="#007CFF"/>
<path d="M197.834 159.348C193.496 171.037 218.978 184.805 218.978 184.805L230.009 170.623C230.009 170.623 222.65 155.974 213.618 149.371C202.462 141.214 201.135 150.45 197.834 159.348Z" fill="#007CFF"/>
<g opacity="0.399994">
<g opacity="0.399994">
<path opacity="0.399994" d="M197.834 159.348C193.496 171.037 218.978 184.805 218.978 184.805L230.009 170.623C230.009 170.623 222.65 155.974 213.618 149.371C202.462 141.214 201.135 150.45 197.834 159.348Z" fill="white"/>
</g>
</g>
<path d="M274.204 187.325C274.204 188.637 272.788 189.7 271.043 189.7C269.296 189.7 267.881 188.637 267.881 187.325C267.881 186.013 269.296 184.95 271.043 184.95C272.788 184.95 274.204 186.013 274.204 187.325Z" fill="#1A2E35"/>
<path d="M269.81 194.88C269.626 194.88 269.446 194.802 269.318 194.651C269.09 194.381 269.125 193.977 269.392 193.749C269.473 193.677 271.119 192.175 270.412 188.686C270.341 188.337 270.566 187.998 270.914 187.927C271.266 187.863 271.602 188.081 271.672 188.43C272.542 192.718 270.319 194.649 270.224 194.729C270.105 194.83 269.957 194.88 269.81 194.88Z" fill="#1A2E35"/>
<g opacity="0.399994">
<g opacity="0.399994">
<path opacity="0.399994" d="M273.612 187.154C273.612 188.126 272.461 188.915 271.042 188.915C269.623 188.915 268.472 188.126 268.472 187.154C268.472 186.182 269.623 185.394 271.042 185.394C272.461 185.394 273.612 186.182 273.612 187.154Z" fill="white"/>
</g>
</g>
<path d="M201.827 145.37C195.905 149.598 185.656 165.948 183.764 175.601C183.708 175.888 183.331 175.956 183.177 175.709C174.608 162.048 173.62 148.062 173.515 145.788C173.507 145.607 173.355 145.478 173.175 145.492C172.302 145.564 169.91 145.778 168.872 146.022C168.726 146.057 168.629 146.199 168.634 146.35C169.404 164.589 178.587 178.54 182.162 182.825C182.213 182.885 182.235 182.955 182.23 183.033C181.438 197.506 182.486 223.362 182.617 226.442C182.624 226.613 182.764 226.744 182.935 226.744H186.775C186.957 226.744 187.104 226.599 187.094 226.415C186.924 223.449 185.715 200.983 187.112 182.558C187.113 182.546 187.114 182.534 187.117 182.522C189.281 168.811 202.285 150.284 206.849 146.61C207.056 146.444 206.977 146.117 206.718 146.061C204.788 145.635 202.567 145.371 202.042 145.313C201.961 145.303 201.893 145.322 201.827 145.37Z" fill="#007CFF"/>
</svg>
