<svg width="481" height="325" viewBox="0 0 481 325" fill="none" xmlns="http://www.w3.org/2000/svg">
<path opacity="0.1" d="M59.7889 304.361C59.7889 304.361 -3.78773 267.927 31.2077 178.529C66.203 89.1308 156.717 112.45 190.319 72.2228C223.923 31.9968 291.626 -29.227 366.117 16.6679C440.609 62.5612 422.278 134.835 449.082 163.915C475.884 192.995 531.38 317.397 367.739 323.634C204.1 329.872 59.7889 304.361 59.7889 304.361Z" fill="white"/>
<path d="M368.097 17.9094L368.095 17.9071L368.097 17.9094ZM367.996 17.8449L367.992 17.8426C367.992 17.8426 367.994 17.8426 367.996 17.8449ZM367.896 17.7804C367.893 17.7781 367.889 17.7758 367.886 17.7734C367.889 17.7758 367.893 17.7781 367.896 17.7804ZM367.792 17.7158C367.79 17.7135 367.785 17.7112 367.781 17.7089C367.785 17.7112 367.79 17.7135 367.792 17.7158ZM367.691 17.6513C367.682 17.6467 367.684 17.6467 367.675 17.6421C367.68 17.6444 367.687 17.649 367.691 17.6513ZM367.588 17.5867C367.581 17.5798 367.579 17.5798 367.57 17.5752C367.577 17.5775 367.581 17.5821 367.588 17.5867ZM367.487 17.5222C367.48 17.5176 367.469 17.5107 367.464 17.5084C367.471 17.513 367.478 17.5176 367.487 17.5222ZM367.381 17.4554C367.377 17.4531 367.363 17.4438 367.358 17.4415C367.365 17.4461 367.375 17.4507 367.381 17.4554ZM367.278 17.3908C367.269 17.3839 367.26 17.3793 367.251 17.3747C367.26 17.3793 367.269 17.3862 367.278 17.3908ZM367.173 17.324C367.163 17.3194 367.154 17.3125 367.145 17.3079C367.157 17.3148 367.163 17.3194 367.173 17.324ZM367.069 17.2594C367.06 17.2548 367.046 17.2456 367.04 17.241C367.049 17.2479 367.058 17.2525 367.069 17.2594ZM366.964 17.1949C366.955 17.188 366.941 17.1788 366.932 17.1742C366.943 17.1811 366.952 17.188 366.964 17.1949ZM366.858 17.1281C366.844 17.1212 366.838 17.1142 366.824 17.1073C366.833 17.1142 366.849 17.1212 366.858 17.1281ZM366.753 17.0635C366.739 17.0543 366.732 17.0497 366.718 17.0405C366.732 17.0474 366.741 17.0543 366.753 17.0635ZM366.647 16.9967C366.633 16.9875 366.624 16.9829 366.61 16.9736C366.622 16.9806 366.636 16.9898 366.647 16.9967ZM366.542 16.9322C366.528 16.9229 366.516 16.916 366.502 16.9068C366.514 16.9137 366.53 16.9229 366.542 16.9322ZM366.436 16.8653C366.422 16.8561 366.404 16.8469 366.392 16.8376C366.406 16.8469 366.422 16.8561 366.436 16.8653ZM366.33 16.8008C366.307 16.787 366.294 16.7777 366.271 16.7639C366.291 16.7754 366.31 16.787 366.33 16.8008ZM366.223 16.7339C366.188 16.7109 366.154 16.6901 366.117 16.6694C366.151 16.6901 366.188 16.7132 366.223 16.7339Z" fill="white"/>
<path d="M178.825 82.4395C178.825 82.4395 178.823 82.4395 178.821 82.4395C183.068 79.5841 186.883 76.2969 190.161 72.4114C186.883 76.2987 183.073 79.5841 178.825 82.4395ZM190.165 72.4079C190.177 72.3938 190.189 72.378 190.201 72.364C190.189 72.378 190.177 72.3938 190.165 72.4079ZM190.203 72.3605C190.215 72.3464 190.228 72.3341 190.24 72.3201C190.226 72.3341 190.217 72.3464 190.203 72.3605ZM190.243 72.3148C190.254 72.3008 190.266 72.2868 190.277 72.2745C190.268 72.285 190.252 72.3026 190.243 72.3148ZM190.285 72.2657C190.296 72.2517 190.308 72.2376 190.318 72.2236C190.306 72.2376 190.298 72.2499 190.285 72.2657ZM190.371 72.1622C190.376 72.1569 190.38 72.1499 190.385 72.1446C190.38 72.1516 190.376 72.1551 190.371 72.1622ZM190.43 72.0902C190.439 72.0797 190.448 72.0709 190.455 72.0604C190.446 72.0709 190.439 72.0797 190.43 72.0902ZM190.474 72.0376C190.488 72.0218 190.502 72.006 190.516 71.9884C190.502 72.006 190.488 72.0218 190.474 72.0376ZM190.544 71.9551C190.551 71.9463 190.56 71.9375 190.567 71.927C190.558 71.9375 190.551 71.9463 190.544 71.9551ZM190.593 71.8954C190.607 71.8796 190.621 71.8638 190.635 71.8463C190.621 71.8638 190.607 71.8796 190.593 71.8954ZM190.659 71.8182C190.668 71.8077 190.677 71.7971 190.685 71.7866C190.677 71.7971 190.668 71.8077 190.659 71.8182ZM190.71 71.755C190.722 71.741 190.734 71.7269 190.747 71.7129C190.734 71.7269 190.724 71.741 190.71 71.755ZM190.787 71.6655C190.787 71.6637 190.789 71.662 190.79 71.6602L190.787 71.6655ZM190.848 71.5935C190.848 71.5918 190.85 71.59 190.85 71.59C190.848 71.5918 190.85 71.59 190.848 71.5935Z" fill="white"/>
<path d="M346.054 89.284C351.658 140.472 322.916 213.177 322.916 213.177C322.916 213.177 362.198 176.023 361.342 132.022L348.778 131.804C348.778 131.804 355.25 127.564 360.748 124.107C359.235 112.661 354.782 100.883 346.054 89.284Z" fill="#07085B"/>
<path d="M300.983 148.501L308.922 143.791L302.065 142.786C304.112 134.211 307.825 126.611 312.259 120.026C317.438 121.604 323.362 123.257 323.362 123.257L316.815 113.882C329.912 97.7584 346.055 89.2834 346.055 89.2834C351.659 140.472 322.915 213.177 322.915 213.177C303.283 188.023 298.445 166.359 300.983 148.501Z" fill="#55769F"/>
<path d="M365.869 139.84C357.265 143.554 350.356 148.666 344.801 154.489C345.59 158.059 346.444 162.354 346.444 162.354L341.149 158.654C321.859 182.548 322.121 214.884 322.121 214.884C341.068 207.043 352.396 196.622 359.032 186.048C357.679 184.077 355.632 181.179 355.632 181.179L361.042 182.582C363.887 177.252 365.621 171.952 366.619 166.99C363.799 166.281 360.637 165.388 360.637 165.388L367.381 162.232C368.901 149.4 365.869 139.84 365.869 139.84Z" fill="#FF5B7E"/>
<path d="M359.032 186.048C357.679 184.077 355.632 181.179 355.632 181.179L361.042 182.582C363.887 177.252 365.621 171.952 366.619 166.99C363.8 166.281 360.637 165.388 360.637 165.388L367.381 162.232C368.901 149.4 365.87 139.84 365.87 139.84C341.519 166.236 322.121 214.884 322.121 214.884C341.069 207.043 352.396 196.622 359.032 186.048Z" fill="#E03268"/>
<path d="M410.919 195.612L346.217 309.98L288.345 276.96L353.047 162.592L410.919 195.612Z" fill="#8FD0D6"/>
<path d="M344.078 299.284L400.673 199.242L355.184 173.287L298.589 273.329L344.078 299.284ZM406.071 197.75L345.565 304.703L293.191 274.821L353.7 167.868L406.071 197.75Z" fill="#CBEFEF"/>
<path d="M361.948 214.712C374.988 222.151 380.09 237.845 373.346 249.764C366.603 261.683 350.567 265.316 337.528 257.876C324.491 250.437 319.386 234.743 326.132 222.823C332.876 210.905 348.911 207.272 361.948 214.712Z" fill="#CBEFEF"/>
<path d="M338.763 231.769C338.518 233.62 339.295 235.298 340.62 235.96C342.083 236.688 343.924 236.423 344.964 235.347C342.93 234.173 340.892 232.997 338.763 231.769ZM352.764 236.186C355.145 237.562 357.462 238.898 359.781 240.235C360.553 238.524 359.868 236.392 358.193 235.225C356.557 234.082 354.469 234.417 352.764 236.186ZM344.532 228.519C343.072 228.131 341.724 228.073 340.41 229.007C340.593 229.158 340.716 229.291 340.865 229.379C342.887 230.549 344.918 231.7 346.931 232.889C347.372 233.148 347.619 233.094 347.996 232.748C348.873 231.944 349.792 231.172 350.751 230.468C354.126 228.001 357.642 228.443 360.781 230.779C364.567 233.592 365.625 237.171 364.211 241.709C363.953 242.536 364.145 242.927 364.864 243.257C365.388 243.498 365.872 243.826 366.423 244.145C365.92 245.026 365.445 245.856 364.924 246.765C364.131 246.309 363.347 245.856 362.577 245.412C358.389 250.6 353.315 249.958 350.13 248.438C350.845 246.79 351.565 245.14 352.3 243.448C354.256 243.984 356.089 243.954 358.088 242.836C356.964 242.186 355.993 241.627 355.024 241.067C353.699 240.304 352.362 239.561 351.057 238.764C350.575 238.47 350.255 238.48 349.828 238.871C348.464 240.119 346.963 241.169 345.156 241.672C341.491 242.695 338.406 241.442 335.927 238.861C333.611 236.449 333.275 233.44 334.362 230.284C334.435 230.074 334.511 229.865 334.579 229.652C334.604 229.573 334.609 229.489 334.636 229.333C334.015 228.975 333.375 228.605 332.678 228.203C333.188 227.311 333.663 226.479 334.202 225.542C334.666 225.811 335.162 226.053 335.608 226.365C336.08 226.695 336.362 226.572 336.707 226.149C338.246 224.256 340.173 223.04 342.658 222.876C343.972 222.79 345.238 223.004 346.561 223.541C345.88 225.212 345.222 226.825 344.532 228.519Z" fill="#8FD0D6"/>
<path d="M329.679 271.553C327.948 270.565 325.746 271.174 324.759 272.913C323.776 274.654 324.381 276.866 326.115 277.855C327.846 278.843 330.051 278.234 331.036 276.493C332.019 274.754 331.413 272.541 329.679 271.553Z" fill="#CBEFEF"/>
<path d="M373.349 194.363C371.617 193.375 369.413 193.984 368.43 195.723C367.446 197.464 368.053 199.675 369.783 200.665C371.518 201.653 373.719 201.044 374.705 199.303C375.689 197.564 375.082 195.351 373.349 194.363Z" fill="#CBEFEF"/>
<path d="M400.85 213.406L400.854 213.404C400.854 213.404 400.854 213.404 400.85 213.406Z" fill="#8FCAC4"/>
<path d="M374.662 229.412C374.025 227.72 373.211 226.078 372.228 224.511L390.359 217.475L385.988 225.2L374.662 229.412ZM391.754 223.057L396.192 215.212L400.852 213.405L400.85 213.407C400.762 213.556 396.794 220.146 396.282 221.372L391.754 223.057Z" fill="#50AAB4"/>
<path d="M385.989 225.2L390.362 217.474L396.192 215.212L391.756 223.057L385.989 225.2Z" fill="#72C3C9"/>
<path d="M358.346 235.335C358.024 235.149 357.702 234.966 357.375 234.789C357.657 234.896 357.933 235.042 358.194 235.224C358.248 235.259 358.297 235.298 358.346 235.335ZM363.489 233.566C362.835 232.562 361.933 231.635 360.782 230.779C360.187 230.335 359.577 229.959 358.956 229.659L372.23 224.51C373.213 226.077 374.026 227.72 374.663 229.412L363.489 233.566Z" fill="#72C3C9"/>
<path d="M358.494 235.423C358.445 235.393 358.395 235.365 358.345 235.335C358.295 235.299 358.245 235.26 358.193 235.225C357.93 235.042 357.656 234.897 357.372 234.79C355.677 233.861 353.92 233.035 352.109 232.317L358.955 229.66C359.576 229.96 360.186 230.335 360.782 230.779C361.933 231.636 362.833 232.562 363.486 233.566L358.494 235.423Z" fill="#50AAB4"/>
<path d="M454.159 271.134L331.328 316.801L308.221 254.114L431.052 208.447L454.159 271.134Z" fill="#8FD0D6"/>
<path d="M336.552 307.234L443.996 267.286L425.832 218.013L318.388 257.958L336.552 307.234ZM449.083 269.634L334.212 312.341L313.301 255.612L428.172 212.906L449.083 269.634Z" fill="#CBEFEF"/>
<path d="M404.444 254.08C409.651 268.203 403.496 283.51 390.695 288.269C377.894 293.029 363.295 285.438 358.088 271.316C352.883 257.192 359.039 241.886 371.84 237.127C384.643 232.367 399.24 239.957 404.444 254.08Z" fill="#CBEFEF"/>
<path d="M375.771 252.139C374.395 253.397 373.916 255.184 374.506 256.546C375.157 258.05 376.736 259.036 378.222 258.885C377.419 256.674 376.613 254.457 375.771 252.139ZM383.65 264.571C384.593 267.165 385.506 269.684 386.423 272.208C388.112 271.397 388.955 269.322 388.422 267.348C387.901 265.414 386.091 264.322 383.65 264.571ZM382.267 253.382C381.4 252.143 380.408 251.227 378.804 251.091C378.846 251.325 378.853 251.507 378.912 251.669C379.708 253.871 380.526 256.067 381.302 258.278C381.474 258.761 381.697 258.878 382.208 258.859C383.394 258.812 384.59 258.813 385.777 258.898C389.942 259.191 392.347 261.802 393.253 265.619C394.343 270.219 392.86 273.643 388.869 276.2C388.139 276.665 388.036 277.09 388.375 277.808C388.623 278.329 388.78 278.894 388.999 279.494C388.049 279.842 387.152 280.17 386.172 280.53C385.858 279.668 385.548 278.815 385.244 277.978C378.715 279.238 375.243 275.465 373.781 272.243C375.385 271.446 376.991 270.647 378.642 269.829C379.794 271.504 381.213 272.666 383.461 273.103C383.016 271.878 382.633 270.823 382.25 269.768C381.727 268.327 381.179 266.893 380.693 265.44C380.511 264.905 380.263 264.707 379.683 264.73C377.841 264.8 376.019 264.633 374.312 263.85C370.853 262.264 369.296 259.31 369.053 255.73C368.827 252.388 370.5 249.87 373.356 248.159C373.545 248.043 373.739 247.932 373.926 247.815C373.997 247.771 374.054 247.708 374.174 247.608C373.928 246.93 373.678 246.233 373.4 245.475C374.363 245.124 375.26 244.794 376.272 244.424C376.458 244.931 376.679 245.437 376.822 245.963C376.972 246.521 377.264 246.611 377.802 246.509C380.192 246.056 382.446 246.372 384.453 247.853C385.511 248.638 386.344 249.621 387.012 250.888C385.421 251.725 383.883 252.532 382.267 253.382Z" fill="#8FD0D6"/>
<path d="M343.314 276.706C342.62 274.828 340.546 273.872 338.678 274.567C336.807 275.26 335.854 277.345 336.545 279.222C337.237 281.098 339.313 282.057 341.181 281.362C343.052 280.667 344.005 278.582 343.314 276.706Z" fill="#CBEFEF"/>
<path d="M426.214 245.884C425.527 244.007 423.45 243.048 421.58 243.743C419.71 244.438 418.757 246.523 419.45 248.399C420.14 250.277 422.217 251.235 424.084 250.54C425.954 249.845 426.908 247.76 426.214 245.884Z" fill="#CBEFEF"/>
<path d="M433.2 323.325L302.224 323.729L302.019 256.884L432.995 256.481L433.2 323.325Z" fill="#8FD0D6"/>
<path d="M310.404 316.553L424.976 316.198L424.816 263.657L310.244 264.011L310.404 316.553ZM428.947 320.161L306.46 320.54L306.276 260.049L428.76 259.67L428.947 320.161Z" fill="#CBEFEF"/>
<path d="M392.372 290.124C392.418 305.184 381.389 317.427 367.738 317.469C354.089 317.511 342.985 305.337 342.941 290.277C342.892 275.217 353.921 262.977 367.572 262.934C381.221 262.892 392.325 275.065 392.372 290.124Z" fill="#CBEFEF"/>
<path d="M366.116 278.389C364.392 279.094 363.331 280.605 363.416 282.088C363.513 283.726 364.657 285.198 366.104 285.57C366.107 283.215 366.112 280.856 366.116 278.389ZM369.25 292.785C369.248 295.546 369.243 298.227 369.238 300.913C371.101 300.735 372.603 299.08 372.78 297.041C372.955 295.045 371.627 293.394 369.25 292.785ZM371.79 281.8C371.401 280.337 370.783 279.133 369.321 278.454C369.283 278.687 369.227 278.859 369.227 279.033C369.219 281.376 369.234 283.721 369.203 286.063C369.198 286.578 369.37 286.765 369.854 286.922C370.986 287.288 372.108 287.704 373.193 288.192C377.003 289.909 378.366 293.191 377.909 297.09C377.355 301.785 374.789 304.486 370.165 305.505C369.321 305.693 369.078 306.055 369.151 306.845C369.203 307.422 369.158 308.006 369.158 308.645C368.147 308.643 367.192 308.641 366.147 308.64C366.149 307.72 366.152 306.813 366.154 305.923C359.589 304.847 357.622 300.105 357.356 296.574C359.134 296.381 360.919 296.188 362.747 295.99C363.254 297.96 364.19 299.542 366.149 300.728C366.154 299.426 366.154 298.303 366.156 297.18C366.159 295.646 366.135 294.11 366.175 292.578C366.192 292.013 366.024 291.739 365.472 291.56C363.718 290.991 362.067 290.205 360.733 288.878C358.028 286.193 357.578 282.881 358.58 279.437C359.511 276.221 361.947 274.435 365.215 273.815C365.432 273.775 365.652 273.736 365.869 273.689C365.949 273.673 366.024 273.635 366.173 273.582C366.173 272.862 366.173 272.12 366.175 271.313C367.199 271.314 368.156 271.316 369.231 271.318C369.231 271.858 369.267 272.41 369.219 272.954C369.17 273.529 369.413 273.713 369.953 273.805C372.351 274.205 374.36 275.281 375.737 277.367C376.464 278.469 376.907 279.68 377.1 281.1C375.32 281.335 373.598 281.562 371.79 281.8Z" fill="#8FD0D6"/>
<path d="M327.221 290.23C327.215 288.229 325.594 286.611 323.601 286.618C321.61 286.623 319.999 288.252 320.005 290.252C320.011 292.253 321.63 293.871 323.623 293.864C325.617 293.859 327.228 292.232 327.221 290.23Z" fill="#CBEFEF"/>
<path d="M415.622 289.956C415.615 287.955 413.995 286.339 412.004 286.344C410.009 286.351 408.4 287.978 408.406 289.979C408.411 291.979 410.033 293.597 412.024 293.592C414.019 293.585 415.628 291.958 415.622 289.956Z" fill="#CBEFEF"/>
<path d="M438.046 277.125L438.062 277.118L438.046 277.125Z" fill="#8FCAC4"/>
<path d="M433.063 278.947L433.055 275.594L438.054 273.735L438.062 277.119L438.046 277.125L433.063 278.947ZM433.039 271.36L432.995 256.482L405.234 256.539C405.008 255.718 404.747 254.897 404.444 254.081C404.071 253.072 403.651 252.094 403.186 251.153L438.005 251.043L438.046 269.5L433.039 271.36Z" fill="#50AAB4"/>
<path d="M433.055 275.593L433.041 271.36L438.045 269.5L438.054 273.735L433.055 275.593Z" fill="#72C3C9"/>
<path d="M380.701 256.592C380.11 254.949 379.505 253.312 378.912 251.669C378.864 251.541 378.851 251.401 378.824 251.232L379.581 251.229C380.746 251.552 381.548 252.357 382.267 253.382C383.675 252.642 385.027 251.932 386.405 251.208L403.187 251.153C403.651 252.094 404.07 253.072 404.444 254.08C404.746 254.897 405.009 255.718 405.233 256.539L380.701 256.592ZM376.465 254.047C376.162 253.486 375.849 252.928 375.526 252.38C375.604 252.297 375.685 252.217 375.771 252.139C376.003 252.782 376.235 253.417 376.465 254.047Z" fill="#72C3C9"/>
<path d="M377.736 256.597C377.339 255.733 376.913 254.882 376.465 254.046C376.236 253.416 376.005 252.781 375.772 252.139C375.688 252.216 375.606 252.297 375.529 252.379C375.302 251.997 375.071 251.619 374.835 251.244L378.827 251.232C378.853 251.4 378.868 251.54 378.913 251.668C379.506 253.311 380.112 254.949 380.705 256.591L377.736 256.597ZM382.269 253.381C381.552 252.357 380.748 251.551 379.583 251.228L386.408 251.207C385.028 251.932 383.678 252.641 382.269 253.381Z" fill="#50AAB4"/>
<path d="M433.066 278.947L432.996 256.481L433.042 271.36L433.055 275.593L433.066 278.947Z" fill="#50AAB4"/>
<path d="M119.73 165.191L112.738 137.048L85.7098 143.821L92.7011 171.964L119.73 165.191Z" fill="#CFE8EA"/>
<path d="M34.6795 186.5L27.688 158.357L0.659332 165.13L7.65066 193.273L34.6795 186.5Z" fill="#CFE8EA"/>
<path d="M139.019 242.838L119.73 165.191L92.7014 171.964L112.237 250.603L112.375 251.004C112.515 251.458 113.922 256.151 114.336 262.371C114.692 267.709 114.376 275.409 110.849 281.765C107.416 287.955 101.358 292.165 92.3553 294.619C91.5607 294.801 90.7805 294.959 90.0129 295.096H90.0136L96.7666 322.278C97.1812 322.193 97.5964 322.107 98.0128 322.014L98.0207 322.046C98.3824 321.955 98.7415 321.862 99.0996 321.767C99.46 321.681 99.821 321.595 100.183 321.504L100.175 321.474C108.185 319.226 115.208 315.872 121.077 311.488C127.013 307.053 131.803 301.555 135.315 295.145C138.433 289.456 140.535 283.053 141.565 276.114C142.349 270.83 142.514 265.223 142.054 259.449C141.395 251.165 139.634 244.849 139.019 242.838Z" fill="#74BDC1"/>
<path d="M70.0158 291.997C63.9286 288.048 60.0487 281.4 57.8659 276.52C55.3227 270.833 54.3696 266.026 54.2806 265.56L54.2148 265.14L34.6787 186.5L7.65067 193.273L26.9394 270.921C27.3373 272.985 28.7365 279.391 32.0291 287.015C34.3244 292.33 37.0924 297.202 40.2559 301.497C44.4111 307.137 49.2626 311.799 54.6759 315.351C60.7743 319.352 67.575 321.946 74.889 323.06C81.75 324.106 89.0947 323.841 96.7659 322.279L90.0129 295.096C81.9928 296.527 75.4248 295.505 70.0158 291.997Z" fill="#FF5B7E"/>
<path d="M382.104 276.078C382.383 302.348 361.403 323.873 335.246 324.154C309.086 324.435 287.653 303.364 287.374 277.094C287.096 250.823 308.073 229.3 334.233 229.019C360.393 228.738 381.823 249.807 382.104 276.078Z" fill="#F4A640"/>
<path d="M377.339 276.128C377.589 299.756 358.72 319.113 335.196 319.366C311.668 319.619 292.392 300.67 292.14 277.043C291.888 253.417 310.757 234.057 334.286 233.806C357.809 233.554 377.088 252.502 377.339 276.128Z" fill="#F9CC4B"/>
<path d="M334.327 238.006C313.144 238.233 296.097 255.725 296.321 276.999C296.548 298.271 313.967 315.393 335.15 315.167C356.333 314.938 373.38 297.446 373.153 276.174C372.929 254.902 355.51 237.778 334.327 238.006ZM335.164 316.637C313.172 316.874 295.092 299.098 294.858 277.015C294.622 254.93 312.322 236.771 334.311 236.534C356.302 236.299 374.385 254.073 374.621 276.158C374.854 298.243 357.155 316.402 335.164 316.637Z" fill="#F4A640"/>
<path d="M333.089 305.189C333.074 303.78 333.058 302.388 333.045 301.023C329.228 300.447 326.41 299.052 324.357 297.248V286.249C325.44 286.118 326.53 285.986 327.632 285.853C328.447 288.866 329.913 291.274 332.942 293.057C332.918 291.056 332.9 289.334 332.885 287.613C332.859 285.259 332.793 282.906 332.826 280.554C332.839 279.687 332.576 279.271 331.729 279.008C329.024 278.167 326.478 276.993 324.405 274.985C324.39 274.97 324.372 274.954 324.357 274.938V254.901C326.111 253.343 328.373 252.327 330.992 251.797C331.325 251.728 331.659 251.667 331.99 251.591C332.115 251.563 332.231 251.504 332.455 251.419C332.444 250.315 332.431 249.178 332.42 247.939C333.988 247.923 335.453 247.908 337.105 247.89C337.114 248.717 337.182 249.563 337.118 250.398C337.052 251.282 337.432 251.56 338.257 251.688C341.946 252.257 345.048 253.868 347.197 257.041C348.331 258.717 349.035 260.566 349.36 262.741C346.631 263.136 343.997 263.517 341.231 263.917C340.604 261.681 339.632 259.845 337.379 258.831C337.322 259.189 337.243 259.456 337.245 259.721C337.278 263.316 337.346 266.911 337.346 270.505C337.346 271.291 337.612 271.577 338.36 271.809C340.104 272.348 341.832 272.964 343.503 273.692C349.38 276.251 351.534 281.26 350.904 287.248C350.147 294.461 346.263 298.652 339.189 300.305C337.899 300.607 337.535 301.168 337.66 302.379C337.752 303.262 337.695 304.159 337.706 305.14C336.153 305.156 334.69 305.172 333.089 305.189ZM337.546 280.812C337.592 285.045 337.636 289.159 337.68 293.278C340.536 292.971 342.806 290.401 343.038 287.272C343.269 284.208 341.202 281.7 337.546 280.812ZM332.464 258.792C329.834 259.908 328.233 262.246 328.393 264.519C328.57 267.028 330.356 269.264 332.58 269.807C332.541 266.196 332.503 262.576 332.464 258.792Z" fill="#FCE3A5"/>
<path d="M107.572 300.275C107.572 300.275 128.381 271.384 117.579 266.039C117.579 266.039 115.648 262.973 107.88 273.936C107.88 273.936 103.08 275.521 102.806 269.929C102.533 264.338 110.415 255.832 105.389 250.984C100.363 246.135 97.7676 254.859 94.2252 256.516C90.6827 258.173 92.3605 235.881 87.4482 233.49C82.5359 231.098 81.1987 239.893 78.4489 240.919C77.1643 241.398 74.7071 235.986 71.1134 230.574C67.0137 224.4 61.4349 218.225 54.4313 220.798C41.2884 225.626 56.3025 235.351 62.6085 241.369C68.9147 247.388 55.8971 244.029 54.5377 251.723C53.1783 259.419 76.409 253.222 74.3044 260.705C72.1999 268.188 65.5426 263.924 64.3021 269.514C63.2126 274.422 69.5045 274.101 75.3979 273.782C80.3551 273.513 85.0307 273.243 84.7935 276.086C84.3793 281.047 76.0331 277.785 75.1438 281.62C74.2545 285.454 88.705 299.203 107.572 300.275Z" fill="#07085B"/>
<path d="M107.572 300.275C107.566 300.275 107.561 300.275 107.556 300.275C107.561 300.275 107.566 300.275 107.572 300.275C107.572 300.275 107.572 300.275 107.572 300.275C107.572 300.275 107.572 300.275 107.572 300.275ZM107.572 300.275C107.572 300.275 107.572 300.275 107.573 300.275C107.572 300.275 107.572 300.275 107.572 300.275ZM107.573 300.273C107.574 300.273 107.574 300.272 107.575 300.27C107.574 300.272 107.574 300.273 107.573 300.273ZM107.576 300.27C107.589 300.252 107.633 300.191 107.705 300.087C107.633 300.191 107.589 300.252 107.576 300.27Z" fill="#82C4C7"/>
<path d="M75.5568 280.742C75.5571 280.74 75.5575 280.74 75.558 280.74C75.5576 280.74 75.5571 280.742 75.5568 280.742ZM75.5595 280.739C75.5653 280.732 75.5711 280.723 75.5769 280.716C75.5711 280.725 75.5653 280.732 75.5595 280.739ZM54.534 251.746C54.5344 251.744 54.5347 251.741 54.5351 251.739C54.5347 251.741 54.5344 251.744 54.534 251.746Z" fill="#FFF9EB"/>
<path d="M107.572 300.275C107.566 300.275 107.561 300.275 107.556 300.275C107.502 300.272 107.448 300.266 107.395 300.263C106.72 297.053 105.699 293.768 104.405 290.458C103.381 290.628 102.33 290.707 101.262 290.707C95.1623 290.707 88.5492 288.143 83.7498 285.779C80.2865 284.073 77.3208 282.262 75.384 280.998C75.436 280.909 75.4934 280.823 75.5568 280.742C75.5572 280.742 75.5577 280.74 75.558 280.74C75.5585 280.738 75.5591 280.738 75.5596 280.738C75.5654 280.731 75.5711 280.724 75.5769 280.716C77.5053 281.972 80.4578 283.776 83.905 285.473C88.6686 287.82 95.2271 290.365 101.257 290.365C102.282 290.365 103.293 290.291 104.276 290.131C101.231 282.441 96.7385 274.617 91.7458 267.243C90.4851 267.067 89.0999 266.99 87.6342 266.99C79.7413 266.99 69.539 269.243 64.1793 270.581C64.1784 270.466 64.1829 270.347 64.1929 270.224C69.5947 268.88 79.7553 266.648 87.6442 266.648C89.0048 266.648 90.298 266.714 91.4874 266.863C87.9654 261.688 84.2061 256.741 80.539 252.222C79.9753 252.114 75.7959 251.353 70.109 251.098C68.989 251.047 67.7636 251.016 66.4589 251.016C62.8791 251.016 58.7056 251.256 54.4972 252.025C54.5061 251.934 54.5178 251.841 54.5341 251.746C54.5344 251.744 54.5348 251.741 54.5351 251.739C54.536 251.734 54.5369 251.728 54.5378 251.723C54.5412 251.706 54.5449 251.686 54.5484 251.669C58.7439 250.911 62.8975 250.672 66.464 250.672C67.7743 250.672 69.0056 250.705 70.1305 250.756C75.0996 250.979 78.9252 251.588 80.207 251.813C78.5491 249.779 76.9122 247.832 75.3272 245.995C65.9015 235.07 56.847 226.223 52.1777 221.821C52.2799 221.764 52.3844 221.706 52.4926 221.648C57.1921 226.081 66.2057 234.9 75.5849 245.772C78.9482 249.67 82.0784 253.506 84.964 257.262C84.7738 255.732 84.3284 251.613 84.3602 246.834C84.3878 242.72 84.785 237.483 86.2711 233.113C86.3814 233.129 86.4936 233.15 86.6079 233.178C85.1242 237.511 84.7289 242.734 84.7015 246.835C84.6632 252.544 85.3089 257.304 85.3788 257.802C89.1492 262.739 92.4918 267.536 95.3741 272.146C95.3859 272.165 95.3973 272.183 95.409 272.202C97.4225 261.044 101.36 254.775 104.325 251.474C104.575 251.197 104.822 250.935 105.065 250.689C105.149 250.761 105.234 250.839 105.319 250.919C105.069 251.172 104.816 251.439 104.559 251.727C101.597 255.031 97.653 261.34 95.6781 272.637C98.4665 277.135 100.816 281.463 102.715 285.595C110.158 281.76 114.338 275.068 116.534 270.112C117.132 268.762 117.62 267.467 118.015 266.279C118.116 266.34 118.215 266.404 118.31 266.47C117.918 267.643 117.437 268.917 116.85 270.242C115.429 273.452 113.676 276.323 111.639 278.778C109.494 281.362 107.029 283.489 104.292 285.115C103.822 285.395 103.344 285.658 102.859 285.909C105.149 290.939 106.77 295.677 107.706 300.087C107.633 300.191 107.589 300.252 107.576 300.27C107.576 300.27 107.576 300.27 107.576 300.27C107.575 300.272 107.574 300.273 107.573 300.273C107.573 300.275 107.573 300.275 107.573 300.275C107.572 300.275 107.572 300.275 107.572 300.275C107.572 300.275 107.572 300.275 107.572 300.275Z" fill="#20216C"/>
<path d="M121.015 307.666C121.015 307.666 102.648 286.953 68.3166 288.362L74.2699 296.616L64.6761 289.05C64.6761 289.05 44.7704 290.709 31.2076 295.589C31.2076 295.589 60.3581 311.009 67.7182 312.364L77.5432 309.431L72.2216 316.804C72.2216 316.804 88.2609 325.76 104.758 323.927C121.255 322.095 121.015 307.666 121.015 307.666Z" fill="#8FD0D6"/>
<path d="M208.939 150.814H315.92C320.578 150.814 324.354 154.606 324.354 159.284V316.344C324.354 321.023 320.578 324.814 315.92 324.814H208.939C204.279 324.814 200.503 321.023 200.503 316.344V159.284C200.503 154.606 204.279 150.814 208.939 150.814Z" fill="#333333"/>
<path d="M314.372 191.668H211.657V165.125H314.372V191.668Z" fill="#3CB4C5"/>
<path d="M214.381 191.668H211.657V165.125H314.372V168.947H214.381V191.668Z" fill="#2599AE"/>
<path d="M237.439 208.805H215.345C213.307 208.805 211.656 207.144 211.656 205.098V202.946C211.656 200.9 213.307 199.242 215.345 199.242H237.439C239.477 199.242 241.128 200.9 241.128 202.946V205.098C241.128 207.144 239.477 208.805 237.439 208.805Z" fill="#E87B50"/>
<path d="M274.06 208.805H251.966C249.929 208.805 248.277 207.144 248.277 205.098V202.946C248.277 200.9 249.929 199.242 251.966 199.242H274.06C276.098 199.242 277.75 200.9 277.75 202.946V205.098C277.75 207.144 276.098 208.805 274.06 208.805Z" fill="#E87B50"/>
<path d="M310.683 208.804H288.589C286.551 208.804 284.9 207.144 284.9 205.098V202.946C284.9 200.9 286.551 199.241 288.589 199.241H310.683C312.721 199.241 314.372 200.9 314.372 202.946V205.098C314.372 207.144 312.721 208.804 310.683 208.804Z" fill="#E87B50"/>
<path d="M229.299 237.813H216.82C213.968 237.813 211.656 235.491 211.656 232.627V221.563C211.656 218.697 213.968 216.376 216.82 216.376H229.299C232.153 216.376 234.465 218.697 234.465 221.563V232.627C234.465 235.491 232.153 237.813 229.299 237.813Z" fill="#CFE4FF"/>
<path d="M255.935 237.813H243.456C240.604 237.813 238.292 235.491 238.292 232.627V221.563C238.292 218.697 240.604 216.376 243.456 216.376H255.935C258.787 216.376 261.099 218.697 261.099 221.563V232.627C261.099 235.491 258.787 237.813 255.935 237.813Z" fill="#CFE4FF"/>
<path d="M282.571 237.812H270.092C267.241 237.812 264.927 235.491 264.927 232.626V221.563C264.927 218.697 267.241 216.375 270.092 216.375H282.571C285.424 216.375 287.736 218.697 287.736 221.563V232.626C287.736 235.491 285.424 237.812 282.571 237.812Z" fill="#CFE4FF"/>
<path d="M229.299 264.243H216.82C213.968 264.243 211.656 261.922 211.656 259.056V247.992C211.656 245.128 213.968 242.804 216.82 242.804H229.299C232.153 242.804 234.465 245.128 234.465 247.992V259.056C234.465 261.922 232.153 264.243 229.299 264.243Z" fill="#CFE4FF"/>
<path d="M255.935 264.243H243.456C240.604 264.243 238.292 261.922 238.292 259.056V247.992C238.292 245.128 240.604 242.804 243.456 242.804H255.935C258.787 242.804 261.099 245.128 261.099 247.992V259.056C261.099 261.922 258.787 264.243 255.935 264.243Z" fill="#CFE4FF"/>
<path d="M282.571 264.243H270.092C267.241 264.243 264.927 261.921 264.927 259.056V247.992C264.927 245.128 267.241 242.804 270.092 242.804H282.571C285.424 242.804 287.736 245.128 287.736 247.992V259.056C287.736 261.921 285.424 264.243 282.571 264.243Z" fill="#CFE4FF"/>
<path d="M309.726 216.375H296.209C293.644 216.375 291.563 218.465 291.563 221.042V227.677V233.148V259.577C291.563 262.153 293.644 264.243 296.209 264.243H309.726C312.293 264.243 314.372 262.153 314.372 259.577V233.148V227.677V221.042C314.372 218.465 312.293 216.375 309.726 216.375Z" fill="#FDB137"/>
<path d="M229.299 290.672H216.82C213.968 290.672 211.656 288.35 211.656 285.484V274.421C211.656 271.556 213.968 269.235 216.82 269.235H229.299C232.153 269.235 234.465 271.556 234.465 274.421V285.484C234.465 288.35 232.153 290.672 229.299 290.672Z" fill="#CFE4FF"/>
<path d="M255.935 290.672H243.456C240.604 290.672 238.292 288.35 238.292 285.484V274.421C238.292 271.556 240.604 269.235 243.456 269.235H255.935C258.787 269.235 261.099 271.556 261.099 274.421V285.484C261.099 288.35 258.787 290.672 255.935 290.672Z" fill="#CFE4FF"/>
<path d="M282.571 290.672H270.092C267.241 290.672 264.927 288.35 264.927 285.484V274.42C264.927 271.556 267.241 269.234 270.092 269.234H282.571C285.424 269.234 287.736 271.556 287.736 274.42V285.484C287.736 288.35 285.424 290.672 282.571 290.672Z" fill="#CFE4FF"/>
<path d="M309.207 290.672H296.728C293.876 290.672 291.563 288.35 291.563 285.484V274.42C291.563 271.556 293.876 269.234 296.728 269.234H309.207C312.061 269.234 314.372 271.556 314.372 274.42V285.484C314.372 288.35 312.061 290.672 309.207 290.672Z" fill="#FDB137"/>
<path d="M229.299 317.1H216.82C213.968 317.1 211.656 314.778 211.656 311.914V300.849C211.656 297.985 213.968 295.663 216.82 295.663H229.299C232.153 295.663 234.465 297.985 234.465 300.849V311.914C234.465 314.778 232.153 317.1 229.299 317.1Z" fill="#CFE4FF"/>
<path d="M255.935 317.1H243.456C240.604 317.1 238.292 314.778 238.292 311.914V300.849C238.292 297.985 240.604 295.663 243.456 295.663H255.935C258.787 295.663 261.099 297.985 261.099 300.849V311.914C261.099 314.778 258.787 317.1 255.935 317.1Z" fill="#CFE4FF"/>
<path d="M282.571 317.1H270.092C267.241 317.1 264.927 314.778 264.927 311.914V300.849C264.927 297.985 267.241 295.663 270.092 295.663H282.571C285.424 295.663 287.736 297.985 287.736 300.849V311.914C287.736 314.778 285.424 317.1 282.571 317.1Z" fill="#FDB137"/>
<path d="M309.207 317.1H296.728C293.876 317.1 291.563 314.778 291.563 311.914V300.849C291.563 297.985 293.876 295.663 296.728 295.663H309.207C312.061 295.663 314.372 297.985 314.372 300.849V311.914C314.372 314.778 312.061 317.1 309.207 317.1Z" fill="#E87B50"/>
<path d="M226.964 274.321V275.404L221.699 286.465H220.006L225.254 275.721V275.684H219.336V274.321H226.964Z" fill="white"/>
<path d="M247.711 277.236C247.711 278.45 248.623 279.103 250.02 279.477C251.061 279.123 251.862 278.375 251.862 277.273C251.862 276.3 251.285 275.291 249.815 275.291C248.456 275.291 247.711 276.19 247.711 277.236ZM252.215 283.308C252.215 281.832 251.191 281.121 249.555 280.655C248.139 281.065 247.377 282.001 247.377 283.159C247.322 284.393 248.251 285.476 249.796 285.476C251.266 285.476 252.215 284.56 252.215 283.308ZM245.703 283.384C245.703 281.852 246.614 280.767 248.103 280.132L248.083 280.076C246.745 279.44 246.168 278.394 246.168 277.348C246.168 275.423 247.786 274.115 249.908 274.115C252.251 274.115 253.424 275.591 253.424 277.104C253.424 278.133 252.922 279.235 251.433 279.946V280C252.94 280.599 253.871 281.664 253.871 283.14C253.871 285.251 252.066 286.673 249.759 286.673C247.229 286.673 245.703 285.158 245.703 283.384Z" fill="white"/>
<path d="M247.321 306.553C247.321 309.712 248.29 311.505 249.777 311.505C251.453 311.505 252.251 309.543 252.251 306.441C252.251 303.452 251.489 301.49 249.796 301.49C248.363 301.49 247.321 303.246 247.321 306.553ZM253.889 306.367C253.889 310.496 252.363 312.776 249.684 312.776C247.321 312.776 245.721 310.553 245.684 306.535C245.684 302.462 247.433 300.219 249.889 300.219C252.438 300.219 253.889 302.499 253.889 306.367Z" fill="white"/>
<path d="M274.412 278.319C274.412 279.834 275.324 280.899 276.738 280.899C277.836 280.899 278.692 280.356 279.119 279.626C279.213 279.477 279.269 279.291 279.269 279.03C279.269 276.955 278.505 275.367 276.794 275.367C275.398 275.367 274.412 276.601 274.412 278.319ZM273.816 285.307C274.171 285.346 274.58 285.307 275.138 285.251C276.086 285.121 276.979 284.728 277.667 284.075C278.468 283.345 279.045 282.28 279.269 280.843H279.213C278.544 281.664 277.576 282.15 276.366 282.15C274.189 282.15 272.795 280.506 272.795 278.431C272.795 276.134 274.449 274.116 276.924 274.116C279.397 274.116 280.925 276.134 280.925 279.235C280.925 281.908 280.033 283.775 278.841 284.934C277.91 285.85 276.627 286.409 275.324 286.56C274.729 286.653 274.208 286.673 273.816 286.653V285.307Z" fill="white"/>
<path d="M224.174 254.923V250.869C224.174 250.233 224.193 249.598 224.23 248.963H224.174C223.801 249.672 223.504 250.195 223.169 250.756L220.21 254.886V254.923H224.174ZM224.174 259.519V256.213H218.555V255.128L223.95 247.374H225.718V254.923H227.412V256.213H225.718V259.519H224.174Z" fill="white"/>
<path d="M253.071 248.757H248.456L247.991 251.878C248.27 251.839 248.531 251.802 248.976 251.802C249.908 251.802 250.838 252.007 251.582 252.457C252.531 252.999 253.312 254.045 253.312 255.577C253.312 257.95 251.433 259.724 248.81 259.724C247.489 259.724 246.373 259.352 245.796 258.978L246.205 257.725C246.708 258.025 247.694 258.399 248.791 258.399C250.336 258.399 251.657 257.39 251.657 255.763C251.638 254.194 250.596 253.073 248.178 253.073C247.489 253.073 246.949 253.148 246.502 253.204L247.285 247.374H253.071V248.757Z" fill="white"/>
<path d="M279.306 255.539C279.306 253.802 278.32 252.756 276.815 252.756C275.827 252.756 274.917 253.372 274.468 254.251C274.357 254.437 274.283 254.681 274.283 254.979C274.32 256.978 275.23 258.454 276.943 258.454C278.357 258.454 279.306 257.278 279.306 255.539ZM279.771 248.533C279.436 248.514 279.008 248.533 278.543 248.607C275.975 249.037 274.618 250.925 274.338 252.924H274.394C274.971 252.157 275.975 251.522 277.315 251.522C279.454 251.522 280.962 253.073 280.962 255.446C280.962 257.67 279.454 259.725 276.943 259.725C274.357 259.725 272.663 257.708 272.663 254.549C272.663 252.157 273.519 250.27 274.709 249.075C275.714 248.084 277.056 247.468 278.58 247.282C279.065 247.206 279.473 247.187 279.771 247.187V248.533Z" fill="white"/>
<path d="M222.667 223.084H222.629L220.526 224.223L220.21 222.971L222.852 221.551H224.249V233.696H222.667V223.084Z" fill="white"/>
<path d="M245.852 233.696V232.687L247.134 231.436C250.224 228.484 251.619 226.913 251.638 225.082C251.638 223.849 251.042 222.71 249.239 222.71C248.139 222.71 247.229 223.27 246.67 223.736L246.149 222.578C246.986 221.867 248.178 221.344 249.572 221.344C252.178 221.344 253.275 223.138 253.275 224.877C253.275 227.118 251.657 228.931 249.107 231.399L248.139 232.296V232.332H253.572V233.696H245.852Z" fill="white"/>
<path d="M273.261 231.809C273.724 232.108 274.805 232.575 275.938 232.575C278.041 232.575 278.693 231.23 278.673 230.221C278.656 228.521 277.131 227.792 275.55 227.792H274.636V226.558H275.55C276.739 226.558 278.245 225.943 278.245 224.503C278.245 223.531 277.632 222.671 276.126 222.671C275.158 222.671 274.229 223.101 273.707 223.475L273.28 222.28C273.912 221.813 275.139 221.344 276.442 221.344C278.823 221.344 279.902 222.764 279.902 224.242C279.902 225.493 279.158 226.558 277.669 227.101V227.138C279.158 227.436 280.367 228.557 280.367 230.258C280.367 232.201 278.861 233.901 275.957 233.901C274.601 233.901 273.408 233.471 272.813 233.08L273.261 231.809Z" fill="white"/>
<path d="M224.518 310.968C224.518 311.777 223.866 312.434 223.06 312.434C222.255 312.434 221.601 311.777 221.601 310.968C221.601 310.159 222.255 309.503 223.06 309.503C223.866 309.503 224.518 310.159 224.518 310.968Z" fill="white"/>
<path d="M311.632 241.082H303.954V233.373H301.98V241.082H294.303V243.065H301.98V250.775H303.954V243.065H311.632V241.082Z" fill="white"/>
<path d="M281.441 310.946L277.376 306.864L281.441 302.781L280.395 301.732L276.33 305.814L272.266 301.732L271.222 302.781L275.287 306.864L271.222 310.946L272.266 311.995L276.33 307.913L280.395 311.995L281.441 310.946Z" fill="white"/>
<path d="M308.92 281.509H296.065V279.531H308.92V281.509Z" fill="white"/>
<path d="M309.396 304.361H296.538V302.385H309.396V304.361Z" fill="white"/>
<path d="M309.396 309.34H296.538V307.362H309.396V309.34Z" fill="white"/>
<path d="M229.261 250.584H185.937V232.174H229.261V250.584Z" fill="#F4A640"/>
<path d="M185.937 250.584H142.614V232.174H185.937V250.584Z" fill="#FEB546"/>
<path d="M142.614 250.584H99.2908V232.174H142.614V250.584Z" fill="#F9C27A"/>
<path d="M99.6303 250.044H228.92V232.715H99.6303V250.044ZM229.6 251.125H98.9515V231.632H229.6V251.125Z" fill="#E2881E"/>
<path d="M222.624 287.406H179.3V268.996H222.624V287.406Z" fill="#F4A640"/>
<path d="M179.3 287.406H135.977V268.996H179.3V287.406Z" fill="#FEB546"/>
<path d="M135.977 287.406H92.6542V268.996H135.977V287.406Z" fill="#F9C27A"/>
<path d="M92.9935 286.865H222.284V269.537H92.9935V286.865ZM222.962 287.947H92.3148V268.454H222.962V287.947Z" fill="#E2881E"/>
<path d="M229.261 305.816H185.937V287.406H229.261V305.816Z" fill="#F4A640"/>
<path d="M185.937 305.816H142.614V287.406H185.937V305.816Z" fill="#FEB546"/>
<path d="M142.614 305.816H99.2908V287.406H142.614V305.816Z" fill="#F9C27A"/>
<path d="M99.6303 305.275H228.92V287.947H99.6303V305.275ZM229.6 306.358H98.9515V286.865H229.6V306.358Z" fill="#E2881E"/>
<path d="M239.718 324.228H196.395V305.818H239.718V324.228Z" fill="#F4A640"/>
<path d="M196.395 324.228H153.072V305.818H196.395V324.228Z" fill="#FEB546"/>
<path d="M153.072 324.228H109.749V305.818H153.072V324.228Z" fill="#F9C27A"/>
<path d="M110.088 323.687H239.379V306.358H110.088V323.687ZM240.057 324.77H109.409V305.276H240.057V324.77Z" fill="#E2881E"/>
<path d="M236.399 268.994H193.076V250.584H236.399V268.994Z" fill="#F4A640"/>
<path d="M193.076 268.994H149.753V250.584H193.076V268.994Z" fill="#FEB546"/>
<path d="M149.753 268.994H106.43V250.584H149.753V268.994Z" fill="#F9C27A"/>
<path d="M106.77 268.454H236.06V251.125H106.77V268.454ZM236.738 269.536H106.091V250.044H236.738V269.536Z" fill="#E2881E"/>
<path d="M128.405 110.13L129.711 120.021L122.717 114.889L101.307 103.907L117.868 105.428C117.868 105.428 126.303 107.487 126.76 107.903C127.217 108.317 128.405 110.13 128.405 110.13Z" fill="#6DB1B5"/>
<path d="M260.72 173.592V175.283L264.522 176.281L264.629 172.554L260.72 173.592Z" fill="#FFC0BB"/>
<path d="M269.351 173.241V175.256L272.991 176.365L273.29 173.059L269.351 173.241Z" fill="#FFC0BB"/>
<path d="M135.738 104.159L101.307 103.907L128.405 110.13L135.738 104.159Z" fill="#8FD0D6"/>
<path d="M117.337 120.079L126.358 112.803L101.307 103.907L117.337 120.079Z" fill="#8FD0D6"/>
<path d="M170.987 163.582L170.533 162.906C171.228 162.434 171.866 161.855 172.427 161.185L173.048 161.709C172.438 162.436 171.746 163.066 170.987 163.582Z" fill="#6DB1B5"/>
<path d="M146.443 120.614C145.338 119.314 144.044 118.184 142.599 117.255L143.036 116.569C144.549 117.539 145.903 118.724 147.06 120.084L146.443 120.614ZM156.679 123.91C155.209 123.459 154.042 123.185 153.476 123.157C152.828 123.127 152.235 123.12 151.664 123.138L151.64 122.324C152.232 122.304 152.846 122.311 153.515 122.345C154.377 122.385 156.016 122.855 156.916 123.131L156.679 123.91ZM143.228 127.561L142.496 127.21C143.231 125.667 144.611 124.316 146.284 123.501L146.396 123.447L146.74 124.184L146.638 124.233C145.127 124.968 143.884 126.181 143.228 127.561ZM150.355 130.067L149.562 129.9C149.666 129.398 149.72 128.886 149.721 128.378C149.723 127.664 149.632 126.925 149.45 126.185C149.351 125.783 149.224 125.372 149.072 124.965L149.831 124.679C149.994 125.116 150.131 125.556 150.237 125.99C150.435 126.795 150.534 127.599 150.532 128.38C150.531 128.943 150.471 129.51 150.355 130.067ZM165.546 128.991C164.255 127.887 162.858 126.841 161.393 125.877L161.837 125.197C163.33 126.178 164.755 127.245 166.071 128.37L165.546 128.991ZM146.981 134.856C146.429 134.993 145.023 135.025 144.12 134.484C143.445 134.08 142.883 133.445 142.495 132.648L143.223 132.292C143.547 132.955 143.988 133.457 144.535 133.786C145.186 134.175 146.347 134.175 146.787 134.066C146.846 134.052 146.869 134.04 146.869 134.04C146.903 134.019 146.944 133.993 146.984 133.965L147.434 134.642C147.388 134.674 147.341 134.703 147.294 134.733C147.214 134.784 147.112 134.824 146.981 134.856ZM172.314 136.783C171.447 135.361 170.414 133.963 169.24 132.624L169.85 132.087C171.052 133.459 172.114 134.896 173.006 136.358L172.314 136.783ZM176.473 146.372L175.665 146.455C175.644 146.232 175.618 146.007 175.589 145.786C175.489 145.028 175.344 144.261 175.159 143.51C174.989 142.817 174.779 142.118 174.538 141.434L175.304 141.164C175.554 141.871 175.77 142.596 175.947 143.315C176.137 144.096 176.288 144.891 176.392 145.677C176.422 145.904 176.45 146.137 176.473 146.372ZM175.543 156.944L174.769 156.701C175.239 155.2 175.55 153.494 175.692 151.632L176.501 151.695C176.352 153.617 176.031 155.384 175.543 156.944Z" fill="#6DB1B5"/>
<path d="M137.948 115.168C137.095 114.933 136.234 114.77 135.388 114.684L135.47 113.873C136.36 113.965 137.267 114.137 138.163 114.384L137.948 115.168Z" fill="#6DB1B5"/>
<path d="M246.949 95.0526L246.252 99.4471L244.779 93.5872C244.779 93.5872 246.844 92.5798 246.935 92.9466C247.026 93.3134 246.949 95.0526 246.949 95.0526Z" fill="#07085B"/>
<path d="M235.223 104.51L234.585 112.108L241.261 111.787L240.492 105.06L235.223 104.51Z" fill="#FFC0BB"/>
<path d="M240.857 108.259L240.492 105.06L235.223 104.51L235.003 107.141C236.05 108.189 237.934 109.275 240.857 108.259Z" fill="#F99893"/>
<path d="M244.95 99.3911C244.55 100.225 244.763 101.162 245.427 101.485C246.091 101.808 246.954 101.394 247.356 100.56C247.757 99.7263 247.543 98.7891 246.879 98.4662C246.215 98.1433 245.352 98.5574 244.95 99.3911Z" fill="#F99893"/>
<path d="M244.391 104.382C244.625 104.026 244.829 103.647 244.999 103.245C245.476 102.171 245.756 101.015 245.92 100.002C245.955 99.7843 246.002 99.5702 246.053 99.3561C246.261 98.4909 246.317 97.5643 246.172 96.599C245.708 93.4891 243.218 91.0111 240.116 90.5811C235.94 90.0019 232.261 93.1066 232.001 97.2203C231.571 96.943 231.075 96.8535 230.622 97.0237C229.753 97.3484 229.378 98.4962 229.781 99.5878C230.187 100.678 231.22 101.297 232.088 100.972C232.209 100.927 232.319 100.865 232.418 100.79C232.553 104.314 235.239 107.197 238.668 107.359C240.344 107.438 241.904 106.85 243.115 105.822C243.196 105.762 243.279 105.693 243.37 105.611C243.763 105.251 244.099 104.833 244.391 104.382Z" fill="#FFC0BB"/>
<path d="M240.719 97.7045C240.733 98.1152 240.737 98.5153 240.758 98.9084C240.782 99.2928 240.824 99.7017 240.978 99.9737L241.008 100.016C241.02 100.032 241.023 100.04 241.046 100.07C241.083 100.121 241.126 100.165 241.154 100.225C241.216 100.335 241.259 100.467 241.261 100.6C241.27 100.872 241.128 101.114 240.95 101.264C240.585 101.571 240.113 101.601 239.721 101.504C240.12 101.432 240.503 101.295 240.726 101.034C240.829 100.904 240.898 100.758 240.873 100.623C240.866 100.555 240.843 100.49 240.803 100.428C240.789 100.395 240.758 100.369 240.737 100.337L240.686 100.269L240.628 100.19C240.501 99.9702 240.461 99.7491 240.436 99.535C240.417 99.3191 240.419 99.1103 240.438 98.9032C240.478 98.4908 240.565 98.0871 240.719 97.7045Z" fill="#F99893"/>
<path d="M238.353 98.2466C238.337 98.5924 238.046 98.8591 237.703 98.8433C237.359 98.8258 237.093 98.5344 237.109 98.1887C237.126 97.8447 237.416 97.578 237.761 97.5938C238.105 97.6096 238.369 97.9027 238.353 98.2466Z" fill="#333333"/>
<path d="M243.678 98.8504C243.662 99.1944 243.37 99.4612 243.028 99.4454C242.683 99.4296 242.418 99.1365 242.434 98.7925C242.451 98.4468 242.741 98.18 243.085 98.1958C243.428 98.2134 243.694 98.5047 243.678 98.8504Z" fill="#333333"/>
<path d="M237.31 102.482C237.472 102.624 237.644 102.757 237.824 102.873C238.002 102.994 238.185 103.103 238.378 103.196C238.76 103.382 239.167 103.517 239.587 103.568C240.005 103.622 240.431 103.585 240.84 103.477C241.249 103.361 241.638 103.171 242.007 102.943C241.841 103.084 241.665 103.212 241.476 103.322C241.287 103.435 241.085 103.521 240.877 103.596C240.669 103.666 240.45 103.715 240.23 103.738C240.01 103.759 239.786 103.756 239.566 103.731C239.126 103.673 238.701 103.526 238.32 103.306C237.939 103.089 237.589 102.815 237.31 102.482Z" fill="#F99893"/>
<path d="M239.134 96.8356C238.818 96.7374 238.519 96.6619 238.224 96.6163C237.93 96.5706 237.642 96.5619 237.36 96.597C237.081 96.6338 236.798 96.6953 236.529 96.8181C236.384 96.8637 236.26 96.948 236.114 97.0094C235.973 97.0796 235.844 97.1691 235.686 97.2375C235.765 97.0936 235.856 96.9515 235.962 96.8216C236.081 96.7023 236.193 96.5706 236.34 96.4811C236.614 96.2705 236.959 96.1512 237.305 96.1073C237.654 96.0652 238.011 96.1161 238.329 96.2442C238.643 96.3741 238.932 96.5671 239.134 96.8356Z" fill="#07085B"/>
<path d="M241.878 97.1464C242.13 96.9217 242.449 96.7883 242.785 96.7234C243.119 96.6602 243.48 96.6795 243.814 96.7883C244.146 96.8989 244.461 97.0832 244.688 97.3429C244.816 97.4588 244.899 97.6114 244.992 97.7501C245.071 97.8992 245.134 98.0554 245.182 98.2134C245.041 98.1151 244.933 98.001 244.809 97.9063C244.677 97.8168 244.571 97.7097 244.438 97.6378C244.197 97.464 243.933 97.3499 243.666 97.2587C243.397 97.1692 243.112 97.12 242.813 97.1078C242.514 97.0955 242.208 97.1113 241.878 97.1464Z" fill="#07085B"/>
<path d="M238.9 140.147C238.9 140.147 237.506 149.631 246.632 151.283C255.756 152.937 267.109 152.442 267.109 152.442L268.688 174.228L273.452 174.472C273.452 174.472 285.717 144.203 268.74 139.471L253.483 139.547L247.201 139.095C247.201 139.095 240.844 137.519 240.771 137.819C240.696 138.119 239.049 140.298 238.9 140.147Z" fill="#E03268"/>
<path d="M230.514 140.196C230.514 140.196 229.123 149.681 238.247 151.334C247.37 152.985 258.722 152.492 258.722 152.492L260.304 174.277L265.066 174.521C265.066 174.521 277.332 144.252 260.355 139.521L245.099 139.596L238.816 139.145C238.816 139.145 232.459 137.569 232.384 137.869C232.31 138.169 230.664 140.347 230.514 140.196Z" fill="#FF5B7E"/>
<path d="M242.007 109.079C242.007 109.079 248.29 109.879 249.885 111.181C251.481 112.483 259.158 131.609 259.158 131.609L252.776 139.121L239.215 139.221C239.215 139.221 229.044 144.73 222.662 139.521C216.28 134.314 219.571 116.188 223.26 112.283C226.949 108.377 233.532 108.477 233.532 108.477C233.532 108.477 239.513 112.683 242.007 109.079Z" fill="#333333"/>
<path d="M229.841 118.591C230.066 119.633 230.203 120.691 230.302 121.753C230.356 122.285 230.379 122.817 230.409 123.35C230.424 123.884 230.437 124.417 230.43 124.951C230.409 126.02 230.351 127.09 230.168 128.148C229.989 129.201 229.731 130.258 229.243 131.209C229.572 130.195 229.734 129.15 229.851 128.105C229.967 127.059 230.007 126.002 230.021 124.946C230.042 123.891 230.016 122.832 229.982 121.774C229.946 120.714 229.897 119.656 229.841 118.591Z" fill="white"/>
<path d="M248.637 117.89C248.926 119.442 249.23 120.988 249.537 122.531C249.854 124.072 250.18 125.611 250.551 127.138C250.918 128.664 251.327 130.181 251.821 131.669C252.068 132.413 252.344 133.147 252.667 133.857C252.987 134.572 253.366 135.263 253.873 135.867C253.296 135.325 252.872 134.638 252.487 133.949C252.117 133.247 251.795 132.52 251.519 131.778C251.238 131.037 250.995 130.283 250.766 129.526C250.544 128.766 250.341 128.001 250.152 127.234C249.972 126.465 249.799 125.693 249.646 124.919C249.495 124.144 249.349 123.368 249.225 122.589C248.968 121.03 248.768 119.463 248.637 117.89Z" fill="white"/>
<path d="M251.795 134.791C251.755 134.475 249.359 134.121 248.477 134.075C247.809 134.04 243.386 133.893 241.88 133.824L241.991 134.212L241.969 135.928L241.721 137.066C243.042 137.15 246.269 137.276 246.941 137.41C247.839 137.589 249.396 138.268 249.396 138.268C249.396 138.268 250.044 138.12 249.221 137.764C248.56 137.478 248.096 137.034 247.9 136.813C247.786 136.687 247.91 136.46 247.993 136.483C250.233 137.073 250.464 137.169 250.464 137.169C250.464 137.169 253.097 137.155 250.478 136.56C248.908 136.204 248.346 135.997 248.206 135.82C248.146 135.744 248.253 135.488 248.349 135.483C249.709 135.398 252.15 135.883 251.481 135.565C250.935 135.305 249.218 135.023 248.55 134.916C248.51 134.909 248.443 134.66 248.625 134.644C249.92 134.535 251.832 135.086 251.795 134.791Z" fill="#FFC0BB"/>
<path d="M228.308 130.946C228.86 131.081 229.404 131.235 229.958 131.353C230.507 131.485 231.066 131.579 231.618 131.697C232.729 131.901 233.844 132.078 234.963 132.236C236.083 132.383 237.203 132.518 238.329 132.627C239.447 132.74 240.586 132.834 241.694 132.897L241.845 132.906L241.878 133.036C241.972 133.413 242.035 133.782 242.082 134.159C242.129 134.535 242.149 134.914 242.147 135.293C242.145 135.672 242.112 136.053 242.049 136.429C241.981 136.804 241.871 137.171 241.722 137.524L241.708 137.553L241.684 137.571L240.454 138.399C240.043 138.677 239.631 138.952 239.215 139.221C239.601 138.91 239.991 138.605 240.382 138.301L241.556 137.392L241.52 137.438C241.642 137.097 241.729 136.746 241.776 136.386C241.82 136.025 241.841 135.662 241.831 135.297C241.818 134.931 241.782 134.568 241.731 134.207C241.679 133.847 241.607 133.482 241.513 133.14L241.694 133.277C241.109 133.263 240.555 133.224 239.985 133.182C239.419 133.14 238.853 133.096 238.288 133.034C237.158 132.919 236.031 132.776 234.909 132.597C233.788 132.415 232.672 132.195 231.567 131.932C231.017 131.792 230.465 131.655 229.923 131.483C229.378 131.328 228.841 131.137 228.308 130.946Z" fill="white"/>
<path d="M280.165 122.047H255.635L248.68 139.096H240.212C239.882 139.096 239.605 139.42 239.614 139.697C239.624 140.029 239.882 140.297 240.212 140.297H272.012L280.165 122.047Z" fill="#8FD0D6"/>
<path d="M268 131.776C267.857 132.502 267.226 132.989 266.592 132.86C265.959 132.734 265.564 132.041 265.707 131.314C265.852 130.588 266.483 130.102 267.116 130.23C267.75 130.356 268.145 131.049 268 131.776Z" fill="#DAEEF7"/>
<path d="M247.084 90.8951C247.084 90.8951 249.179 90.9618 246.981 89.184C244.782 87.4044 238.883 85.3195 235.099 87.3254C235.099 87.3254 234.342 85.7108 233.25 86.0969C232.156 86.4813 233.961 87.5922 233.961 87.5922C233.961 87.5922 232.565 87.5466 232.139 88.2345C231.824 88.7435 232.679 88.7663 233.145 88.7435C232.35 88.8786 229.304 90.8109 230.833 96.9814C231.377 96.8621 234.475 92.35 234.475 92.35C234.475 92.35 241.558 96.3023 240.857 93.1608C240.857 93.1608 248.197 97.7589 247.155 93.9611C247.155 93.9611 249.993 94.1699 247.084 90.8951Z" fill="#07085B"/>
<path d="M230.826 97.0182C230.826 97.0182 231.414 96.8111 232.044 97.3148C232.675 97.8167 232.605 99.584 232.605 99.584C232.605 99.584 235.616 101.534 235.3 93.2818C234.961 84.5033 232.787 93.9855 232.787 93.9855L230.826 97.0182Z" fill="#07085B"/>
<path d="M95.3579 85.8809L77.025 110.851L83.648 114.029L75.6207 134.149L95.395 111.074L87.6242 107.99L95.3579 85.8809Z" fill="#FEB546"/>
<path d="M142.295 229.991L146.109 227.629L149.404 229.626L148.253 230.449L144.258 231.016C144.258 231.016 142.699 230.814 142.63 230.769C142.562 230.721 142.295 229.991 142.295 229.991Z" fill="#FFC0BB"/>
<path d="M142.295 229.991L141.329 230.616C140.881 230.9 141.079 231.595 141.609 231.597L148.927 231.632C149.185 231.634 149.395 231.425 149.396 231.165L149.403 229.626C144.523 231.161 142.841 230.681 142.295 229.991Z" fill="#FF5B7E"/>
<path d="M158.349 230.13L162.163 227.766L165.457 229.765L164.306 230.588L160.311 231.153C160.311 231.153 158.752 230.953 158.684 230.905C158.615 230.86 158.349 230.13 158.349 230.13Z" fill="#FFC0BB"/>
<path d="M158.349 230.13L157.382 230.754C156.934 231.037 157.133 231.732 157.662 231.735L164.98 231.771C165.238 231.771 165.449 231.562 165.45 231.302L165.457 229.765C160.576 231.3 158.895 230.818 158.349 230.13Z" fill="#FF5B7E"/>
<path d="M0.659332 126.823L14.4825 146.457L18.4262 142.339L31.2075 153.175L19.1247 132.938L14.9717 137.929L0.659332 126.823Z" fill="#FEB546"/>
<path d="M44.0554 97.7553L41.842 115.507L46.0662 115.232L47.675 127.624L51.1459 110.419L46.3713 111.067L44.0554 97.7553Z" fill="#FEB546"/>
<path d="M195.734 165.023C195.734 165.023 198.088 163.475 200.767 165.023C203.446 166.571 203.446 171.79 202.391 173.038C201.335 174.287 202.445 175.979 200.334 177.61C198.223 179.24 194.862 179.838 192.943 177.932C191.025 176.028 192.433 171.779 192.433 171.779L195.734 165.023Z" fill="#FF5B7E"/>
<path d="M166.09 182.404C166.046 182.515 165.898 182.532 165.831 182.434C165.313 181.681 163.669 179.321 163.448 179.41C163.185 179.515 164.603 181.66 164.446 181.871C164.366 181.978 163.986 181.486 163.597 180.995C163.216 180.514 162.825 180.035 162.695 180.112C162.432 180.27 163.71 182.171 163.623 182.276C163.535 182.381 162.117 180.693 161.907 180.693C161.697 180.693 162.993 182.68 162.922 182.838C162.887 182.918 162.517 182.678 162.15 182.438C161.799 182.208 161.45 181.978 161.399 182.029C161.294 182.136 161.207 182.188 163.553 185.476C163.553 185.476 164.574 186.511 164.644 186.934L165.882 187.322L167.142 186.074C167.142 186.074 167.265 180.869 167.09 180.746C166.923 180.628 166.772 180.719 166.09 182.404Z" fill="#FFC0BB"/>
<path d="M170.521 213.57L165.729 230.014L159.939 228.387L161.869 214.579L167.856 210.454L170.521 213.57Z" fill="#191919"/>
<path d="M189.223 179.824C189.223 179.824 179.173 192.243 177.469 194.217L167.288 184.124C167.288 184.124 165.234 185.265 164.185 186.493C164.185 186.493 168.293 196.016 171.831 198.519L178.911 203.301L177.556 206.55L180.09 208.524L181.424 205.319L185.072 197.202L188.524 186.406L189.179 181.053L189.223 179.824Z" fill="#07085B"/>
<path d="M189.179 181.053C189.179 181.053 184.941 187.987 184.068 190.663C183.194 193.34 183.893 193.559 183.5 196.808C183.106 200.054 180.134 208.743 180.134 208.743L185.072 212.078C185.072 212.078 187.737 203.52 187.737 203.169C187.737 202.818 190.228 187.153 190.228 187.153L192.283 181.316L189.179 181.053Z" fill="white"/>
<path d="M184.592 211.727C184.592 211.727 176.114 204.091 169.559 202.555C163.005 201.019 145.376 227.725 145.376 227.725L149.59 230.772C149.59 230.772 164.84 219.758 167.725 214.844C167.725 214.844 180.115 231.251 184.265 231.646C188.417 232.041 193.099 231.16 198.618 224.498C204.875 216.944 184.592 211.727 184.592 211.727Z" fill="#333333"/>
<path d="M193.025 174.294L194.904 179.386C194.904 179.386 193.544 182.496 188.989 181.342C188.989 181.342 189.464 180.258 188.693 178.085C187.907 175.865 193.025 174.294 193.025 174.294Z" fill="#FFC0BB"/>
<path d="M189.116 179.956C189.09 179.619 189.027 179.222 188.905 178.763C189.027 179.221 189.09 179.619 189.118 179.954C189.116 179.956 189.116 179.956 189.116 179.956Z" fill="#FDB8AC"/>
<path d="M189.128 180.182C189.127 180.11 189.121 180.035 189.116 179.956C189.116 179.956 189.116 179.956 189.118 179.954C189.123 180.033 189.128 180.11 189.13 180.182C189.13 180.182 189.13 180.182 189.128 180.182Z" fill="#9A5874"/>
<path d="M193.904 176.678L193.674 176.055C193.675 176.055 193.675 176.053 193.675 176.053L193.906 176.672C193.906 176.674 193.904 176.676 193.904 176.678Z" fill="#FD7982"/>
<path d="M189.13 180.182C189.128 180.11 189.123 180.033 189.118 179.954C189.09 179.619 189.027 179.221 188.905 178.763C190.871 178.631 192.58 177.592 193.674 176.055L193.904 176.678C193.495 178.452 192.005 179.703 189.13 180.182Z" fill="#FDA19A"/>
<path d="M166.981 209.861C166.898 210.279 166.86 210.705 166.862 211.134C166.864 211.56 166.898 211.987 166.963 212.41C167.03 212.831 167.124 213.248 167.238 213.661C167.351 214.073 167.491 214.475 167.662 214.87L167.761 214.786C167.534 214.633 167.318 214.451 167.111 214.265C166.904 214.077 166.704 213.88 166.512 213.677C166.322 213.47 166.139 213.255 165.962 213.038C165.784 212.82 165.619 212.592 165.452 212.364C165.597 212.606 165.751 212.843 165.915 213.073C166.077 213.306 166.257 213.524 166.44 213.742C166.626 213.954 166.819 214.163 167.026 214.358C167.235 214.551 167.448 214.737 167.688 214.902L167.877 215.031L167.787 214.816C167.625 214.43 167.495 214.024 167.374 213.62C167.257 213.215 167.158 212.804 167.088 212.388C167.014 211.973 166.959 211.553 166.942 211.13C166.921 210.709 166.934 210.284 166.981 209.861Z" fill="white"/>
<path d="M182.575 170.902C182.972 171.725 182.76 172.652 182.105 172.969C181.45 173.289 180.597 172.878 180.2 172.055C179.804 171.232 180.015 170.307 180.67 169.988C181.326 169.67 182.178 170.079 182.575 170.902Z" fill="#F99893"/>
<path d="M183.129 175.832C182.897 175.479 182.694 175.103 182.528 174.709C182.056 173.647 181.78 172.506 181.619 171.506C181.584 171.29 181.537 171.077 181.486 170.867C181.282 170.014 181.226 169.098 181.369 168.143C181.827 165.074 184.286 162.627 187.348 162.201C191.474 161.629 195.107 164.696 195.364 168.757C195.788 168.485 196.278 168.396 196.725 168.564C197.583 168.885 197.954 170.017 197.555 171.095C197.155 172.173 196.136 172.785 195.278 172.464C195.159 172.418 195.049 172.357 194.951 172.283C194.818 175.763 192.166 178.61 188.781 178.77C187.124 178.847 185.584 178.268 184.389 177.253C184.309 177.194 184.225 177.125 184.136 177.044C183.748 176.688 183.416 176.276 183.129 175.832Z" fill="#FFC0BB"/>
<path d="M186.753 169.237C186.769 169.637 186.781 170.033 186.771 170.425C186.76 170.619 186.755 170.814 186.722 171C186.691 171.186 186.647 171.372 186.56 171.515L186.525 171.564C186.512 171.581 186.505 171.594 186.484 171.62C186.453 171.665 186.411 171.706 186.386 171.76C186.359 171.813 186.331 171.864 186.317 171.923C186.297 171.98 186.289 172.039 186.287 172.101C186.275 172.345 186.402 172.568 186.565 172.711C186.729 172.859 186.932 172.943 187.133 172.985C187.337 173.024 187.542 173.024 187.739 172.989C187.54 172.964 187.348 172.931 187.169 172.861C186.991 172.796 186.829 172.694 186.708 172.564C186.594 172.432 186.514 172.273 186.535 172.115C186.54 172.074 186.542 172.036 186.56 171.999C186.568 171.96 186.589 171.925 186.608 171.89C186.624 171.853 186.659 171.823 186.682 171.788C186.708 171.755 186.75 171.699 186.781 171.653C186.899 171.451 186.94 171.241 186.967 171.034C186.989 170.827 186.988 170.623 186.975 170.421C186.947 170.018 186.876 169.619 186.753 169.237Z" fill="#F99893"/>
<path d="M189.09 169.772C189.106 170.114 189.394 170.377 189.733 170.36C190.072 170.344 190.334 170.056 190.319 169.716C190.303 169.373 190.014 169.11 189.675 169.128C189.336 169.143 189.074 169.431 189.09 169.772Z" fill="#333333"/>
<path d="M183.832 170.368C183.847 170.709 184.136 170.972 184.475 170.956C184.814 170.941 185.076 170.651 185.06 170.31C185.044 169.97 184.756 169.707 184.417 169.723C184.078 169.738 183.816 170.028 183.832 170.368Z" fill="#333333"/>
<path d="M187.695 175.978C186.411 175.978 186.074 174.786 186.074 174.786C186.311 174.589 186.575 174.526 186.822 174.526C187.283 174.526 187.673 174.751 187.673 174.751C188.078 174.463 188.505 174.391 188.83 174.391C189.149 174.391 189.37 174.461 189.37 174.461C189.37 174.461 189.38 175.821 187.914 175.965C187.839 175.974 187.765 175.978 187.695 175.978Z" fill="#FDA8A3"/>
<path d="M190.121 173.954C189.96 174.094 189.792 174.226 189.614 174.342C189.438 174.459 189.256 174.568 189.065 174.659C188.688 174.844 188.286 174.977 187.872 175.028C187.46 175.081 187.038 175.044 186.635 174.935C186.231 174.823 185.847 174.635 185.481 174.41C185.646 174.549 185.82 174.675 186.007 174.784C186.193 174.895 186.394 174.981 186.598 175.054C186.804 175.124 187.019 175.172 187.236 175.195C187.454 175.216 187.674 175.212 187.893 175.188C188.326 175.131 188.747 174.986 189.123 174.77C189.499 174.554 189.845 174.284 190.121 173.954Z" fill="#F99893"/>
<path d="M188.318 168.378C188.632 168.282 188.926 168.206 189.218 168.161C189.508 168.117 189.794 168.108 190.072 168.143C190.348 168.18 190.626 168.24 190.893 168.361C191.035 168.406 191.159 168.491 191.302 168.55C191.44 168.619 191.568 168.708 191.724 168.775C191.647 168.633 191.556 168.492 191.451 168.364C191.334 168.247 191.224 168.117 191.079 168.027C190.808 167.82 190.469 167.703 190.126 167.659C189.78 167.618 189.429 167.669 189.116 167.794C188.803 167.922 188.519 168.113 188.318 168.378Z" fill="#FF5B7E"/>
<path d="M185.609 168.684C185.361 168.464 185.044 168.333 184.714 168.268C184.384 168.205 184.027 168.224 183.697 168.333C183.37 168.441 183.059 168.624 182.834 168.878C182.71 168.994 182.626 169.145 182.535 169.28C182.456 169.428 182.395 169.582 182.346 169.738C182.484 169.642 182.594 169.53 182.717 169.435C182.846 169.349 182.951 169.242 183.08 169.17C183.32 168.998 183.58 168.885 183.844 168.796C184.111 168.708 184.391 168.659 184.686 168.647C184.98 168.635 185.284 168.65 185.609 168.684Z" fill="#FF5B7E"/>
<path d="M180.506 183.915C184.962 195.018 179.613 207.645 168.559 212.12C157.504 216.593 144.93 211.221 140.474 200.121C136.018 189.019 141.368 176.392 152.422 171.917C163.477 167.441 176.05 172.813 180.506 183.915Z" fill="#F4A640"/>
<path d="M178.493 184.732C182.5 194.716 177.689 206.072 167.747 210.097C157.804 214.121 146.496 209.289 142.489 199.305C138.481 189.321 143.292 177.964 153.234 173.94C163.176 169.914 174.484 174.746 178.493 184.732Z" fill="#F9CC4B"/>
<path d="M153.947 175.714C144.995 179.338 140.648 189.6 144.256 198.589C147.864 207.58 158.083 211.944 167.034 208.322C175.985 204.698 180.333 194.437 176.724 185.446C173.116 176.457 162.898 172.09 153.947 175.714ZM167.284 208.943C157.991 212.704 147.383 208.173 143.637 198.84C139.891 189.507 144.404 178.854 153.697 175.093C162.99 171.33 173.598 175.863 177.345 185.195C181.09 194.528 176.578 205.181 167.284 208.943Z" fill="#F4A640"/>
<path d="M164.512 204.431C164.273 203.836 164.037 203.247 163.805 202.671C163.091 202.832 162.427 202.906 161.81 202.906C158.517 202.906 156.588 200.8 155.664 198.933C156.767 198.34 157.871 197.745 159.003 197.134C159.847 198.276 160.867 199.056 162.446 199.307C162.107 198.462 161.815 197.734 161.523 197.006C161.124 196.012 160.707 195.024 160.333 194.02C160.207 193.684 160.047 193.543 159.714 193.543C159.682 193.543 159.648 193.545 159.612 193.547C159.309 193.569 159.007 193.582 158.706 193.582C157.729 193.582 156.766 193.448 155.84 193.061C153.387 192.032 152.231 190.007 151.978 187.513C151.742 185.182 152.852 183.385 154.807 182.122C154.937 182.037 155.069 181.957 155.197 181.869C155.245 181.836 155.284 181.792 155.366 181.718C155.178 181.251 154.986 180.77 154.776 180.247C155.439 179.979 156.058 179.73 156.757 179.445C156.897 179.796 157.064 180.144 157.176 180.509C157.264 180.797 157.4 180.9 157.618 180.9C157.693 180.9 157.777 180.888 157.872 180.867C158.401 180.747 158.922 180.684 159.433 180.684C160.525 180.684 161.571 180.976 162.55 181.649C163.308 182.171 163.912 182.839 164.409 183.708C163.316 184.329 162.261 184.93 161.153 185.561C160.518 184.715 159.802 184.099 158.679 184.043C158.714 184.205 158.724 184.331 158.769 184.443C159.377 185.963 159.998 187.478 160.592 189.003C160.707 189.298 160.845 189.393 161.12 189.393C161.157 189.393 161.196 189.391 161.238 189.387C161.832 189.343 162.43 189.317 163.026 189.317C163.262 189.317 163.497 189.322 163.732 189.331C166.648 189.438 168.388 191.205 169.11 193.85C169.979 197.037 169.023 199.463 166.295 201.342C165.797 201.686 165.734 201.985 165.988 202.478C166.173 202.836 166.297 203.227 166.463 203.641C165.807 203.906 165.189 204.157 164.512 204.431ZM162.993 193.301C162.795 193.301 162.591 193.315 162.379 193.345C163.097 195.133 163.795 196.871 164.494 198.612C165.654 198.006 166.194 196.537 165.776 195.17C165.419 193.999 164.385 193.301 162.993 193.301ZM156.586 184.845C155.655 185.756 155.361 187.016 155.805 187.953C156.25 188.896 157.222 189.519 158.172 189.521C158.267 189.521 158.361 189.514 158.455 189.501C157.842 187.975 157.228 186.446 156.586 184.845Z" fill="#FCE3A5"/>
<path d="M168.135 195.977C168.183 196.098 168.078 196.225 167.951 196.197C166.968 195.99 163.872 195.353 163.762 195.591C163.632 195.876 166.384 196.513 166.418 196.8C166.451 197.09 163.781 196.4 163.69 196.727C163.6 197.053 166.055 197.599 166.065 197.75C166.074 197.901 163.666 197.631 163.498 197.79C163.33 197.95 165.866 198.554 165.929 198.734C165.992 198.913 164.105 199.082 164.1 199.245C164.096 199.41 164.066 199.519 168.423 200.363L170.154 200.623L171.679 200.068L171.746 198.11C171.746 198.11 167.916 193.854 167.683 193.889C167.461 193.922 167.408 194.11 168.135 195.977Z" fill="#FFC0BB"/>
<path d="M194.773 178.529C194.773 178.529 203.425 188.996 202.245 207.427C201.066 225.858 200.868 225.99 200.868 225.99C200.868 225.99 195.559 225.419 191.627 222.258C187.694 219.099 182.888 216.95 182.888 216.95L186.077 206.549C186.077 206.549 181.925 206.681 178.911 205.407C175.896 204.135 169.603 200.756 169.603 200.756C169.603 200.756 170.127 197.641 170.783 196.676C170.783 196.676 178.779 199.133 182.801 199.177C182.801 199.177 187.475 184.694 194.773 178.529Z" fill="#55769F"/>
<path d="M194.151 181.886C192.835 183.029 191.619 184.289 190.477 185.609C189.335 186.93 188.279 188.327 187.302 189.777L186.94 190.324C186.818 190.507 186.698 190.688 186.587 190.877L185.908 191.999C185.791 192.185 185.693 192.381 185.588 192.573L185.275 193.148L184.964 193.726C184.861 193.92 184.774 194.121 184.679 194.317L184.118 195.503L183.625 196.72L183.386 197.329L183.182 197.952C183.043 198.368 182.909 198.782 182.778 199.198C182.94 198.792 183.099 198.387 183.255 197.98L183.489 197.371L183.76 196.776L184.293 195.584L184.884 194.421C184.983 194.229 185.076 194.031 185.182 193.841L185.502 193.273L185.82 192.706C185.929 192.516 186.03 192.325 186.149 192.143L186.83 191.032C186.94 190.846 187.063 190.665 187.183 190.484L187.547 189.944C188.513 188.499 189.551 187.104 190.652 185.758L191.491 184.759C191.778 184.433 192.061 184.103 192.353 183.78C192.931 183.129 193.532 182.501 194.151 181.886Z" fill="#07085B"/>
<path d="M197.885 189.192C197.174 190.802 196.412 192.388 195.627 193.961C195.231 194.744 194.829 195.525 194.409 196.295C193.994 197.069 193.565 197.834 193.115 198.587C192.672 199.345 192.209 200.089 191.722 200.818C191.484 201.184 191.229 201.541 190.979 201.9C190.719 202.251 190.462 202.606 190.189 202.948C189.646 203.634 189.074 204.298 188.447 204.907C187.819 205.516 187.127 206.061 186.35 206.472C187.157 206.121 187.879 205.591 188.543 205.014C189.202 204.424 189.805 203.773 190.367 203.094C190.935 202.418 191.454 201.702 191.952 200.974C192.45 200.245 192.919 199.498 193.37 198.738C194.266 197.22 195.08 195.654 195.834 194.061C196.587 192.467 197.279 190.846 197.885 189.192Z" fill="#07085B"/>
<path d="M181.105 162.775C182.119 160.563 184.087 159.315 185.789 158.622C187.879 157.769 190.226 157.704 192.339 158.501C198.3 160.749 197.111 167.35 196.832 168.584C196.547 168.519 196.154 168.526 195.678 168.785C195.477 168.896 195.315 169.01 195.184 169.126C194.023 168.771 193.674 166.839 193.073 165.907C192.258 164.644 189.1 165.848 187.739 164.949C186.378 164.054 186.145 163.12 186.145 163.12C180.896 163.957 181.289 169.889 181.289 169.889C181.062 169.838 180.538 168.985 180.538 168.985C180.538 168.985 179.244 166.841 181.105 162.775Z" fill="#FF5B7E"/>
<path d="M375.946 246.521L364.735 253.599L363.894 320.117L366.129 321.658L368.324 321.169L374.685 277.434L379.876 249.203L375.946 246.521Z" fill="#FFC0BB"/>
<path d="M398.714 311.732C393.694 298.196 384.969 288.98 384.969 288.98C384.969 288.98 386.609 284.538 388.292 269.882C389.976 255.226 382.866 246.02 382.866 246.02L370.291 249.796C370.291 249.796 376.692 288.203 377.722 290.644C378.526 292.557 388.762 306.309 393.162 312.183L393.167 312.286L395.153 314.833L397.029 317.246L399.251 316.235L399.645 313.45L398.714 311.732Z" fill="#FFC0BB"/>
<path d="M364.725 252.66C364.725 252.66 361.78 275.24 362.111 292.107C362.111 292.107 373.488 293.911 381.841 293.28L382.2 283.629L383.996 292.739C383.996 292.739 388.129 292.558 390.014 291.025C390.014 291.025 388.865 281.384 389.207 273.976C389.547 266.568 389.239 257.246 386.812 251.061C384.382 244.878 370.881 251.651 370.881 251.651L364.725 252.66Z" fill="#333333"/>
<path d="M379.918 195.791C379.918 195.791 382.503 197.78 383.28 200.589C383.945 202.99 386.9 202.569 388.749 205.777C390.799 209.338 393.72 214.664 387.025 218.257C382.866 220.489 376.245 222.206 374.744 220.7C373.241 219.194 369.661 219.796 370.467 203.97C370.467 203.97 380.257 198.415 380.355 198.382C380.453 198.348 379.918 195.791 379.918 195.791Z" fill="#333333"/>
<path d="M366.888 241.107L368.086 235.935L365.105 227.899C365.105 227.899 363.471 234.277 361.027 239.963L352.044 241.06L350.148 241.419C350.148 241.419 362.441 248.459 365.78 243.276C366.131 243.364 366.354 243.416 366.354 243.416L366.673 242.041C366.852 241.737 366.998 241.425 367.095 241.109L366.888 241.107Z" fill="#E03268"/>
<path d="M378.318 213.074L378.078 216.875L372.919 217.953H372.006L372.197 213.399L377.67 211.458L378.318 213.074Z" fill="#FFC0BB"/>
<path d="M370.223 219.163C369.989 221.716 371.042 222.192 371.042 222.192L378.833 216.385C373.996 216.86 370.87 217.383 370.87 217.383C370.87 217.383 370.469 219.231 370.223 219.163Z" fill="#FFC0BB"/>
<path d="M383.152 204.807C383.152 204.807 384.741 198.253 380.954 195.798C377.164 193.343 373.146 193.615 370.411 195.086C367.676 196.558 366.038 201.686 367.263 204.615L376.344 201.818L383.152 204.807Z" fill="#333333"/>
<path d="M378.426 212.082C378.426 212.082 378.318 213.186 378.221 214.56C376.259 216.718 372.58 215.978 372.096 215.769C372.127 215.077 372.096 213.679 372.096 213.679L378.426 212.082Z" fill="#F99893"/>
<path d="M368.443 205.774C368.767 206.657 368.459 207.582 367.758 207.842C367.054 208.101 366.222 207.598 365.9 206.715C365.576 205.834 365.884 204.907 366.585 204.648C367.289 204.388 368.121 204.893 368.443 205.774Z" fill="#F99893"/>
<path d="M368.518 210.872C368.317 210.487 368.15 210.084 368.015 209.663C367.64 208.529 367.47 207.334 367.405 206.295C367.393 206.072 367.367 205.849 367.335 205.628C367.211 204.735 367.244 203.792 367.486 202.83C368.262 199.738 371.023 197.481 374.195 197.355C378.471 197.184 381.883 200.688 381.739 204.868C382.201 204.631 382.711 204.591 383.152 204.807C383.997 205.222 384.263 206.42 383.748 207.479C383.231 208.541 382.127 209.064 381.282 208.65C381.165 208.592 381.059 208.518 380.966 208.434C380.482 211.978 377.485 214.624 374.006 214.445C372.306 214.359 370.788 213.611 369.665 212.451C369.591 212.385 369.512 212.304 369.43 212.213C369.066 211.811 368.767 211.355 368.518 210.872Z" fill="#FFC0BB"/>
<path d="M375.03 205.867C375.011 206.244 375.299 206.565 375.672 206.585C376.048 206.604 376.369 206.315 376.388 205.937C376.407 205.56 376.118 205.239 375.743 205.219C375.367 205.2 375.046 205.492 375.03 205.867Z" fill="#333333"/>
<path d="M368.989 205.867C368.971 206.245 369.26 206.566 369.634 206.585C370.01 206.604 370.329 206.315 370.349 205.938C370.368 205.56 370.079 205.239 369.703 205.22C369.329 205.2 369.008 205.492 368.989 205.867Z" fill="#333333"/>
<path d="M374.459 204.728C374.767 204.564 375.088 204.441 375.416 204.359C375.743 204.282 376.078 204.252 376.406 204.283C376.573 204.297 376.736 204.331 376.894 204.376C376.974 204.396 377.054 204.426 377.132 204.454C377.169 204.468 377.209 204.485 377.247 204.501C377.285 204.517 377.325 204.533 377.363 204.552C377.667 204.698 377.952 204.889 378.232 205.101C378.025 204.817 377.759 204.571 377.452 204.384C377.299 204.291 377.134 204.211 376.962 204.154C376.79 204.096 376.611 204.055 376.429 204.04C376.066 204.006 375.698 204.055 375.361 204.178C375.192 204.236 375.031 204.315 374.878 204.406C374.727 204.497 374.581 204.603 374.459 204.728Z" fill="#333333"/>
<path d="M371.715 204.728C371.59 204.604 371.446 204.498 371.296 204.407C371.143 204.316 370.981 204.237 370.811 204.179C370.475 204.056 370.105 204.007 369.743 204.04C369.562 204.056 369.382 204.097 369.21 204.154C369.039 204.212 368.874 204.291 368.721 204.384C368.413 204.572 368.149 204.818 367.94 205.102C368.221 204.89 368.506 204.699 368.812 204.553C368.849 204.534 368.888 204.518 368.925 204.502C368.967 204.486 369.004 204.469 369.043 204.455C369.122 204.427 369.199 204.397 369.28 204.377C369.44 204.332 369.602 204.298 369.766 204.284C370.095 204.253 370.431 204.283 370.758 204.36C371.085 204.442 371.407 204.565 371.715 204.728Z" fill="#333333"/>
<path d="M387.255 227.685C387.091 227.513 386.934 227.318 386.794 227.122C386.649 226.923 386.516 226.718 386.401 226.502C386.278 226.29 386.171 226.069 386.08 225.84C385.978 225.616 385.908 225.379 385.834 225.14C385.865 225.388 385.913 225.635 385.99 225.874C386.024 225.995 386.072 226.111 386.116 226.229C386.167 226.342 386.212 226.46 386.27 226.572C386.384 226.797 386.509 227.015 386.656 227.22C386.77 227.387 386.893 227.545 387.033 227.695C386.907 227.72 386.777 227.738 386.647 227.745C386.468 227.752 386.29 227.747 386.111 227.719C386.022 227.708 385.935 227.687 385.846 227.669C385.759 227.643 385.669 227.622 385.585 227.587C385.414 227.529 385.252 227.441 385.093 227.35C385.233 227.467 385.387 227.578 385.556 227.657C385.725 227.741 385.903 227.803 386.089 227.841C386.273 227.882 386.461 227.903 386.652 227.897C386.842 227.896 387.028 227.878 387.221 227.827L387.356 227.791L387.255 227.685Z" fill="white"/>
<path d="M372.512 205.553C372.321 205.864 372.161 206.189 372.012 206.52C371.863 206.854 371.733 207.194 371.631 207.548C371.584 207.727 371.542 207.908 371.529 208.103C371.529 208.152 371.529 208.203 371.533 208.256C371.538 208.282 371.545 208.31 371.549 208.338C371.561 208.368 371.568 208.396 371.589 208.426L371.624 208.47L371.652 208.494C371.673 208.51 371.689 208.528 371.71 208.542C371.749 208.57 371.786 208.598 371.828 208.623C371.991 208.721 372.161 208.791 372.333 208.853C372.505 208.91 372.681 208.961 372.86 208.991C372.535 208.837 372.205 208.681 371.926 208.477C371.891 208.452 371.859 208.424 371.828 208.396L371.782 208.354L371.761 208.333L371.756 208.322C371.733 208.287 371.731 208.196 371.738 208.117C371.756 207.95 371.796 207.779 371.845 207.608C371.94 207.266 372.058 206.925 372.172 206.583C372.286 206.243 372.407 205.901 372.512 205.553Z" fill="#F99893"/>
<path d="M386.024 238.525C386.95 233.346 387.349 227.788 387.349 227.788C387.402 226.507 385.891 224.738 385.823 223.734C384.53 222.678 384.226 221.816 384.226 221.816L381.974 217.121L380.477 216.384C379.304 216.274 378.735 216.381 378.735 216.381L374.871 219.298C373.256 220.517 370.944 219.41 370.872 217.383L370.869 217.381C367.481 220.108 365.202 221.339 364.732 225.719C364.404 228.774 366.059 231.365 366.243 234.277L364.727 252.66C364.727 252.66 377.504 252.804 386.81 251.061C386.81 251.061 385.939 245.87 386.024 238.525Z" fill="#FF5B7E"/>
<path d="M363.667 251.85L350.334 252.657C349.492 252.708 348.556 252.165 348.247 251.446L341.233 235.145C340.924 234.424 341.356 233.8 342.198 233.749L355.531 232.941C356.373 232.89 357.306 233.433 357.616 234.152L364.63 250.453C364.942 251.174 364.509 251.799 363.667 251.85Z" fill="#333333"/>
<path d="M351.583 233.999L347.044 234.275C346.681 234.298 346.277 234.062 346.143 233.752L346.018 233.459C345.884 233.148 346.071 232.878 346.435 232.857L350.972 232.581C351.337 232.558 351.741 232.793 351.873 233.104L352.001 233.397C352.135 233.708 351.948 233.978 351.583 233.999Z" fill="#C8EEF1"/>
<path d="M346.621 247.685L346.562 247.709C346.229 247.859 345.835 247.729 345.651 247.409L343.562 243.764C343.456 243.589 343.462 243.369 343.575 243.199C343.928 242.669 344.69 241.577 344.949 241.618C345.294 241.67 344.246 243.483 344.389 243.518C344.534 243.555 346.015 242.348 346.14 242.546C346.253 242.721 344.949 244.126 345.008 244.234C345.069 244.345 346.573 243.466 346.738 243.624C346.885 243.766 345.465 244.9 345.484 244.98L346.621 247.685Z" fill="#FFC0BB"/>
<path d="M345.381 245.023C345.381 245.023 346.889 244.561 347.021 244.733C347.156 244.903 345.372 245.868 345.381 245.825C345.388 245.779 345.381 245.023 345.381 245.023Z" fill="#FFC0BB"/>
<path d="M382.658 203.902L382.488 203.883L382.374 202.46L381.741 201.145C381.741 201.145 379.26 197.609 379.172 197.521C379.086 197.433 377.193 196.294 377.078 196.235C376.961 196.177 374.314 196.616 374.314 196.616C374.314 196.616 369.653 195.608 370.441 198.223C371.229 200.837 374.634 202.198 374.808 202.081C374.254 201.496 374.197 199.831 374.197 199.831C376.816 202.87 381.741 204.868 381.741 204.868C381.741 204.868 382.254 204.473 383.152 204.806L382.658 203.902Z" fill="#333333"/>
<path d="M371.004 210.069C371.184 210.874 371.964 211.474 372.886 211.459C373.809 211.443 374.566 210.816 374.717 210.004L371.004 210.069Z" fill="white"/>
<path d="M388.341 229.07C388.341 229.07 386.446 218.615 380.632 216.437C379.058 215.848 377.379 217.01 377.37 218.698C377.357 221.102 384.723 238.914 383.965 239.826C382.935 241.072 364.035 245.556 363.406 245.706L361.155 245.488C359.3 245.358 357.332 245.105 357.224 245.244C357.073 245.439 357.171 245.627 359.144 246.56C359.271 246.622 359.283 246.801 359.162 246.876C358.226 247.452 355.285 249.284 355.378 249.556C355.487 249.881 358.153 248.308 358.394 248.512C358.635 248.717 355.997 250.184 356.169 250.513C356.34 250.841 358.701 249.421 358.823 249.533C358.942 249.646 356.825 251.248 356.81 251.502C356.798 251.757 359.264 250.321 359.449 250.416C359.634 250.511 358.258 252.069 358.377 252.204C358.496 252.338 358.036 252.538 362.134 249.919C362.134 249.919 363.143 249.235 363.516 248.949C363.516 248.949 386.987 245.623 388.444 243.758C391.151 240.298 388.341 229.07 388.341 229.07Z" fill="#FFC0BB"/>
<path d="M388.341 229.07C388.341 229.07 386.446 218.615 380.632 216.437C379.058 215.848 377.379 217.009 377.37 218.698C377.357 221.102 384.723 238.913 383.965 239.826C382.935 241.072 364.035 245.556 363.406 245.705L363.362 245.7C363.581 246.737 363.859 247.841 364.203 248.85C368.079 248.285 387.135 245.432 388.444 243.757C391.15 240.298 388.341 229.07 388.341 229.07Z" fill="#E03268"/>
<path d="M359.692 321.674L364.328 318.801L368.331 321.23L366.933 322.23L362.078 322.918C362.078 322.918 360.183 322.674 360.098 322.618C360.016 322.562 359.692 321.674 359.692 321.674Z" fill="#FFC0BB"/>
<path d="M359.692 321.674L358.516 322.432C357.972 322.778 358.213 323.622 358.856 323.626L367.75 323.668C368.065 323.67 368.32 323.415 368.322 323.099L368.331 321.23C362.399 323.096 360.355 322.511 359.692 321.674Z" fill="#07085B"/>
<path d="M395.811 321.239L395.687 315.521L399.646 313.45L399.83 315.163L398.057 319.756C398.057 319.756 396.922 321.299 396.832 321.343C396.742 321.388 395.811 321.239 395.811 321.239Z" fill="#FFC0BB"/>
<path d="M395.814 321.239L395.901 322.639C395.936 323.285 396.787 323.487 397.104 322.923L401.481 315.147C401.636 314.873 401.541 314.526 401.268 314.369L399.648 313.45C398.372 319.561 396.867 321.065 395.814 321.239Z" fill="#07085B"/>
<path d="M275.406 181.618L267.458 178.534C267.261 178.457 267.161 178.232 267.238 178.034L267.298 177.88C267.374 177.68 267.598 177.581 267.796 177.659L275.742 180.742C275.941 180.819 276.039 181.042 275.962 181.242L275.902 181.397C275.827 181.595 275.604 181.695 275.406 181.618Z" fill="white"/>
<path d="M268.856 175.012L267.633 177.336C267.481 177.624 267.544 177.961 267.764 178.045L275.399 181.009C275.598 181.086 275.841 181.037 276.035 180.844C276.235 180.646 276.395 180.293 276.24 179.675C275.931 178.44 273.776 177.331 272.995 176.078L269.438 174.696C269.239 174.619 268.994 174.753 268.856 175.012Z" fill="#333333"/>
<path d="M271.911 177.281C271.869 177.225 271.885 177.125 271.944 177.066C272.222 176.79 273.003 176.16 273.893 176.697C273.943 176.729 273.952 176.816 273.914 176.888V176.89C273.875 176.96 273.807 176.988 273.758 176.958C272.96 176.481 272.287 177.043 272.056 177.274C272.009 177.325 271.946 177.327 271.911 177.281Z" fill="white"/>
<path d="M272.584 177.903C272.542 177.847 272.558 177.746 272.615 177.687C272.895 177.411 273.676 176.781 274.565 177.318C274.616 177.35 274.625 177.438 274.586 177.51L274.585 177.511C274.548 177.582 274.48 177.61 274.431 177.58C273.632 177.102 272.958 177.664 272.729 177.896C272.68 177.947 272.619 177.948 272.584 177.903Z" fill="white"/>
<path d="M273.208 178.482C273.166 178.426 273.182 178.324 273.241 178.266C273.519 177.99 274.3 177.36 275.19 177.897C275.242 177.927 275.251 178.015 275.212 178.089L275.211 178.09C275.174 178.161 275.106 178.189 275.055 178.159C274.256 177.682 273.583 178.243 273.355 178.475C273.306 178.524 273.243 178.527 273.208 178.482Z" fill="white"/>
<path d="M269.802 178.836L267.764 178.045C267.626 177.992 267.551 177.841 267.549 177.664C267.549 177.559 267.575 177.443 267.633 177.336L268.419 175.841C269.005 176.016 269.957 176.636 269.802 178.836Z" fill="#312B28"/>
<path d="M267.312 181.639L259.172 179.119C258.967 179.056 258.853 178.84 258.916 178.636L258.965 178.476C259.028 178.273 259.243 178.159 259.446 178.222L267.588 180.742C267.79 180.804 267.904 181.021 267.843 181.225L267.794 181.383C267.731 181.588 267.516 181.702 267.312 181.639Z" fill="white"/>
<path d="M260.321 175.509L259.261 177.912C259.131 178.208 259.217 178.542 259.441 178.61L267.264 181.032C267.467 181.095 267.707 181.03 267.887 180.823C268.072 180.612 268.208 180.249 268.011 179.644C267.614 178.433 265.388 177.478 264.523 176.281L260.879 175.153C260.676 175.089 260.44 175.24 260.321 175.509Z" fill="#333333"/>
<path d="M263.525 177.559C263.479 177.506 263.488 177.404 263.544 177.341C263.801 177.046 264.536 176.364 265.461 176.836C265.515 176.864 265.531 176.951 265.496 177.025V177.027C265.463 177.101 265.398 177.134 265.345 177.108C264.515 176.686 263.883 177.294 263.67 177.541C263.626 177.594 263.563 177.601 263.525 177.559Z" fill="white"/>
<path d="M264.239 178.131C264.192 178.078 264.203 177.976 264.257 177.913C264.515 177.618 265.251 176.936 266.176 177.409C266.228 177.436 266.244 177.524 266.211 177.597L266.209 177.601C266.177 177.673 266.111 177.706 266.059 177.68C265.23 177.259 264.596 177.866 264.384 178.115C264.339 178.168 264.278 178.175 264.239 178.131Z" fill="white"/>
<path d="M264.903 178.664C264.856 178.612 264.865 178.51 264.921 178.447C265.18 178.154 265.915 177.469 266.84 177.943C266.892 177.969 266.908 178.057 266.875 178.131L266.873 178.134C266.842 178.206 266.775 178.24 266.723 178.213C265.894 177.792 265.26 178.399 265.049 178.649C265.003 178.701 264.94 178.708 264.903 178.664Z" fill="white"/>
<path d="M259.261 177.911L259.942 176.365C259.942 176.365 259.942 176.365 259.944 176.365L259.261 177.911Z" fill="#3A989C"/>
<path d="M261.529 179.257L259.441 178.61C259.289 178.564 259.2 178.394 259.2 178.199C259.2 178.106 259.219 178.008 259.261 177.911L259.944 176.365C260.538 176.499 261.532 177.051 261.529 179.257Z" fill="#312B28"/>
</svg>
