<svg width="564" height="366" viewBox="0 0 564 366" fill="none" xmlns="http://www.w3.org/2000/svg">
<path d="M388.802 149.477C390.817 145.335 392.995 141.336 395.288 137.625C392.375 134.983 389.359 131.946 386.307 128.595C376.72 118.062 366.803 104.453 358.628 90.4558C354.069 94.1266 350.48 98.8907 348.757 104.559C341.066 129.866 365.561 146.145 388.802 149.477ZM407.743 116.01C407.664 113.275 407.622 110.394 407.668 107.947C403.813 107.233 400.635 104.379 399.233 100.113C398.735 98.6101 398.466 96.9328 398.464 95.112C398.464 94.8149 398.471 94.5133 398.485 94.2062C398.503 93.5234 398.578 92.8305 398.681 92.1093L397.679 85.4805C392.93 83.1058 387.734 81.9751 382.538 81.9751C379.82 81.9751 377.104 82.2841 374.448 82.8828L378.857 90.1724L407.743 116.01Z" fill="#F4F7FF"/>
<path d="M205.994 365.703H465.613C468.523 362.651 471.35 359.525 474.074 356.343C499.346 326.802 515.614 291.796 505.692 251.408C505.316 249.875 504.904 248.358 504.456 246.849C480.004 229.578 457.45 212.126 439.201 194.267L438.406 201.332L436.833 215.297C431.997 213.453 427.485 211.331 423.334 208.761C415.025 213.45 400.603 217.894 375.769 217.894C373.636 217.894 371.418 217.862 369.13 217.794L388.554 258.227L357.995 267.755L336.94 222.057C331.713 210.713 335.518 194.993 346.976 190.025C356.774 185.78 367.129 182.607 377.722 180.26C378.913 175.04 380.609 169.445 382.693 163.805C364.379 162.759 346.083 161.994 329.107 155.355C296.983 142.794 276.746 112.29 250.894 89.8069C224.078 66.4919 189.427 51.2252 153.784 49.5031C151.591 49.3952 149.392 49.3413 147.197 49.3413C113.716 49.3413 80.3435 61.6738 57.3384 84.7064C40.1165 101.937 29.0811 124.496 23.9331 148.101C15.2559 187.91 23.5026 231.508 47.4638 265.663C71.7157 300.22 109.792 323.414 148.561 341.61C159.662 346.814 170.894 351.7 182.229 356.343C190.111 359.571 198.029 362.679 205.994 365.703ZM298.819 189.959V217.691H257.83V189.959H298.819ZM175.714 189.585V215.577H162.809V189.585H96.0773V99.2043H239.866V189.585H175.714ZM440.622 182.857L447.981 180.974L449.436 179.993C446.77 178.503 444.049 177.113 441.275 175.826L440.503 182.689C440.542 182.742 440.584 182.804 440.622 182.857Z" fill="#F4F7FF"/>
<path d="M347.201 56.9727C347.294 57.3749 347.389 57.7771 347.473 58.161L347.491 58.1985C349.064 64.7505 350.449 69.2148 353.033 73.446L362.056 64.8721L357.122 55.5404L356.804 54.9508V54.9408L356.795 54.9225L356.729 54.9408L355.7 55.1565L347.201 56.9727Z" fill="#F9B384"/>
<path d="M345.517 50.0643C345.535 50.355 345.563 50.6448 345.601 50.9354C345.713 51.8248 345.891 52.7416 346.106 53.6401C346.247 54.2388 346.406 54.8385 346.574 55.4088C346.771 56.0926 346.987 56.7479 347.192 57.3467C347.248 57.4966 347.295 57.6465 347.342 57.7863C347.38 57.9179 347.426 58.0395 347.473 58.1611L347.491 58.1986C347.557 58.3768 347.614 58.545 347.679 58.7132L347.698 58.7699C347.744 58.9097 347.8 59.0413 347.848 59.172C348.175 60.0422 348.409 60.576 348.409 60.576C351.901 60.0048 354.437 58.1428 356.243 55.737C356.431 55.4939 356.608 55.2498 356.777 54.9975L356.805 54.9509V54.9408C359.126 51.4967 360.175 47.1914 360.652 43.962C360.661 43.9246 360.661 43.8962 360.67 43.8587C360.839 42.6887 360.932 41.6595 360.989 40.8826C361.045 40.0023 360.343 39.2628 359.463 39.2729L358.096 39.2912L356.599 36.7638L346.06 41.463C346.06 41.463 345.592 43.6622 345.47 46.6485C345.423 47.706 345.433 48.8669 345.517 50.0643Z" fill="#F9B384"/>
<path d="M352.237 51.4967L355.7 55.1566L356.805 54.9509V54.9408C359.126 51.4967 360.175 47.1914 360.652 43.962L357.975 44.5891C357.853 46.3487 356.393 49.9528 356.393 49.9528L352.237 51.4967Z" fill="#E28B6D"/>
<path d="M356.917 44.4767C358.012 45.3844 359.809 44.421 360.67 43.8588C360.839 42.6888 360.932 41.6596 360.989 40.8826C361.045 40.0024 360.343 39.2629 359.463 39.2729L358.096 39.2912C358.096 39.2912 355.559 43.3442 356.917 44.4767Z" fill="#E28B6D"/>
<path d="M351.463 51.4262C351.238 50.6776 351.247 49.4912 353.009 48.7188L350.702 48.8851L350.393 51.3842C350.393 51.3842 350.795 51.3138 351.463 51.4262ZM345.47 46.6484L345.928 46.5899L353.845 44.7719L356.39 49.9546L352.604 51.7142C353.765 52.1191 355.267 53.0386 356.777 54.9993C354.93 57.7543 352.253 59.9462 348.411 60.576C348.411 60.576 345.842 54.6584 345.517 50.0698C345.43 48.8641 345.428 47.7032 345.47 46.6484Z" fill="#F9B384"/>
<path d="M346.172 65.256C354.708 86.8964 370.928 111.7 386.307 128.595C391.951 134.791 397.474 139.92 402.463 143.449L410.691 122.23L411.72 119.572L409.137 117.26L408.669 116.839L378.857 90.1724L359.472 58.1327L346.172 65.256Z" fill="#1F3C88"/>
<path d="M389.848 331.469L409.274 332.255L412.33 345.859L394.105 348.71L389.848 331.469Z" fill="#F9B384"/>
<path d="M377.326 365.703L394.104 348.709L412.33 345.859L416.754 365.555L377.326 365.703Z" fill="#D3DFFF"/>
<path d="M404.514 353.466L413.523 351.711L413.344 350.792L404.335 352.547L404.514 353.466Z" fill="#708CD5"/>
<path d="M394.179 357.765L394.547 356.904L388.814 354.447L388.446 355.308L394.179 357.765Z" fill="#708CD5"/>
<path d="M390.552 361.041L390.92 360.18L385.187 357.723L384.819 358.584L390.552 361.041Z" fill="#708CD5"/>
<path d="M432.908 197.445L398.924 260.693L416.75 336.609L383.626 336.424L365.259 276.52C362.227 266.631 362.954 255.971 367.304 246.585L387.224 203.597L432.908 197.445Z" fill="#102048"/>
<path d="M437.301 183.707C459.231 212.966 488.098 229.431 520.268 239.782C519.623 238.622 519.08 237.452 518.687 236.282C517.479 232.725 517.61 229.084 520.268 225.321L521.251 215.138L462.114 171.445L447.981 180.974L437.301 183.707Z" fill="#A11C20"/>
<path d="M552.464 170.785C540.965 193.128 540.35 224.126 520.265 225.326L426.693 164.987L454.225 117.23L529.137 146.8L552.464 170.785Z" fill="#A11C20"/>
<path d="M518.243 234.702C518.057 233.853 517.955 232.999 517.954 232.137C517.953 229.908 518.632 227.64 520.265 225.326L520.222 225.298C502.61 216.396 481.674 202.289 459.389 186.07L459.195 185.946C476.313 203.267 494.365 219.467 514.358 233.338C515.643 233.796 516.938 234.253 518.243 234.702Z" fill="#8E191C"/>
<path d="M520.265 225.326C520.266 225.326 520.267 225.324 520.268 225.321C520.253 225.314 520.238 225.307 520.222 225.298L520.265 225.326ZM459.389 186.07C459.305 186.009 459.222 185.949 459.138 185.888C459.158 185.909 459.176 185.928 459.195 185.946L459.389 186.07Z" fill="#8E191C"/>
<path d="M434.84 173.743C455.868 210.542 491.29 227.196 537.351 240.77L523.489 249.938C518.949 252.942 513.029 252.861 508.568 249.741C479.6 229.47 453.064 208.969 432.869 187.872L434.84 173.743Z" fill="#E1272C"/>
<path d="M426.626 116.902C453.656 104.797 497.656 125.401 541.249 145.218C551.213 149.748 558.267 158.943 560.066 169.739L563.964 193.128C538.336 154.029 484.641 127.71 426.626 116.902Z" fill="#E1272C"/>
<path d="M407.799 117.765C407.92 121.837 408.089 125.253 408.051 125.909L423.71 128.333L432.686 121.762C428.418 116.886 426.434 105.756 423.963 96.1157L414.126 101.985L407.742 105.785C407.574 109.023 407.658 113.712 407.799 117.765Z" fill="#F9B384"/>
<path d="M407.799 117.765C412.488 114.948 418.563 110.652 421.333 100.927L414.126 101.985L407.742 105.785C407.574 109.023 407.658 113.712 407.799 117.765Z" fill="#E28B6D"/>
<path d="M398.485 94.2062C398.381 96.378 398.653 98.3625 399.233 100.113C402.314 109.482 413.957 112.047 422.55 100.056L423.271 81.5428L417.197 76.3098L397.445 83.9386L398.681 92.1094C398.578 92.8306 398.503 93.5234 398.485 94.2062Z" fill="#F9B384"/>
<path d="M376.396 187.259C379.463 166.232 393.262 134.908 407.938 121.71L414.838 135.51L394.797 192.023L376.396 187.259Z" fill="#067EED"/>
<path d="M386.254 187.259C390.903 165.768 397.205 143.232 407.938 121.71C413.359 127.954 429.294 115.797 429.294 115.797L437.509 122.859L415.824 196.677L386.254 187.259Z" fill="white"/>
<path d="M366.101 261.732L382.968 256.036L387.061 265.958L370.919 274.656L366.101 261.732Z" fill="#F9B384"/>
<path d="M361.063 295.902L370.919 274.656L387.061 265.958L394.357 283.636L361.063 295.902Z" fill="#D3DFFF"/>
<path d="M373.684 282.672L373.933 281.772L368.317 280.211L368.068 281.112L373.684 282.672Z" fill="#708CD5"/>
<path d="M371.657 286.884L371.907 285.984L366.291 284.423L366.041 285.324L371.657 286.884Z" fill="#708CD5"/>
<path d="M379.79 276.399L389.462 271.565L389.042 270.726L379.372 275.564L379.79 276.399Z" fill="#708CD5"/>
<path d="M415.386 174.993C392.141 176.657 368.243 180.807 346.976 190.025C335.518 194.993 331.712 210.713 336.94 222.057L357.995 267.755L388.553 258.227L369.13 217.794C427.832 219.546 434.259 197.981 434.259 197.981L415.386 174.993Z" fill="#1F3C88"/>
<path d="M404.214 188.789C411.87 202.502 423.036 210.036 436.833 215.297L438.405 201.332L441.288 175.704L445.725 136.205L442.767 122.202L429.299 115.8C414.51 131.403 409.717 166.269 404.214 188.789Z" fill="#067EED"/>
<path d="M421.908 91.7236C421.65 86.6597 420.247 83.9523 416.476 82.3847C409.315 88.9083 396.098 88.6743 389.488 82.6589C391.874 81.828 393.618 81.2174 395.338 79.4222C396.323 78.3929 396.819 77.7047 398.096 75.159C402.687 66.0047 419.829 65.3822 422.248 74.1947C432.856 79.3427 427.73 87.1487 426 91.8946L421.908 91.7236Z" fill="#102048"/>
<path d="M418.345 151.087L417.137 142.27L411.717 139.479C411.717 139.479 409.029 139.932 410.16 143.407C411.292 146.882 418.345 151.087 418.345 151.087Z" fill="#E28B6D"/>
<path d="M421.762 153.162L418.345 151.087L413.942 143.756L408.036 140.801C407.687 140.625 407.262 140.784 407.114 141.144C406.367 141.781 405.954 142.701 405.949 143.969C404.619 145.08 404.367 146.325 404.965 147.675C403.133 148.455 402.445 149.409 402.986 150.558C402.163 151.906 401.678 153.2 402.006 154.779L411.093 161.348L420.02 164.652L421.762 153.162Z" fill="#F9B384"/>
<path d="M438.406 201.332L439.201 194.267L440.503 182.689L441.289 175.704L418.89 166.447C422.588 181.535 428.952 193.338 438.406 201.332Z" fill="#066DCC"/>
<path d="M429.294 115.797L447.911 118.018C454.425 118.795 459.926 123.185 462.181 129.344C467.884 144.924 471.749 161.617 472.674 175.95C473.26 185.038 464.871 192.108 455.98 190.132C441.394 186.891 429.475 177.461 418.89 166.449L420.643 151.335L450.432 165.574L429.294 115.797Z" fill="#067EED"/>
<path d="M419.157 95.07C420.287 97.5362 422.134 99.2071 424.526 98.1093C426.917 97.0124 429.871 93.5115 428.337 90.1304C427.216 87.6615 423.815 87.5144 421.423 88.6113C419.031 89.7063 418.026 92.6057 419.157 95.07Z" fill="#F9B384"/>
<path d="M440.875 142.67C441.547 144.621 442.27 146.552 443.004 148.478C443.729 150.408 444.514 152.313 445.267 154.232L447.642 159.939C448.463 161.83 449.288 163.721 450.177 165.583L450.516 165.445C449.856 163.489 449.13 161.561 448.4 159.633L446.126 153.883C445.328 151.983 444.563 150.069 443.737 148.181C442.921 146.288 442.094 144.399 441.215 142.532L440.875 142.67Z" fill="#1F3C88"/>
<path d="M450.367 165.291C447.939 164.025 445.501 162.777 443.047 161.568C440.599 160.344 438.124 159.177 435.665 157.976L428.229 154.497C425.738 153.364 423.245 152.236 420.721 151.172L420.564 151.501C422.98 152.788 425.428 154.014 427.878 155.236L435.265 158.814C437.747 159.968 440.212 161.154 442.707 162.282C445.192 163.426 447.697 164.532 450.209 165.621L450.367 165.291Z" fill="#1F3C88"/>
<path d="M413.838 129.171C415.845 129.171 417.834 128.274 419.06 126.753L418.8 126.496C417.401 127.617 415.684 128.244 413.968 128.244C413.815 128.244 413.661 128.24 413.508 128.23C411.643 128.103 409.849 127.24 408.472 125.855L408.182 126.077C409.26 127.86 411.316 129.038 413.45 129.159C413.58 129.166 413.71 129.171 413.838 129.171Z" fill="#BBC4DB"/>
<path d="M404.938 172.114L405.179 171.838C404.002 170.664 402.955 169.379 402.068 167.994C401.192 166.606 400.432 165.141 399.886 163.592C399.316 162.057 398.915 160.456 398.701 158.828C398.469 157.202 398.434 155.545 398.555 153.885L398.192 153.832C397.823 155.491 397.745 157.215 397.886 158.919C398.043 160.62 398.426 162.305 399.016 163.915C399.631 165.511 400.408 167.053 401.414 168.438C402.408 169.828 403.587 171.084 404.938 172.114Z" fill="#BBC4DB"/>
<path d="M402.754 172.617L402.923 172.292C401.591 171.359 400.312 170.411 399.124 169.349C397.928 168.296 396.828 167.149 395.711 165.963L395.412 166.173C396.163 167.657 397.256 168.953 398.508 170.048C399.769 171.136 401.196 172.047 402.754 172.617Z" fill="#BBC4DB"/>
<path d="M422.481 93.5701C422.625 93.1322 422.819 92.7273 423.07 92.3699C423.328 92.0161 423.615 91.6889 423.973 91.4522C424.664 90.9394 425.533 90.7127 426.451 90.6944L426.501 90.4248C426.03 90.2429 425.503 90.2118 424.993 90.2913C424.485 90.3809 423.991 90.582 423.565 90.8882C423.152 91.209 422.79 91.6021 422.561 92.0655C422.325 92.5216 422.192 93.0317 422.21 93.5353L422.481 93.5701Z" fill="#E28B6D"/>
<path d="M411.888 87.5701C413.479 87.135 413.888 89.8983 413.645 90.9074C413.417 91.8525 412.648 92.1258 411.99 91.3681C411.385 90.6734 410.495 87.954 411.888 87.5701Z" fill="#102048"/>
<path d="M401.675 89.3297C401.88 88.4614 402.865 88.146 403.411 88.8453C403.65 89.1496 403.758 89.5518 403.818 89.9476C403.911 90.5518 404.075 91.305 403.868 91.9247C403.608 92.7017 402.898 93.0527 402.371 92.3159C401.861 91.5856 401.462 90.2474 401.675 89.3297Z" fill="#102048"/>
<path d="M407.199 90.624C407.215 91.3543 407.255 92.0883 407.235 92.7903C407.213 93.1367 407.199 93.4996 407.099 93.7336C406.997 93.9886 406.808 94.2418 406.571 94.5033C406.336 94.7656 406.07 95.049 405.84 95.4091C405.724 95.5846 405.637 95.793 405.567 96.0151C405.506 96.2418 405.472 96.5553 405.624 96.8387C405.775 97.1193 406.013 97.2555 406.2 97.3442C406.395 97.4356 406.581 97.4968 406.755 97.5526C407.115 97.6458 407.434 97.7473 407.721 97.9109L407.953 97.6559C407.68 97.335 407.304 97.155 406.986 96.9795C406.666 96.8341 406.323 96.633 406.318 96.5069C406.286 96.4246 406.37 96.1248 406.561 95.8753C406.731 95.6148 406.982 95.3698 407.23 95.0819C407.474 94.7912 407.752 94.4566 407.894 94.0124C408.038 93.5462 408.007 93.1578 407.979 92.7748C407.915 92.0088 407.765 91.2812 407.539 90.5627L407.199 90.624Z" fill="#102048"/>
<path d="M412.556 97.3231L406.062 100.482C407.174 102.647 412.146 102.413 412.556 97.3231Z" fill="white"/>
<path d="M399.785 100.169C401.508 100.169 402.903 98.7737 402.903 97.0516C402.903 95.3295 401.508 93.9255 399.785 93.9255C399.317 93.9255 398.878 94.0288 398.485 94.2062C398.471 94.5133 398.464 94.8149 398.464 95.112C398.466 96.9328 398.735 98.6101 399.233 100.113C399.412 100.15 399.599 100.169 399.785 100.169Z" fill="#FAA280"/>
<path d="M416.709 98.2198C418.096 98.2198 419.272 97.314 419.677 96.0617C419.49 95.751 419.315 95.4183 419.156 95.07C418.802 94.2976 418.657 93.4859 418.699 92.6971C418.159 92.2483 417.465 91.9786 416.709 91.9786C414.986 91.9786 413.59 93.3753 413.59 95.1002C413.59 96.8222 414.986 98.2198 416.709 98.2198Z" fill="#FAA280"/>
<path d="M419.677 96.0617C419.776 95.7601 419.829 95.4346 419.829 95.1001C419.829 94.1312 419.389 93.2683 418.699 92.697C418.657 93.4859 418.802 94.2975 419.156 95.0699C419.315 95.4182 419.49 95.7509 419.677 96.0617Z" fill="#FAA280"/>
<path d="M334.808 10.6773C337.034 8.73586 339.472 5.48728 341.966 1.90964C340.361 1.67107 338.997 1.28533 338.263 0.520264C336.517 4.27066 334.668 6.61523 331.907 9.61519C333.032 9.24316 333.751 10.3218 334.808 10.6773Z" fill="#C6EAE9"/>
<path d="M464.461 92.6641C466.465 90.9137 468.662 87.9887 470.908 84.7694C469.463 84.5518 468.233 84.2054 467.571 83.5171C465.999 86.8936 464.336 89.0042 461.848 91.7071C462.863 91.3726 463.51 92.3433 464.461 92.6641Z" fill="#FBD682"/>
<path d="M427.903 65.0504C427.026 63.0403 425.392 60.6885 423.567 58.2498C423.209 59.4828 422.797 60.5084 422.24 60.9855C424.269 62.8575 425.436 64.6244 426.879 67.1984C426.804 66.2597 427.548 65.8365 427.903 65.0504Z" fill="#FBD682"/>
<path d="M335.595 134.349C334.621 132.114 332.806 129.503 330.779 126.795C330.384 128.167 329.926 129.304 329.305 129.835C331.558 131.913 332.855 133.874 334.458 136.734C334.374 135.69 335.202 135.219 335.595 134.349Z" fill="#EE6F57"/>
<path d="M291.718 11.4643C290.744 9.2294 288.928 6.61792 286.902 3.91321C286.504 5.28156 286.048 6.41865 285.428 6.94972C287.681 9.0283 288.977 10.989 290.581 13.8482C290.497 12.807 291.325 12.3372 291.718 11.4643Z" fill="#708CD5"/>
<path d="M502.686 82.6186C503.562 80.6085 505.196 78.2567 507.022 75.8188C507.379 77.0519 507.791 78.0766 508.349 78.5565C506.32 80.4257 505.152 82.1926 503.709 84.7666C503.784 83.8288 503.04 83.4046 502.686 82.6186Z" fill="#708CD5"/>
<path d="M391.661 48.0286C392.635 45.7965 394.448 43.185 396.478 40.4775C396.872 41.8468 397.329 42.9857 397.949 43.5177C395.695 45.5954 394.399 47.556 392.798 50.4134C392.881 49.3723 392.054 48.9015 391.661 48.0286Z" fill="#D3DFFF"/>
<path d="M304.915 47.0488C307.702 47.7179 311.596 48.0149 315.769 48.216C314.992 47.0927 314.465 46.068 314.599 45.3002C310.742 45.6448 307.88 45.3733 303.979 44.7737C304.931 45.3523 304.552 46.2344 304.915 47.0488Z" fill="#F5C7BE"/>
<path d="M471.957 26.3699C469.447 27.2895 465.941 27.699 462.183 27.9778C462.884 26.4284 463.359 25.0171 463.238 23.955C466.71 24.4303 469.287 24.0582 472.801 23.2319C471.942 24.0272 472.285 25.2438 471.957 26.3699Z" fill="#C6EAE9"/>
<path d="M386.349 14.6069C389.171 16.2797 393.269 17.5712 397.687 18.765C397.125 16.7641 396.809 14.9744 397.139 13.7413C392.927 13.5091 389.93 12.4753 385.898 10.6847C386.777 11.8291 386.157 13.1956 386.349 14.6069Z" fill="#EE6F57"/>
<path d="M328.42 91.7583C326.309 93.1742 323.897 95.6924 321.405 98.4913C322.772 98.8935 323.921 99.3944 324.487 100.146C326.345 97.1056 328.165 95.2994 330.835 93.0316C329.824 93.2162 329.303 92.1961 328.42 91.7583Z" fill="#C6EAE9"/>
<path d="M364.664 93.9722C362.557 95.3853 360.142 97.9063 357.652 100.704C359.018 101.107 360.167 101.605 360.734 102.357C362.591 99.3194 364.409 97.5105 367.082 95.2455C366.071 95.4301 365.549 94.4073 364.664 93.9722Z" fill="#FBD682"/>
<path d="M456.98 50.6428C454.606 52.236 451.888 55.0724 449.083 58.2222C450.624 58.6756 451.915 59.2378 452.552 60.0824C454.645 56.661 456.693 54.6272 459.7 52.077C458.561 52.2854 457.974 51.1337 456.98 50.6428Z" fill="#F5C7BE"/>
<path d="M303.357 78.1004C301.604 76.4761 299.793 73.6352 297.968 70.4862C299.398 70.0978 300.631 69.5941 301.351 68.7943C302.505 72.1828 303.888 74.2229 306.008 76.797C305.056 76.5584 304.318 77.6553 303.357 78.1004Z" fill="#F5C7BE"/>
<path d="M243.46 73.1187C242.582 71.106 240.947 68.7541 239.122 66.3163C238.766 67.5493 238.354 68.574 237.797 69.0539C239.824 70.9231 240.994 72.69 242.435 75.264C242.36 74.3253 243.104 73.9021 243.46 73.1187Z" fill="#EE6F57"/>
<path d="M265.095 36.4036C265.823 39.3003 267.482 42.8596 269.372 46.5854C270.105 45.0571 270.866 43.8194 271.703 43.3423C269.424 40.3094 268.259 37.6531 266.902 33.8534C266.801 35.1121 265.73 35.4658 265.095 36.4036Z" fill="#D3DFFF"/>
<path d="M287.273 99.1019C286.741 101.224 285.526 103.829 284.141 106.557C283.604 105.438 283.046 104.531 282.433 104.182C284.103 101.961 284.957 100.017 285.952 97.2345C286.024 98.1568 286.811 98.4136 287.273 99.1019Z" fill="#D3DFFF"/>
<path d="M221.339 31.5929C223.715 33.1843 226.432 36.0224 229.237 39.1723C227.698 39.6257 226.406 40.1878 225.767 41.0324C223.675 37.6111 221.627 35.5773 218.621 33.0271C219.758 33.2355 220.347 32.0837 221.339 31.5929Z" fill="#FBD682"/>
<path d="M0.485535 365.703H536.829V364.767H0.485535V365.703Z" fill="#102048"/>
<path d="M71.0722 217.531H102.992C102.992 217.531 100.273 204.738 87.0336 204.738C72.6517 204.738 71.0722 217.531 71.0722 217.531Z" fill="#D3DFFF"/>
<path d="M87.7329 217.691L92.4878 205.848L91.6194 205.499L86.8645 217.342L87.7329 217.691Z" fill="#102048"/>
<path d="M175.714 215.577H162.809V181.122H175.714V215.577Z" fill="#F5C7BE"/>
<path d="M175.714 197.309H162.809V189.585H175.714V197.309Z" fill="#F19280"/>
<path d="M144.928 217.482H193.594V216.778C193.594 212.594 190.201 209.201 186.018 209.201H152.506C148.321 209.201 144.928 212.594 144.928 216.778V217.482Z" fill="#EE6F57"/>
<path d="M239.866 189.585H96.0773V99.2043H239.866V189.585Z" fill="#F5C7BE"/>
<path d="M235.398 182.469H100.544V103.616H235.398V182.469Z" fill="white"/>
<path d="M166.909 171.611H172.01V159.041H166.909V171.611Z" fill="#D3DFFF"/>
<path d="M157.844 171.611H162.943V155.755H157.844V171.611Z" fill="#D3DFFF"/>
<path d="M148.778 171.611H153.878V148.097H148.778V171.611Z" fill="#D3DFFF"/>
<path d="M139.711 171.611H144.811V144.27H139.711V171.611Z" fill="#D3DFFF"/>
<path d="M130.646 171.611H135.745V150.554H130.646V171.611Z" fill="#D3DFFF"/>
<path d="M121.579 171.611H126.68V143.25H121.579V171.611Z" fill="#D3DFFF"/>
<path d="M112.513 171.611H117.612V136.467H112.513V171.611Z" fill="#D3DFFF"/>
<path d="M170.063 150.657L170.206 149.732L161.08 148.328L151.762 137.337L142.354 136.844L133.218 142.464L125.369 135.77L113.255 121.987L112.553 122.604L124.714 136.434L133.129 143.618L142.594 137.793L151.309 138.252L160.591 149.201L170.063 150.657Z" fill="#D3DFFF"/>
<path d="M186.261 118.467H223.429V115.943H186.261V118.467Z" fill="#D3DFFF"/>
<path d="M190.957 124.416H223.429V121.891H190.957V124.416Z" fill="#D3DFFF"/>
<path d="M223.429 130.362H188.35V127.837H223.429V130.362Z" fill="#E5ECFF"/>
<path d="M223.429 136.308H191.983V133.783H223.429V136.308Z" fill="#E5ECFF"/>
<path d="M223.429 142.256H201.354V139.732H223.429V142.256Z" fill="#E5ECFF"/>
<path d="M186.097 171.611H223.429V147.825H186.097V171.611Z" fill="#D3DFFF"/>
<path d="M298.412 217.284H258.239V190.366H298.412V217.284Z" fill="white"/>
<path d="M298.005 216.876H258.646V190.773H298.005V216.876ZM257.83 217.691H298.819V189.959H257.83V217.691Z" fill="#102048"/>
<path d="M298.005 201.666H258.672V190.773H298.005V201.666Z" fill="#E5ECFF"/>
<path d="M298.006 201.666H298.052V190.366H258.673V190.773H298.006V201.666Z" fill="#8593B6"/>
<path d="M253.402 196.38H303.25V185.63H253.402V196.38Z" fill="white"/>
<path d="M302.842 195.971H253.81V186.037H302.842V195.971ZM252.995 196.788H303.656V185.223H252.995V196.788Z" fill="#102048"/>
<path d="M53.4803 227.673H317.369V217.56H53.4803V227.673Z" fill="#D3DFFF"/>
<path d="M53.0165 365.532H53.9525V217.698H316.936V365.532H317.872V216.762H53.0165V365.532Z" fill="#102048"/>
<path d="M220.79 365.141L226.19 292.971L225.257 292.903L219.856 365.07L220.79 365.141Z" fill="#102048"/>
<path d="M275.749 365.546L276.62 365.209L246.806 288.258L245.935 288.597L275.749 365.546Z" fill="#102048"/>
<path d="M172.751 365.675L202.615 288.597L201.742 288.258L171.879 365.335L172.751 365.675Z" fill="#102048"/>
<path d="M161.464 282.541L225.744 271.44L236.639 289.908L196.693 294.068L161.356 284.701C160.144 284.381 160.226 282.756 161.464 282.541Z" fill="#89A6A5"/>
<path d="M161.53 284.787C172.883 292.643 201.419 303.108 227.593 303.774C250.216 304.35 271.732 293.249 276.659 266.637C280.282 247.079 283.295 225.415 282.917 214.452C282.818 211.616 280.415 209.407 277.579 209.48L250.913 210.153C242.809 210.36 235.382 214.658 231.124 221.552C216.688 244.917 217.448 300.912 161.53 284.787Z" fill="#C6EAE9"/>
<path d="M83.795 365.274H128.479V267.45H83.795V365.274Z" fill="white"/>
<path d="M128.051 364.846H84.2229V267.879H128.051V364.846ZM83.3664 365.703H128.908V267.022H83.3664V365.703Z" fill="#102048"/>
<path d="M100.755 287.907C100.755 290.881 103.165 293.289 106.137 293.289C109.109 293.289 111.519 290.881 111.519 287.907C111.519 284.935 109.109 282.525 106.137 282.525C103.165 282.525 100.755 284.935 100.755 287.907Z" fill="#FBD682"/>
<path d="M97.9464 351.789H114.326V312.009H97.9464V351.789Z" fill="#FBD682"/>
</svg>
