<svg xmlns="http://www.w3.org/2000/svg" width="23.9" height="23.9" viewBox="0 0 23.9 23.9">
    <defs>
        <style>
            .cls-1{fill:#363636}
        </style>
    </defs>
    <g id="quality" transform="translate(-.001)">
        <g id="Group_96" data-name="Group 96" transform="translate(.001 4.295)">
            <g id="Group_95" data-name="Group 95">
                <path id="Path_234" d="M22.5 101.1a2.1 2.1 0 0 0-2.1-2.1h-3.12a17.03 17.03 0 0 0 .766-3.227A3.287 3.287 0 0 0 14.8 92a.7.7 0 0 0-.7.7c0 1.692-.972 4.245-2.107 4.814A30.65 30.65 0 0 1 7.7 99h-7a.7.7 0 0 0-.7.7v9.8a.7.7 0 0 0 .7.7h2.1v.7a.7.7 0 0 0 .7.7h2.9a2.1 2.1 0 0 0 1.92-1.249l4.913 1.228a.7.7 0 0 0 .17.021h4.2a2.1 2.1 0 0 0 1.953-2.874 2.1 2.1 0 0 0 1.4-2.8 2.1 2.1 0 0 0 1.012-3.427 2.092 2.092 0 0 0 .532-1.399zm-19.7 7.7H1.4v-8.4h1.4zm4.295.7a.7.7 0 0 1-.7.7H4.2v-9.8h2.9zm9.1-6.3h4.2a.7.7 0 0 1 0 1.4H16.2a.7.7 0 1 0 0 1.4H19a.7.7 0 1 1 0 1.4h-2.8a.7.7 0 1 0 0 1.4h1.4a.7.7 0 0 1 0 1.4h-4.116L8.5 108.958v-8.725a28.7 28.7 0 0 0 4.123-1.467c1.608-.806 2.593-3.356 2.826-5.251a1.888 1.888 0 0 1 1.217 2.054 11.319 11.319 0 0 1-1.089 3.82.7.7 0 0 0 .623 1.011h4.2a.7.7 0 1 1 0 1.4h-4.2a.7.7 0 1 0 0 1.4z" class="cls-1" data-name="Path 234" transform="translate(-.001 -92)"/>
            </g>
        </g>
        <g id="Group_98" data-name="Group 98" transform="translate(14.798)">
            <g id="Group_97" data-name="Group 97">
                <path id="Path_235" d="M317.7 0a.7.7 0 0 0-.7.7v1.494a.7.7 0 1 0 1.4 0V.7a.7.7 0 0 0-.7-.7z" class="cls-1" data-name="Path 235" transform="translate(-317)"/>
            </g>
        </g>
        <g id="Group_100" data-name="Group 100" transform="translate(9.352 2.349)">
            <g id="Group_99" data-name="Group 99">
                <path id="Path_236" d="M202.513 51.523l-.99-.99a.7.7 0 0 0-.99.99l.99.99a.7.7 0 1 0 .99-.99z" class="cls-1" data-name="Path 236" transform="translate(-200.327 -50.327)"/>
            </g>
        </g>
        <g id="Group_102" data-name="Group 102" transform="translate(7.096 7.796)">
            <g id="Group_101" data-name="Group 101">
                <path id="Path_237" d="M154.1 167h-1.4a.7.7 0 1 0 0 1.4h1.4a.7.7 0 0 0 0-1.4z" class="cls-1" data-name="Path 237" transform="translate(-151.999 -167)"/>
            </g>
        </g>
        <g id="Group_104" data-name="Group 104" transform="translate(21.1 7.796)">
            <g id="Group_103" data-name="Group 103">
                <path id="Path_238" d="M454.1 167h-1.4a.7.7 0 0 0 0 1.4h1.4a.7.7 0 0 0 0-1.4z" class="cls-1" data-name="Path 238" transform="translate(-452 -167)"/>
            </g>
        </g>
        <g id="Group_106" data-name="Group 106" transform="translate(19.254 2.349)">
            <g id="Group_105" data-name="Group 105">
                <path id="Path_239" d="M414.645 50.533a.7.7 0 0 0-.99 0l-.99.99a.7.7 0 0 0 .99.99l.99-.99a.7.7 0 0 0 0-.99z" class="cls-1" data-name="Path 239" transform="translate(-412.459 -50.327)"/>
            </g>
        </g>
    </g>
</svg>
