<svg width="63" height="48" viewBox="0 0 63 48" fill="none" xmlns="http://www.w3.org/2000/svg">
<circle cx="50" cy="23" r="4" fill="#30D7CE"/>
<path d="M17.632 11.6V15.44H11.072V34H7.232V15.44H0.64V11.6H7.232H11.072H17.632ZM37.4815 30.992C36.4148 32.0587 35.1775 32.9013 33.7695 33.52C32.3615 34.1173 30.8468 34.416 29.2255 34.416C27.6255 34.416 26.1108 34.1173 24.6815 33.52C23.2735 32.9013 22.0362 32.0693 20.9695 31.024C19.9242 29.9573 19.0922 28.72 18.4735 27.312C17.8762 25.8827 17.5775 24.368 17.5775 22.768C17.5775 21.168 17.8762 19.664 18.4735 18.256C19.0922 16.8267 19.9242 15.5893 20.9695 14.544C22.0362 13.4773 23.2735 12.6453 24.6815 12.048C26.1108 11.4293 27.6255 11.12 29.2255 11.12C30.8468 11.12 32.3615 11.4293 33.7695 12.048C35.1775 12.6453 36.4148 13.4773 37.4815 14.544L34.7615 17.264C34.0148 16.5173 33.1722 15.952 32.2335 15.568C31.2948 15.1627 30.2922 14.96 29.2255 14.96C28.1802 14.96 27.1882 15.1627 26.2495 15.568C25.3108 15.952 24.4682 16.5173 23.7215 17.264C22.9748 18.0107 22.3988 18.8533 21.9935 19.792C21.6095 20.7307 21.4175 21.7227 21.4175 22.768C21.4175 23.8133 21.6095 24.816 21.9935 25.776C22.3988 26.7147 22.9748 27.5573 23.7215 28.304C24.4682 29.0507 25.3108 29.616 26.2495 30C27.1882 30.384 28.1802 30.576 29.2255 30.576C30.2922 30.576 31.2948 30.384 32.2335 30C33.1722 29.616 34.0148 29.0507 34.7615 28.304L37.4815 30.992Z" fill="white"/>
<path d="M50.2605 14.96C49.2152 14.96 48.2232 15.1627 47.2845 15.568C46.3458 15.952 45.5032 16.5173 44.7565 17.264C44.0098 18.0107 43.4338 18.8533 43.0285 19.792C42.6445 20.7307 42.4525 21.7227 42.4525 22.768C42.4525 23.8133 42.6445 24.816 43.0285 25.776C43.4338 26.7147 44.0098 27.5573 44.7565 28.304C45.5032 29.0507 46.3458 29.616 47.2845 30C48.2232 30.384 49.2152 30.576 50.2605 30.576C51.3058 30.576 52.2978 30.384 53.2365 30C54.1965 29.616 55.0498 29.0507 55.7965 28.304C56.5432 27.5573 57.1085 26.7147 57.4925 25.776C57.8765 24.816 58.0685 23.8133 58.0685 22.768C58.0685 21.7227 57.8765 20.7307 57.4925 19.792C57.1085 18.8533 56.5432 18.0107 55.7965 17.264C55.0498 16.5173 54.1965 15.952 53.2365 15.568C52.2978 15.1627 51.3058 14.96 50.2605 14.96ZM50.2605 11.12C51.8605 11.12 53.3645 11.4293 54.7725 12.048C56.2018 12.6453 57.4392 13.4773 58.4845 14.544C59.5512 15.5893 60.3832 16.8267 60.9805 18.256C61.5992 19.664 61.9085 21.168 61.9085 22.768C61.9085 24.368 61.5992 25.8827 60.9805 27.312C60.3832 28.72 59.5512 29.9573 58.4845 31.024C57.4392 32.0693 56.2018 32.9013 54.7725 33.52C53.3645 34.1173 51.8605 34.416 50.2605 34.416C48.6605 34.416 47.1458 34.1173 45.7165 33.52C44.3085 32.9013 43.0712 32.0693 42.0045 31.024C40.9592 29.9573 40.1272 28.72 39.5085 27.312C38.9112 25.8827 38.6125 24.368 38.6125 22.768C38.6125 21.168 38.9112 19.664 39.5085 18.256C40.1272 16.8267 40.9592 15.5893 42.0045 14.544C43.0712 13.4773 44.3085 12.6453 45.7165 12.048C47.1458 11.4293 48.6605 11.12 50.2605 11.12Z" fill="#30D7CE"/>
</svg>
