<svg width="499" height="262" viewBox="0 0 499 262" fill="none" xmlns="http://www.w3.org/2000/svg">
<path opacity="0.1" d="M30.8921 261.384C30.8921 261.384 -27.1732 199.108 21.0636 131.693C63.8659 71.8814 113.779 75.9626 150.395 100.238C165.986 110.575 210.947 101.508 249.22 40.6378C301.408 -42.3706 482.31 7.96961 449.337 135.678C433.38 197.472 497.92 199.724 465.024 261.499L30.8921 261.384Z" fill="#EBF3FA"/>
<path d="M305.34 194.95L309.792 195.682C310.139 195.74 310.466 195.894 310.717 196.105C310.967 196.317 311.16 196.606 311.237 196.914C311.256 197.01 311.276 197.106 311.276 197.203C311.276 197.299 311.276 197.376 311.256 197.472L301.004 259.517C300.869 260.325 300.04 260.864 299.135 260.749C299.096 260.749 299.077 260.749 299.038 260.729L294.586 259.998C294.548 259.998 294.529 259.979 294.49 259.979C293.584 259.786 292.968 259.016 293.102 258.208L303.355 196.163C303.374 196.067 303.394 195.99 303.432 195.894C303.471 195.797 303.509 195.72 303.567 195.624C303.74 195.354 304.01 195.143 304.319 195.027C304.627 194.931 304.974 194.892 305.34 194.95Z" fill="#FFB93E"/>
<path d="M306.477 226.425L300.984 259.651C300.868 260.364 300.04 260.826 299.134 260.729C299.095 260.729 299.076 260.729 299.038 260.71L294.586 259.979C294.547 259.979 294.528 259.959 294.49 259.959C293.584 259.767 292.967 259.074 293.083 258.361L297.901 229.216C300.31 229.139 303.701 228.581 306.477 226.425Z" fill="#FFA412"/>
<path d="M302.373 202.235L302.257 202.938L310.147 204.24L310.264 203.538L302.373 202.235Z" fill="#FFA412"/>
<path d="M301.976 204.602L301.86 205.305L309.752 206.604L309.868 205.901L301.976 204.602Z" fill="#FFA412"/>
<path d="M301.504 207.494L301.388 208.197L309.278 209.498L309.394 208.795L301.504 207.494Z" fill="#FFA412"/>
<path d="M300.789 211.856L300.673 212.559L308.565 213.859L308.681 213.157L300.789 211.856Z" fill="#FFA412"/>
<path d="M300.019 216.473L299.903 217.176L307.794 218.477L307.91 217.774L300.019 216.473Z" fill="#FFA412"/>
<path d="M298.834 223.601L298.718 224.303L306.609 225.602L306.725 224.9L298.834 223.601Z" fill="#FFA412"/>
<path d="M297.744 230.273L297.627 230.976L305.518 232.279L305.634 231.576L297.744 230.273Z" fill="#FFA412"/>
<path d="M296.766 236.196L296.65 236.899L304.542 238.2L304.658 237.497L296.766 236.196Z" fill="#FFA412"/>
<path d="M302.738 199.957L302.622 200.66L310.513 201.959L310.629 201.256L302.738 199.957Z" fill="#FFA412"/>
<path d="M302.987 198.438L302.871 199.141L310.762 200.441L310.879 199.739L302.987 198.438Z" fill="#FFA412"/>
<path d="M303.232 196.994L303.116 197.697L311.008 198.996L311.124 198.293L303.232 196.994Z" fill="#FFA412"/>
<path d="M303.297 196.625L311.179 197.915L311.256 197.472C311.275 197.376 311.275 197.299 311.275 197.202L303.451 195.913C303.412 195.99 303.393 196.086 303.374 196.182L303.297 196.625Z" fill="#FFA412"/>
<path d="M303.566 195.662L311.217 196.914C311.14 196.606 310.947 196.317 310.697 196.105L304.318 195.066C304.01 195.181 303.74 195.393 303.566 195.662Z" fill="#FFA412"/>
<path d="M313.414 194.95L317.866 195.682C318.213 195.74 318.541 195.894 318.791 196.105C319.042 196.317 319.234 196.606 319.312 196.914C319.331 197.01 319.35 197.106 319.35 197.203C319.35 197.299 319.35 197.376 319.331 197.472L309.078 259.517C308.943 260.325 308.115 260.864 307.209 260.749C307.17 260.749 307.151 260.749 307.113 260.729L302.661 259.998C302.622 259.998 302.603 259.979 302.564 259.979C301.659 259.786 301.061 259.016 301.177 258.208L311.429 196.163C311.449 196.067 311.468 195.99 311.506 195.894C311.545 195.797 311.584 195.72 311.641 195.624C311.815 195.354 312.085 195.143 312.393 195.027C312.721 194.931 313.067 194.892 313.414 194.95Z" fill="#FFB93E"/>
<path d="M314.551 226.425L309.059 259.651C308.943 260.364 308.115 260.826 307.209 260.729C307.17 260.729 307.151 260.729 307.112 260.71L302.661 259.979C302.622 259.979 302.603 259.959 302.564 259.959C301.659 259.767 301.042 259.074 301.157 258.361L305.975 229.216C308.384 229.139 311.776 228.581 314.551 226.425Z" fill="#FFA412"/>
<path d="M310.453 202.24L310.336 202.942L318.227 204.245L318.343 203.543L310.453 202.24Z" fill="#FFA412"/>
<path d="M310.062 204.614L309.946 205.317L317.838 206.616L317.954 205.913L310.062 204.614Z" fill="#FFA412"/>
<path d="M309.583 207.499L309.467 208.202L317.357 209.503L317.474 208.801L309.583 207.499Z" fill="#FFA412"/>
<path d="M308.864 211.835L308.748 212.537L316.639 213.838L316.755 213.135L308.864 211.835Z" fill="#FFA412"/>
<path d="M308.098 216.478L307.981 217.181L315.873 218.481L315.989 217.778L308.098 216.478Z" fill="#FFA412"/>
<path d="M306.912 223.63L306.796 224.333L314.686 225.634L314.803 224.932L306.912 223.63Z" fill="#FFA412"/>
<path d="M305.816 230.245L305.7 230.948L313.592 232.249L313.708 231.546L305.816 230.245Z" fill="#FFA412"/>
<path d="M304.838 236.193L304.722 236.896L312.613 238.197L312.73 237.494L304.838 236.193Z" fill="#FFA412"/>
<path d="M310.821 199.967L310.705 200.67L318.595 201.971L318.711 201.269L310.821 199.967Z" fill="#FFA412"/>
<path d="M311.08 198.45L310.964 199.153L318.855 200.452L318.971 199.749L311.08 198.45Z" fill="#FFA412"/>
<path d="M311.311 196.999L311.195 197.702L319.086 199.001L319.202 198.298L311.311 196.999Z" fill="#FFA412"/>
<path d="M311.371 196.625L319.253 197.915L319.33 197.472C319.35 197.376 319.35 197.299 319.35 197.202L311.525 195.913C311.487 195.99 311.467 196.086 311.448 196.182L311.371 196.625Z" fill="#FFA412"/>
<path d="M311.66 195.662L319.311 196.914C319.234 196.606 319.041 196.317 318.791 196.105L312.412 195.066C312.103 195.181 311.834 195.393 311.66 195.662Z" fill="#FFA412"/>
<path d="M283.871 254.511V259.016C283.871 259.382 283.774 259.709 283.601 259.979C283.428 260.267 283.177 260.498 282.888 260.633C282.792 260.672 282.714 260.71 282.618 260.729C282.522 260.749 282.445 260.749 282.348 260.749L219.407 260.595C218.598 260.595 217.923 259.863 217.885 258.939C217.885 258.9 217.885 258.881 217.885 258.843V254.338C217.885 254.3 217.885 254.28 217.885 254.242C217.923 253.337 218.598 252.586 219.407 252.606L282.348 252.76C282.445 252.76 282.522 252.779 282.618 252.779C282.714 252.798 282.811 252.837 282.888 252.875C283.177 253.01 283.428 253.241 283.601 253.53C283.774 253.818 283.871 254.146 283.871 254.511Z" fill="#FFB93E"/>
<path d="M252.94 260.691L219.215 260.614C218.482 260.614 217.904 259.882 217.866 258.958C217.866 258.92 217.866 258.901 217.866 258.862V254.357C217.866 254.319 217.866 254.3 217.866 254.261C217.904 253.356 218.502 252.606 219.234 252.625L248.816 252.702C249.278 255.05 250.377 258.304 252.94 260.691Z" fill="#FFA412"/>
<path d="M275.506 252.752L275.487 260.741L276.2 260.743L276.219 252.754L275.506 252.752Z" fill="#FFA412"/>
<path d="M273.07 252.734L273.051 260.723L273.764 260.724L273.783 252.735L273.07 252.734Z" fill="#FFA412"/>
<path d="M270.175 252.733L270.154 260.722L270.867 260.724L270.888 252.735L270.175 252.733Z" fill="#FFA412"/>
<path d="M265.714 252.723L265.695 260.712L266.408 260.714L266.427 252.725L265.714 252.723Z" fill="#FFA412"/>
<path d="M261.018 252.707L260.999 260.696L261.712 260.698L261.731 252.709L261.018 252.707Z" fill="#FFA412"/>
<path d="M253.8 252.701L253.781 260.69L254.494 260.692L254.513 252.703L253.8 252.701Z" fill="#FFA412"/>
<path d="M247.041 252.675L247.022 260.664L247.735 260.665L247.754 252.676L247.041 252.675Z" fill="#FFA412"/>
<path d="M241.004 252.659L240.983 260.648L241.696 260.65L241.717 252.661L241.004 252.659Z" fill="#FFA412"/>
<path d="M277.805 252.75L277.786 260.739L278.499 260.741L278.518 252.752L277.805 252.75Z" fill="#FFA412"/>
<path d="M279.323 252.754L279.306 260.743L280.019 260.745L280.036 252.756L279.323 252.754Z" fill="#FFA412"/>
<path d="M280.791 252.763L280.772 260.752L281.485 260.754L281.504 252.765L280.791 252.763Z" fill="#FFA412"/>
<path d="M281.905 252.779L281.886 260.768H282.329C282.425 260.768 282.502 260.768 282.599 260.749L282.618 252.818C282.522 252.798 282.445 252.798 282.348 252.798L281.905 252.779Z" fill="#FFA412"/>
<path d="M282.888 252.895L282.869 260.653C283.158 260.518 283.408 260.287 283.582 259.998L283.601 253.549C283.427 253.241 283.177 253.01 282.888 252.895Z" fill="#FFA412"/>
<path d="M277.145 246.503V251.008C277.145 251.373 277.049 251.701 276.875 251.97C276.702 252.259 276.451 252.49 276.162 252.625C276.066 252.663 275.989 252.702 275.893 252.721C275.796 252.74 275.719 252.74 275.623 252.74L212.682 252.586C211.872 252.586 211.198 251.855 211.159 250.931C211.159 250.892 211.159 250.873 211.159 250.834V246.33C211.159 246.291 211.159 246.272 211.159 246.234C211.198 245.31 211.872 244.578 212.682 244.597L275.623 244.751C275.661 244.751 275.7 244.751 275.738 244.751C275.758 244.751 275.777 244.751 275.796 244.751C275.815 244.751 275.835 244.751 275.854 244.751C275.873 244.751 275.873 244.751 275.893 244.751C275.989 244.771 276.085 244.809 276.162 244.848C276.182 244.848 276.182 244.867 276.201 244.867C276.22 244.867 276.22 244.886 276.239 244.886C276.259 244.905 276.297 244.905 276.317 244.925C276.336 244.925 276.355 244.944 276.355 244.944C276.374 244.944 276.374 244.963 276.394 244.963C276.413 244.982 276.432 245.002 276.471 245.021C276.49 245.04 276.529 245.059 276.548 245.079C276.567 245.098 276.586 245.117 276.606 245.136C276.625 245.156 276.625 245.156 276.644 245.175C276.683 245.213 276.721 245.252 276.76 245.31C276.779 245.329 276.779 245.329 276.798 245.348C276.818 245.367 276.818 245.367 276.837 245.387C276.856 245.406 276.875 245.444 276.895 245.483C277.049 245.81 277.145 246.157 277.145 246.503Z" fill="#FFB93E"/>
<path d="M246.233 252.683L212.508 252.606C211.776 252.606 211.198 251.874 211.159 250.95C211.159 250.912 211.159 250.892 211.159 250.854V246.349C211.159 246.311 211.159 246.291 211.159 246.253C211.198 245.329 211.795 244.597 212.527 244.617L242.109 244.694C242.129 244.751 242.129 244.828 242.148 244.886C242.63 247.215 243.747 250.353 246.233 252.683Z" fill="#FFA412"/>
<path d="M268.782 244.743L268.763 252.732L269.476 252.734L269.495 244.745L268.782 244.743Z" fill="#FFA412"/>
<path d="M266.366 244.744L266.347 252.733L267.06 252.735L267.079 244.746L266.366 244.744Z" fill="#FFA412"/>
<path d="M263.45 244.743L263.431 252.732L264.144 252.734L264.163 244.745L263.45 244.743Z" fill="#FFA412"/>
<path d="M259.009 244.733L258.99 252.722L259.703 252.724L259.722 244.735L259.009 244.733Z" fill="#FFA412"/>
<path d="M254.294 244.718L254.277 252.707L254.99 252.709L255.007 244.72L254.294 244.718Z" fill="#FFA412"/>
<path d="M247.078 244.692L247.057 252.681L247.77 252.683L247.791 244.694L247.078 244.692Z" fill="#FFA412"/>
<path d="M240.337 244.685L240.318 252.674L241.031 252.676L241.05 244.687L240.337 244.685Z" fill="#FFA412"/>
<path d="M234.298 244.67L234.281 252.659L234.994 252.66L235.011 244.671L234.298 244.67Z" fill="#FFA412"/>
<path d="M271.081 244.76L271.062 252.749L271.776 252.751L271.794 244.762L271.081 244.76Z" fill="#FFA412"/>
<path d="M272.601 244.764L272.582 252.753L273.294 252.755L273.313 244.766L272.601 244.764Z" fill="#FFA412"/>
<path d="M274.087 244.754L274.068 252.743L274.781 252.745L274.8 244.756L274.087 244.754Z" fill="#FFA412"/>
<path d="M275.179 244.771L275.16 252.759H275.603C275.7 252.759 275.777 252.759 275.873 252.74L275.892 244.809C275.796 244.79 275.719 244.79 275.623 244.79L275.179 244.771Z" fill="#FFA412"/>
<path d="M276.181 244.886L276.162 252.644C276.451 252.509 276.702 252.278 276.875 251.989L276.894 245.541C276.721 245.252 276.47 245.021 276.181 244.886Z" fill="#FFA412"/>
<path d="M280.421 238.726V243.23C280.421 243.596 280.325 243.923 280.151 244.193C279.978 244.482 279.727 244.713 279.438 244.847C279.342 244.886 279.265 244.924 279.169 244.944C279.072 244.963 278.995 244.963 278.899 244.963L215.958 244.809C215.707 244.809 215.457 244.732 215.264 244.616C214.821 244.347 214.493 243.846 214.455 243.25C214.455 243.23 214.455 243.192 214.455 243.173C214.455 243.134 214.455 243.115 214.455 243.076V238.572C214.455 238.533 214.455 238.514 214.455 238.476C214.493 237.571 215.168 236.82 215.977 236.839L278.918 236.993C279.014 236.993 279.092 237.012 279.188 237.012C279.284 237.032 279.381 237.07 279.458 237.109C279.747 237.243 279.997 237.474 280.171 237.763C280.325 238.033 280.421 238.379 280.421 238.726Z" fill="#FFB93E"/>
<path d="M249.49 244.905L215.765 244.828C215.534 244.828 215.322 244.751 215.148 244.636C214.744 244.366 214.474 243.866 214.416 243.269C214.416 243.25 214.416 243.211 214.416 243.192C214.416 243.153 214.416 243.134 214.416 243.096V238.591C214.416 238.553 214.416 238.533 214.416 238.495C214.455 237.59 215.052 236.839 215.784 236.859L245.366 236.936C245.829 239.226 246.869 242.364 249.278 244.732C249.355 244.771 249.433 244.847 249.49 244.905Z" fill="#FFA412"/>
<path d="M281.944 230.756V235.261C281.944 235.627 281.848 235.954 281.674 236.224C281.501 236.512 281.25 236.743 280.961 236.878C280.865 236.917 280.788 236.955 280.691 236.974C280.595 236.994 280.518 236.994 280.422 236.994L217.48 236.84C216.671 236.84 215.997 236.108 215.958 235.184C215.958 235.145 215.958 235.126 215.958 235.088V230.583C215.958 230.545 215.958 230.525 215.958 230.487C215.997 229.64 216.575 228.947 217.307 228.851C217.365 228.851 217.423 228.831 217.48 228.831L280.422 228.985C280.518 228.985 280.595 229.005 280.691 229.005C280.788 229.024 280.884 229.062 280.961 229.101C281.25 229.236 281.501 229.467 281.674 229.755C281.848 230.063 281.944 230.391 281.944 230.756Z" fill="#FFB93E"/>
<path d="M251.013 236.917L217.287 236.84C216.555 236.84 215.977 236.108 215.938 235.184C215.938 235.145 215.938 235.126 215.938 235.088V230.583C215.938 230.545 215.938 230.525 215.938 230.487C215.977 229.64 216.497 228.947 217.133 228.851C217.191 228.851 217.23 228.831 217.287 228.831L246.869 228.908C246.869 228.908 246.869 228.908 246.869 228.928C247.371 231.295 248.469 234.549 251.013 236.917Z" fill="#FFA412"/>
<path d="M277.319 222.767V227.272C277.319 227.638 277.222 227.965 277.049 228.235C276.876 228.523 276.625 228.754 276.336 228.889C276.24 228.928 276.162 228.966 276.066 228.985C276.028 228.985 276.008 229.005 275.97 229.005C275.95 229.005 275.931 229.005 275.912 229.005C275.893 229.005 275.873 229.005 275.854 229.005C275.835 229.005 275.796 229.005 275.777 229.005L212.836 228.851C212.027 228.851 211.352 228.119 211.313 227.195C211.313 227.156 211.313 227.137 211.313 227.099V222.594C211.313 222.556 211.313 222.536 211.313 222.498C211.313 222.479 211.313 222.44 211.313 222.421C211.371 221.689 211.853 221.073 212.451 220.9C212.47 220.9 212.489 220.9 212.489 220.881C212.605 220.862 212.701 220.842 212.817 220.842L275.758 220.996C275.796 220.996 275.854 220.996 275.893 220.996C275.912 220.996 275.931 220.996 275.95 220.996C275.97 220.996 275.989 220.996 276.028 221.016C276.124 221.035 276.22 221.073 276.297 221.112C276.586 221.247 276.837 221.478 277.01 221.766C277.222 222.074 277.319 222.402 277.319 222.767Z" fill="#FFB93E"/>
<path d="M246.407 228.947L212.682 228.87C211.95 228.87 211.372 228.138 211.333 227.214C211.333 227.176 211.333 227.156 211.333 227.118V222.613C211.333 222.575 211.333 222.555 211.333 222.517C211.333 222.498 211.333 222.459 211.333 222.44C211.391 221.689 211.834 221.073 212.393 220.919C212.412 220.919 212.431 220.9 212.451 220.9C212.528 220.881 212.605 220.881 212.682 220.881L242.264 220.958C242.264 220.977 242.264 220.996 242.283 221.015C242.765 223.345 243.864 226.56 246.407 228.947C246.407 228.927 246.407 228.947 246.407 228.947Z" fill="#FFA412"/>
<path d="M277.203 214.836V219.34C277.203 219.706 277.107 220.034 276.933 220.303C276.76 220.592 276.509 220.823 276.22 220.958C276.143 220.996 276.085 221.015 276.008 221.035C275.989 221.035 275.97 221.054 275.951 221.054C275.854 221.073 275.777 221.073 275.681 221.073L212.74 220.919C212.682 220.919 212.605 220.919 212.547 220.9C212.528 220.9 212.489 220.9 212.47 220.881C211.776 220.746 211.256 220.072 211.217 219.263C211.217 219.225 211.217 219.206 211.217 219.167V214.663C211.217 214.624 211.217 214.605 211.217 214.566C211.256 213.642 211.93 212.911 212.74 212.93L275.681 213.084C275.719 213.084 275.758 213.084 275.796 213.084C275.816 213.084 275.835 213.084 275.854 213.084C275.873 213.084 275.893 213.084 275.912 213.084C275.931 213.084 275.931 213.084 275.951 213.084C276.047 213.103 276.143 213.142 276.22 213.18C276.24 213.18 276.24 213.2 276.259 213.2C276.278 213.2 276.278 213.219 276.297 213.219C276.317 213.238 276.355 213.238 276.375 213.257C276.394 213.277 276.432 213.296 276.452 213.315C276.471 213.334 276.49 213.354 276.529 213.373C276.548 213.392 276.587 213.411 276.606 213.431C276.625 213.45 276.644 213.469 276.664 213.488C276.683 213.508 276.683 213.508 276.702 213.527C276.741 213.565 276.779 213.604 276.818 213.662C276.837 213.681 276.837 213.681 276.856 213.7C276.876 213.719 276.876 213.719 276.895 213.739C276.914 213.758 276.933 213.796 276.953 213.835C277.107 214.143 277.203 214.489 277.203 214.836Z" fill="#FFB93E"/>
<path d="M246.291 221.015L212.566 220.938C212.547 220.938 212.508 220.938 212.489 220.938C212.45 220.938 212.431 220.938 212.393 220.919C211.737 220.823 211.236 220.13 211.198 219.283C211.198 219.244 211.198 219.225 211.198 219.187V214.682C211.198 214.643 211.198 214.624 211.198 214.586C211.236 213.662 211.834 212.93 212.566 212.949L242.148 213.026C242.167 213.084 242.167 213.161 242.186 213.219C242.668 215.529 243.767 218.648 246.214 220.958C246.253 220.977 246.272 220.996 246.291 221.015Z" fill="#FFA412"/>
<path d="M280.48 207.059V211.563C280.48 211.929 280.383 212.256 280.21 212.526C280.036 212.815 279.786 213.046 279.497 213.18C279.4 213.219 279.323 213.257 279.227 213.277C279.13 213.296 279.053 213.296 278.957 213.296L216.016 213.142C215.765 213.142 215.515 213.065 215.322 212.949C214.879 212.68 214.551 212.179 214.513 211.583C214.513 211.563 214.513 211.525 214.513 211.506C214.513 211.467 214.513 211.448 214.513 211.409V206.905C214.513 206.866 214.513 206.847 214.513 206.809C214.551 205.885 215.226 205.153 216.035 205.172L278.976 205.326C279.073 205.326 279.15 205.345 279.246 205.345C279.342 205.365 279.439 205.403 279.516 205.442C279.805 205.576 280.056 205.807 280.229 206.096C280.383 206.366 280.48 206.712 280.48 207.059Z" fill="#FFB93E"/>
<path d="M249.548 213.238L215.823 213.161C215.591 213.161 215.379 213.084 215.206 212.969C214.801 212.699 214.531 212.199 214.474 211.602C214.474 211.583 214.474 211.544 214.474 211.525C214.474 211.486 214.474 211.467 214.474 211.429V206.924C214.474 206.886 214.474 206.866 214.474 206.828C214.512 205.904 215.11 205.172 215.842 205.192L245.424 205.269C245.886 207.559 246.927 210.697 249.336 213.065C249.413 213.103 249.49 213.161 249.548 213.238Z" fill="#FFA412"/>
<path d="M285.625 199.089V203.594C285.625 203.959 285.528 204.287 285.355 204.556C285.182 204.845 284.931 205.076 284.642 205.211C284.546 205.249 284.468 205.288 284.372 205.307C284.276 205.326 284.199 205.326 284.102 205.326L221.161 205.172C220.352 205.172 219.677 204.441 219.639 203.517C219.639 203.478 219.639 203.459 219.639 203.42V198.916C219.639 198.877 219.639 198.858 219.639 198.82C219.677 197.973 220.255 197.28 220.988 197.183C221.046 197.183 221.103 197.164 221.161 197.164L284.102 197.318C284.199 197.318 284.276 197.337 284.372 197.337C284.468 197.357 284.565 197.395 284.642 197.434C284.931 197.568 285.182 197.799 285.355 198.088C285.548 198.396 285.625 198.723 285.625 199.089Z" fill="#FFB93E"/>
<path d="M254.713 205.269L220.988 205.192C220.255 205.192 219.677 204.46 219.639 203.536C219.639 203.498 219.639 203.478 219.639 203.44V198.935C219.639 198.897 219.639 198.877 219.639 198.839C219.677 197.992 220.198 197.299 220.834 197.203C220.891 197.203 220.949 197.183 220.988 197.183L250.57 197.26C250.57 197.26 250.57 197.26 250.57 197.28C251.051 199.628 252.15 202.882 254.713 205.269Z" fill="#FFA412"/>
<path d="M277.376 191.1V195.605C277.376 195.97 277.28 196.298 277.107 196.567C276.933 196.856 276.683 197.087 276.394 197.222C276.297 197.26 276.22 197.299 276.124 197.318C276.085 197.318 276.066 197.337 276.027 197.337C276.008 197.337 275.989 197.337 275.95 197.337C275.931 197.337 275.931 197.337 275.912 197.337C275.892 197.337 275.854 197.337 275.835 197.337L212.894 197.183C212.084 197.183 211.41 196.452 211.371 195.528C211.371 195.489 211.371 195.47 211.371 195.431V190.927C211.371 190.888 211.371 190.869 211.371 190.831C211.41 189.926 212.084 189.175 212.894 189.194L275.835 189.348C275.854 189.348 275.892 189.348 275.912 189.348C275.97 189.348 276.047 189.367 276.104 189.367C276.201 189.387 276.297 189.425 276.374 189.464C276.413 189.483 276.471 189.502 276.509 189.541C276.528 189.56 276.567 189.579 276.586 189.598C276.606 189.618 276.644 189.637 276.663 189.656C276.663 189.656 276.663 189.656 276.683 189.656C276.702 189.675 276.721 189.695 276.76 189.714C276.817 189.752 276.856 189.81 276.914 189.868C276.933 189.887 276.952 189.906 276.952 189.926C276.952 189.945 276.972 189.945 276.972 189.964C276.991 189.983 277.01 190.003 277.01 190.022C277.029 190.06 277.049 190.08 277.068 190.118C277.28 190.407 277.376 190.734 277.376 191.1Z" fill="#FFB93E"/>
<path d="M246.465 197.279L212.74 197.202C212.007 197.202 211.429 196.471 211.391 195.547C211.391 195.508 211.391 195.489 211.391 195.451V190.946C211.391 190.908 211.391 190.888 211.391 190.85C211.429 189.945 212.027 189.194 212.759 189.213L242.341 189.29C242.36 189.348 242.36 189.406 242.379 189.483C242.861 191.793 243.96 194.931 246.465 197.279C246.446 197.26 246.465 197.26 246.465 197.279Z" fill="#FFA412"/>
<path d="M282.021 183.304V187.808C282.021 188.174 281.925 188.501 281.751 188.771C281.578 189.06 281.327 189.291 281.038 189.425C280.942 189.464 280.865 189.502 280.768 189.522C280.672 189.541 280.595 189.541 280.499 189.541L217.557 189.387C217.307 189.387 217.076 189.31 216.883 189.194C216.42 188.925 216.093 188.405 216.054 187.808C216.054 187.789 216.054 187.77 216.054 187.731C216.054 187.693 216.054 187.674 216.054 187.635V183.13C216.054 183.092 216.054 183.073 216.054 183.034C216.093 182.187 216.671 181.494 217.403 181.398C217.461 181.398 217.519 181.379 217.577 181.379L280.518 181.533C280.614 181.533 280.691 181.552 280.788 181.552C280.884 181.571 280.98 181.61 281.057 181.648C281.347 181.783 281.597 182.014 281.77 182.303C281.925 182.611 282.021 182.957 282.021 183.304Z" fill="#FFB93E"/>
<path d="M251.11 189.483L217.384 189.406C217.172 189.406 216.96 189.348 216.787 189.213C216.382 188.944 216.093 188.424 216.035 187.827C216.035 187.808 216.035 187.789 216.035 187.75C216.035 187.712 216.035 187.693 216.035 187.654V183.15C216.035 183.111 216.035 183.092 216.035 183.053C216.074 182.206 216.594 181.513 217.23 181.417C217.288 181.417 217.326 181.398 217.384 181.398L246.966 181.475C246.966 181.475 246.966 181.475 246.966 181.494C247.429 183.785 248.469 186.923 250.898 189.29C250.975 189.367 251.032 189.425 251.11 189.483Z" fill="#FFA412"/>
<path d="M277.415 175.334V179.839C277.415 180.204 277.319 180.532 277.145 180.801C276.972 181.09 276.721 181.321 276.432 181.456C276.336 181.494 276.259 181.533 276.162 181.552C276.124 181.552 276.105 181.571 276.066 181.571C276.047 181.571 276.027 181.571 276.008 181.571C275.989 181.571 275.97 181.571 275.95 181.571C275.931 181.571 275.893 181.571 275.873 181.571L212.932 181.417C212.123 181.417 211.448 180.686 211.41 179.762C211.41 179.723 211.41 179.704 211.41 179.665V175.161C211.41 175.122 211.41 175.103 211.41 175.064C211.448 174.16 212.123 173.409 212.932 173.428L275.873 173.582C275.97 173.582 276.047 173.601 276.143 173.601C276.239 173.621 276.336 173.659 276.413 173.698C276.702 173.832 276.952 174.063 277.126 174.352C277.319 174.641 277.415 174.968 277.415 175.334Z" fill="#FFB93E"/>
<path d="M246.484 181.494L212.759 181.417C212.026 181.417 211.448 180.686 211.41 179.761C211.41 179.723 211.41 179.704 211.41 179.665V175.161C211.41 175.122 211.41 175.103 211.41 175.064C211.448 174.16 212.046 173.409 212.778 173.428L242.36 173.505C242.842 175.854 243.921 179.107 246.484 181.494Z" fill="#FFA412"/>
<path d="M272.05 236.973L272.031 244.962L272.744 244.964L272.763 236.975L272.05 236.973Z" fill="#FFA412"/>
<path d="M269.634 236.955L269.617 244.944L270.33 244.946L270.347 236.957L269.634 236.955Z" fill="#FFA412"/>
<path d="M266.717 236.955L266.7 244.944L267.413 244.945L267.43 236.956L266.717 236.955Z" fill="#FFA412"/>
<path d="M262.278 236.944L262.259 244.933L262.972 244.935L262.991 236.946L262.278 236.944Z" fill="#FFA412"/>
<path d="M257.563 236.929L257.544 244.918L258.257 244.919L258.276 236.93L257.563 236.929Z" fill="#FFA412"/>
<path d="M250.345 236.923L250.326 244.912L251.039 244.914L251.058 236.925L250.345 236.923Z" fill="#FFA412"/>
<path d="M243.585 236.896L243.568 244.885L244.281 244.887L244.298 236.897L243.585 236.896Z" fill="#FFA412"/>
<path d="M237.567 236.881L237.548 244.87L238.261 244.871L238.28 236.882L237.567 236.881Z" fill="#FFA412"/>
<path d="M274.35 236.971L274.331 244.96L275.044 244.962L275.063 236.973L274.35 236.971Z" fill="#FFA412"/>
<path d="M275.868 236.975L275.851 244.964L276.564 244.966L276.581 236.977L275.868 236.975Z" fill="#FFA412"/>
<path d="M277.355 236.984L277.336 244.973L278.049 244.975L278.068 236.986L277.355 236.984Z" fill="#FFA412"/>
<path d="M278.455 236.993L278.436 244.982H278.879C278.976 244.982 279.053 244.982 279.149 244.963L279.168 237.032C279.072 237.013 278.995 237.013 278.899 237.013L278.455 236.993Z" fill="#FFA412"/>
<path d="M279.438 237.109L279.419 244.867C279.708 244.732 279.959 244.501 280.132 244.212L280.151 237.763C279.978 237.475 279.727 237.244 279.438 237.109Z" fill="#FFA412"/>
<path d="M251.878 228.942L251.859 236.931L252.572 236.933L252.591 228.944L251.878 228.942Z" fill="#FFA412"/>
<path d="M245.119 228.915L245.1 236.904L245.813 236.906L245.832 228.917L245.119 228.915Z" fill="#FFA412"/>
<path d="M239.081 228.9L239.062 236.889L239.775 236.891L239.794 228.902L239.081 228.9Z" fill="#FFA412"/>
<path d="M276.567 236.993L276.586 229.004H275.95C275.989 229.004 276.008 229.005 276.046 228.985L276.066 221.054C276.027 221.054 275.969 221.035 275.931 221.035L275.95 213.296H276.22L276.201 220.958C276.49 220.823 276.74 220.592 276.914 220.303L276.933 213.854C276.798 213.604 276.586 213.412 276.374 213.277H276.625L276.644 205.288H275.931L275.912 213.104C275.834 213.084 275.757 213.084 275.68 213.084H275.237L275.218 221.073H275.353L275.333 229.004H275.777C275.796 229.004 275.834 229.004 275.854 229.004L275.834 236.974L276.567 236.993Z" fill="#FFA412"/>
<path d="M277.402 228.994L277.383 236.983L278.096 236.985L278.115 228.996L277.402 228.994Z" fill="#FFA412"/>
<path d="M278.87 229.003L278.849 236.992L279.562 236.994L279.583 229.005L278.87 229.003Z" fill="#FFA412"/>
<path d="M279.978 229.004L279.958 236.993H280.402C280.498 236.993 280.575 236.993 280.672 236.974L280.691 229.043C280.594 229.024 280.517 229.024 280.421 229.024L279.978 229.004Z" fill="#FFA412"/>
<path d="M280.961 229.12L280.941 236.878C281.23 236.743 281.481 236.512 281.654 236.223L281.674 229.774C281.5 229.486 281.25 229.255 280.961 229.12Z" fill="#FFA412"/>
<path d="M269.648 229.004L269.668 221.015H269.533L269.552 213.084H268.839L268.82 221.073H268.954L268.935 228.985H268.241L268.222 236.974H268.935L268.954 229.004H269.648Z" fill="#FFA412"/>
<path d="M264.349 220.996H264.214L264.233 213.065H263.52L263.501 221.054H263.636L263.617 228.985H263.79L263.771 236.955H264.484L264.503 228.966H264.33L264.349 220.996Z" fill="#FFA412"/>
<path d="M276.355 221.15L276.335 228.908C276.625 228.773 276.875 228.542 277.049 228.254L277.068 221.805C276.894 221.516 276.644 221.285 276.355 221.15Z" fill="#FFA412"/>
<path d="M259.781 213.065H259.068L259.049 221.054H259.184L259.164 228.966H259.087L259.068 236.936L259.781 236.955L259.8 228.966H259.877L259.897 220.996H259.762L259.781 213.065Z" fill="#FFA412"/>
<path d="M255.06 213.046H254.347V221.035H254.462V228.966H255.175L255.195 220.977H255.06V213.046Z" fill="#FFA412"/>
<path d="M247.852 213.026H247.139L247.12 221.015H247.255L247.236 228.947H247.949L247.968 220.958H247.833L247.852 213.026Z" fill="#FFA412"/>
<path d="M241.088 213.026H240.375V220.996H240.491V228.927H241.204L241.223 220.938H241.088V213.026Z" fill="#FFA412"/>
<path d="M235.056 213.007H234.343V220.996H234.458V228.908H235.171L235.191 220.938H235.056V213.007Z" fill="#FFA412"/>
<path d="M271.865 213.084H271.152L271.132 221.073H271.267L271.248 228.985H271.152L271.132 236.974H271.845L271.865 229.004H271.961L271.98 221.015H271.845L271.865 213.084Z" fill="#FFA412"/>
<path d="M273.387 213.103H272.809L272.828 205.307H272.096V213.296H272.674L272.655 221.073H272.79L272.771 229.004H273.484L273.503 221.015H273.368L273.387 213.103Z" fill="#FFA412"/>
<path d="M269.694 205.286L269.675 213.275L270.388 213.276L270.407 205.287L269.694 205.286Z" fill="#FFA412"/>
<path d="M266.758 213.084H266.411L266.392 221.054L266.527 221.073V228.985H267.24V221.016H267.124V213.277H267.471L267.49 205.288H266.777L266.758 213.084Z" fill="#FFA412"/>
<path d="M262.339 205.275L262.318 213.264L263.031 213.266L263.052 205.277L262.339 205.275Z" fill="#FFA412"/>
<path d="M257.622 205.26L257.604 213.249L258.317 213.25L258.336 205.261L257.622 205.26Z" fill="#FFA412"/>
<path d="M250.404 205.253L250.386 213.242L251.099 213.244L251.118 205.255L250.404 205.253Z" fill="#FFA412"/>
<path d="M243.644 205.227L243.627 213.216L244.34 213.217L244.357 205.228L243.644 205.227Z" fill="#FFA412"/>
<path d="M237.627 205.212L237.608 213.2L238.321 213.202L238.34 205.213L237.627 205.212Z" fill="#FFA412"/>
<path d="M274.389 213.103H274.139L274.119 221.073H274.254L274.235 229.004H273.561V236.974H274.274V229.004H274.948L274.967 221.035H274.832L274.852 213.296H275.102L275.121 205.307H274.408L274.389 213.103Z" fill="#FFA412"/>
<path d="M277.395 205.315L277.376 213.304L278.089 213.306L278.108 205.317L277.395 205.315Z" fill="#FFA412"/>
<path d="M279.207 213.277L279.226 205.345C279.13 205.326 279.053 205.326 278.956 205.326H278.513L278.494 213.315H278.937C279.033 213.315 279.13 213.296 279.207 213.277Z" fill="#FFA412"/>
<path d="M280.209 212.545L280.228 206.096C280.055 205.807 279.804 205.576 279.515 205.442L279.496 213.2C279.785 213.065 280.036 212.834 280.209 212.545Z" fill="#FFA412"/>
<path d="M277.27 197.326L277.251 205.315L277.965 205.316L277.984 197.327L277.27 197.326Z" fill="#FFA412"/>
<path d="M267.478 197.297L267.459 205.286L268.173 205.288L268.191 197.299L267.478 197.297Z" fill="#FFA412"/>
<path d="M262.783 197.301L262.764 205.29L263.477 205.291L263.496 197.302L262.783 197.301Z" fill="#FFA412"/>
<path d="M255.565 197.275L255.546 205.264L256.259 205.266L256.278 197.277L255.565 197.275Z" fill="#FFA412"/>
<path d="M248.806 197.268L248.787 205.257L249.5 205.258L249.519 197.269L248.806 197.268Z" fill="#FFA412"/>
<path d="M242.767 197.253L242.75 205.242L243.463 205.243L243.48 197.254L242.767 197.253Z" fill="#FFA412"/>
<path d="M279.57 197.343L279.551 205.332L280.264 205.334L280.283 197.345L279.57 197.343Z" fill="#FFA412"/>
<path d="M281.089 197.347L281.07 205.336L281.783 205.338L281.802 197.349L281.089 197.347Z" fill="#FFA412"/>
<path d="M282.556 197.337L282.537 205.326L283.25 205.328L283.269 197.339L282.556 197.337Z" fill="#FFA412"/>
<path d="M283.659 197.356L283.64 205.345H284.083C284.179 205.345 284.256 205.345 284.353 205.326L284.372 197.395C284.276 197.376 284.198 197.376 284.102 197.376L283.659 197.356Z" fill="#FFA412"/>
<path d="M284.661 197.472L284.642 205.23C284.931 205.095 285.181 204.864 285.355 204.575L285.374 198.126C285.2 197.838 284.95 197.607 284.661 197.472Z" fill="#FFA412"/>
<path d="M268.993 197.318L269.706 197.337L269.726 189.348H269.032L269.051 181.552H269.745L269.764 173.582L269.032 173.563V181.552L268.338 181.532L268.319 189.521H269.013L268.993 197.318Z" fill="#FFA412"/>
<path d="M266.589 189.335L266.568 197.323L267.281 197.325L267.302 189.336L266.589 189.335Z" fill="#FFA412"/>
<path d="M254.536 189.309L254.517 197.298L255.23 197.299L255.249 189.31L254.536 189.309Z" fill="#FFA412"/>
<path d="M247.318 189.283L247.299 197.272L248.012 197.274L248.031 189.285L247.318 189.283Z" fill="#FFA412"/>
<path d="M240.559 189.276L240.54 197.265L241.253 197.266L241.272 189.277L240.559 189.276Z" fill="#FFA412"/>
<path d="M234.521 189.261L234.502 197.25L235.215 197.251L235.234 189.262L234.521 189.261Z" fill="#FFA412"/>
<path d="M271.306 197.337H271.942L271.923 205.307H272.636L272.655 197.318H272.019L272.038 189.348H271.942V181.571H272.038L272.057 173.582H271.344L271.325 181.552H271.229L271.209 189.541H271.325L271.306 197.337Z" fill="#FFA412"/>
<path d="M272.839 189.355L272.825 197.344L273.538 197.346L273.553 189.357L272.839 189.355Z" fill="#FFA412"/>
<path d="M276.528 189.541H276.663L276.683 181.552H276.047C276.085 181.552 276.104 181.552 276.143 181.533L276.162 173.601C276.066 173.582 275.989 173.582 275.892 173.582H275.449L275.43 181.571H275.873C275.892 181.571 275.931 181.571 275.95 181.571L275.931 189.368C275.912 189.368 275.873 189.368 275.854 189.368H275.411L275.391 197.337H275.006L275.025 189.368H274.351L274.37 181.571H275.045L275.064 173.582H274.351L274.331 181.552H273.657L273.638 189.541H274.312L274.293 197.337H274.833L274.813 205.307H275.526L275.546 197.337H275.835C275.931 197.337 276.008 197.337 276.104 197.318L276.124 189.541H276.394L276.374 197.222C276.663 197.087 276.914 196.856 277.087 196.567L277.107 190.118C276.972 189.887 276.779 189.676 276.528 189.541Z" fill="#FFA412"/>
<path d="M251.951 181.492L251.934 189.481L252.647 189.483L252.664 181.494L251.951 181.492Z" fill="#FFA412"/>
<path d="M245.193 181.484L245.174 189.473L245.887 189.475L245.906 181.486L245.193 181.484Z" fill="#FFA412"/>
<path d="M239.174 181.469L239.155 189.458L239.868 189.46L239.887 181.471L239.174 181.469Z" fill="#FFA412"/>
<path d="M277.476 181.564L277.457 189.552L278.17 189.554L278.189 181.565L277.476 181.564Z" fill="#FFA412"/>
<path d="M278.962 181.554L278.943 189.542L279.656 189.544L279.675 181.555L278.962 181.554Z" fill="#FFA412"/>
<path d="M280.055 181.571L280.036 189.56H280.479C280.575 189.56 280.652 189.56 280.749 189.541L280.768 181.61C280.672 181.59 280.595 181.59 280.498 181.59L280.055 181.571Z" fill="#FFA412"/>
<path d="M281.751 188.79L281.77 182.341C281.597 182.052 281.346 181.821 281.057 181.687L281.038 189.444C281.327 189.31 281.578 189.079 281.751 188.79Z" fill="#FFA412"/>
<path d="M266.621 173.554L266.603 181.543L267.316 181.545L267.335 173.556L266.621 173.554Z" fill="#FFA412"/>
<path d="M264.425 173.563H263.712L263.693 181.552H263.886L263.867 189.329H263.693L263.674 197.318H264.387L264.406 189.521H264.58L264.599 181.532H264.425V173.563Z" fill="#FFA412"/>
<path d="M259.242 181.513H259.165V189.502H259.242L259.222 197.299H259.935L259.955 189.329H259.878V181.532H259.974V173.543H259.261L259.242 181.513Z" fill="#FFA412"/>
<path d="M254.569 173.528L254.55 181.517L255.263 181.519L255.282 173.53L254.569 173.528Z" fill="#FFA412"/>
<path d="M247.351 173.522L247.333 181.511L248.046 181.513L248.065 173.524L247.351 173.522Z" fill="#FFA412"/>
<path d="M240.593 173.495L240.572 181.484L241.285 181.486L241.306 173.497L240.593 173.495Z" fill="#FFA412"/>
<path d="M234.553 173.48L234.537 181.469L235.25 181.47L235.266 173.481L234.553 173.48Z" fill="#FFA412"/>
<path d="M272.877 173.574L272.855 181.563L273.569 181.565L273.59 173.576L272.877 173.574Z" fill="#FFA412"/>
<path d="M276.432 173.698L276.413 181.456C276.702 181.321 276.953 181.09 277.126 180.801L277.145 174.352C276.972 174.064 276.741 173.833 276.432 173.698Z" fill="#FFA412"/>
<path d="M297.419 194.989L301.87 195.778C302.217 195.836 302.545 195.99 302.776 196.202C303.027 196.433 303.219 196.702 303.296 197.01C303.316 197.106 303.335 197.203 303.335 197.299C303.335 197.395 303.335 197.472 303.316 197.568L292.273 259.459C292.138 260.248 291.29 260.787 290.384 260.672C290.346 260.672 290.327 260.672 290.288 260.652L285.836 259.863C285.798 259.863 285.778 259.844 285.74 259.844C284.853 259.651 284.237 258.862 284.391 258.053L295.434 196.163C295.434 196.125 295.453 196.086 295.453 196.048C295.453 196.028 295.453 196.009 295.472 195.99C295.472 195.971 295.491 195.951 295.491 195.932C295.491 195.913 295.491 195.913 295.511 195.894C295.549 195.797 295.588 195.72 295.646 195.643C295.646 195.624 295.665 195.624 295.665 195.605C295.665 195.586 295.684 195.586 295.684 195.566C295.703 195.547 295.723 195.528 295.742 195.489C295.761 195.47 295.761 195.47 295.78 195.451C295.8 195.431 295.8 195.431 295.819 195.412C295.838 195.393 295.858 195.374 295.877 195.354C295.896 195.335 295.935 195.316 295.954 195.297C295.973 195.277 295.992 195.258 296.012 195.239C296.031 195.22 296.05 195.22 296.05 195.2C296.089 195.162 296.147 195.143 296.204 195.123C296.224 195.123 296.243 195.104 296.243 195.104C296.262 195.104 296.281 195.085 296.281 195.085C296.32 195.066 296.339 195.066 296.378 195.046C296.705 194.969 297.052 194.931 297.419 194.989Z" fill="#FFB93E"/>
<path d="M298.151 226.483L292.235 259.651C292.1 260.364 291.271 260.826 290.365 260.691C290.327 260.691 290.308 260.691 290.269 260.672L285.817 259.882C285.779 259.882 285.76 259.863 285.721 259.863C284.835 259.671 284.199 258.958 284.334 258.246L289.518 229.158C289.575 229.158 289.652 229.158 289.71 229.158C292.138 229.081 295.434 228.523 298.151 226.483Z" fill="#FFA412"/>
<path d="M294.342 202.234L294.217 202.935L302.09 204.339L302.215 203.638L294.342 202.234Z" fill="#FFA412"/>
<path d="M293.924 204.614L293.799 205.315L301.673 206.715L301.798 206.013L293.924 204.614Z" fill="#FFA412"/>
<path d="M293.413 207.445L293.288 208.146L301.161 209.547L301.286 208.846L293.413 207.445Z" fill="#FFA412"/>
<path d="M292.623 211.83L292.498 212.531L300.372 213.932L300.497 213.231L292.623 211.83Z" fill="#FFA412"/>
<path d="M291.807 216.459L291.682 217.16L299.556 218.56L299.681 217.859L291.807 216.459Z" fill="#FFA412"/>
<path d="M290.557 223.56L290.432 224.261L298.306 225.664L298.431 224.962L290.557 223.56Z" fill="#FFA412"/>
<path d="M289.339 230.212L289.214 230.914L297.088 232.313L297.213 231.612L289.339 230.212Z" fill="#FFA412"/>
<path d="M288.305 236.164L288.18 236.865L296.053 238.269L296.178 237.567L288.305 236.164Z" fill="#FFA412"/>
<path d="M294.746 199.949L294.621 200.65L302.495 202.051L302.62 201.35L294.746 199.949Z" fill="#FFA412"/>
<path d="M295.034 198.463L294.909 199.164L302.782 200.566L302.908 199.865L295.034 198.463Z" fill="#FFA412"/>
<path d="M295.272 196.991L295.146 197.692L303.02 199.093L303.145 198.392L295.272 196.991Z" fill="#FFA412"/>
<path d="M295.356 196.625L303.219 198.03L303.296 197.587C303.316 197.491 303.316 197.414 303.316 197.318L295.511 195.932C295.472 196.009 295.453 196.105 295.434 196.182L295.356 196.625Z" fill="#FFA412"/>
<path d="M295.646 195.662L303.277 197.01C303.2 196.702 303.027 196.413 302.757 196.201L296.397 195.066C296.089 195.2 295.819 195.412 295.646 195.662Z" fill="#FFA412"/>
<path d="M447.429 260.672H420.372C418.927 259.44 421.374 256.648 423.937 256.475C425.055 256.398 426.462 256.629 428.061 256.956C428.428 252.009 430.567 229.813 438.565 230.718C447.564 231.719 438.565 240.497 436.021 245.695C434.132 249.545 432.147 255.07 431.241 257.669C431.974 257.823 432.725 257.977 433.496 258.131C434.691 254.473 439.123 242.153 444.789 242.865C451.419 243.712 448.759 248.64 444.057 251.566C440.607 253.722 436.368 256.783 434.363 258.265C436.059 258.535 437.851 258.727 439.644 258.689C444.288 258.593 446.543 259.94 447.429 260.672Z" fill="#4ED3CC"/>
<path d="M94.7391 259.786C93.6599 258.092 90.4222 253.722 86.1247 254.3C81.4417 254.935 91.3087 258.015 94.3344 259.786C93.6599 259.786 93.0817 259.748 92.6577 259.594C90.6342 258.881 87.1846 260.248 86.0669 260.729H105.3C105.165 260.267 104.818 259.517 103.932 258.978C103.623 258.785 102.987 258.766 102.159 258.824C103.296 257.476 104.105 253.164 100.906 254.281C98.5741 255.089 98.5934 257.726 98.8054 259.266C98.3043 259.343 97.8033 259.42 97.3215 259.497C96.3579 254.627 92.9854 240.324 86.1054 239.958C79.1483 239.573 92.0025 254.781 96.3001 259.651C95.7605 259.709 95.2402 259.767 94.7391 259.786Z" fill="#4ED3CC"/>
<path d="M285.521 138.405C296.343 127.595 296.343 110.067 285.521 99.2569C274.698 88.4464 257.152 88.4464 246.329 99.2569C235.507 110.067 235.507 127.595 246.329 138.405C257.152 149.216 274.698 149.216 285.521 138.405Z" fill="#E2810E"/>
<path d="M290.614 127.028C294.502 112.241 285.653 97.1052 270.849 93.222C256.046 89.3387 240.894 98.1779 237.007 112.965C233.119 127.752 241.968 142.887 256.771 146.771C271.575 150.654 286.726 141.815 290.614 127.028Z" fill="#FFB93E"/>
<path d="M264.002 145.495C255.098 145.495 246.445 140.779 241.859 132.463C238.602 126.572 237.85 119.757 239.72 113.289C241.589 106.821 245.887 101.469 251.784 98.2159C257.681 94.9626 264.503 94.2118 270.978 96.0791C277.453 97.9464 282.811 102.239 286.068 108.13C292.794 120.296 288.342 135.678 276.143 142.377C272.308 144.494 268.126 145.495 264.002 145.495ZM263.925 96.5604C259.974 96.5604 256.062 97.5614 252.497 99.525C246.946 102.586 242.919 107.61 241.146 113.693C239.392 119.777 240.105 126.187 243.169 131.731C247.486 139.566 255.619 143.994 264.002 143.994C267.875 143.994 271.788 143.051 275.43 141.048C286.897 134.734 291.078 120.296 284.757 108.842C281.693 103.298 276.663 99.2747 270.573 97.5037C268.377 96.8684 266.141 96.5604 263.925 96.5604Z" fill="#FFA412"/>
<path d="M270.554 125.013C270.342 124.512 270.092 124.089 269.802 123.762C269.494 123.434 269.128 123.184 268.665 122.992C268.203 122.818 267.683 122.684 267.047 122.626C266.43 122.568 265.698 122.568 264.85 122.607C263.385 122.684 262.036 122.684 260.803 122.607C259.569 122.549 258.432 122.337 257.43 121.99C256.428 121.644 255.541 121.143 254.79 120.45C254.038 119.757 253.402 118.814 252.921 117.64C252.497 116.62 252.304 115.599 252.323 114.618C252.342 113.617 252.574 112.673 252.978 111.768C253.402 110.864 254 110.036 254.79 109.247C255.58 108.477 256.524 107.784 257.661 107.206L256.081 103.337L259.203 102.066L260.803 105.993C261.978 105.685 263.115 105.57 264.214 105.647C265.312 105.724 266.314 105.993 267.239 106.436C268.164 106.898 268.993 107.533 269.745 108.361C270.477 109.189 271.094 110.209 271.595 111.422L265.948 113.713C265.351 112.269 264.599 111.306 263.655 110.844C262.71 110.382 261.708 110.382 260.629 110.825C260.051 111.056 259.569 111.345 259.222 111.691C258.856 112.019 258.606 112.384 258.451 112.789C258.297 113.193 258.22 113.597 258.259 114.04C258.278 114.483 258.394 114.926 258.567 115.368C258.741 115.811 258.972 116.196 259.261 116.504C259.531 116.812 259.897 117.062 260.34 117.236C260.783 117.409 261.323 117.524 261.959 117.582C262.595 117.64 263.366 117.659 264.271 117.621C265.717 117.582 267.066 117.601 268.299 117.678C269.533 117.755 270.65 117.967 271.652 118.314C272.655 118.66 273.541 119.18 274.293 119.873C275.044 120.566 275.661 121.49 276.143 122.664C276.567 123.723 276.779 124.763 276.759 125.744C276.74 126.745 276.509 127.689 276.085 128.574C275.661 129.46 275.044 130.287 274.235 131.058C273.425 131.828 272.462 132.501 271.344 133.079L272.809 136.679L269.706 137.93L268.241 134.349C267.124 134.677 265.967 134.869 264.811 134.908C263.655 134.946 262.556 134.792 261.496 134.426C260.436 134.061 259.473 133.445 258.567 132.598C257.681 131.751 256.929 130.595 256.351 129.152L261.997 126.861C262.344 127.727 262.749 128.382 263.231 128.863C263.713 129.344 264.214 129.671 264.753 129.845C265.293 130.018 265.852 130.076 266.43 130.018C267.008 129.941 267.548 129.806 268.087 129.594C268.704 129.344 269.205 129.055 269.61 128.709C270.014 128.362 270.303 127.997 270.515 127.592C270.708 127.188 270.824 126.765 270.824 126.322C270.824 125.918 270.727 125.475 270.554 125.013Z" fill="#FFA412"/>
<path d="M291.368 103.934C290.212 103.125 287.571 101.316 287.436 101.72C287.34 102.009 287.475 102.49 287.803 103.01C286.222 102.413 284.604 102.028 280.788 102.759C280.017 102.913 279.323 103.337 278.918 103.992C278.533 104.588 278.379 105.358 279.362 105.955C281.308 107.168 280.749 106.436 283.447 108.207C286.145 109.978 289.46 110.421 291.445 109.189L294.104 108.746L294.432 104.377C294.432 104.377 292.91 104.203 291.368 103.934Z" fill="#FFB27D"/>
<path d="M361.015 67.3192C361.015 67.3192 354.752 74.7499 346.774 71.6314C346.774 71.6314 345.058 67.4925 345.039 64.4317C345.039 64.0466 345.039 63.7001 345.02 63.3536C344.981 59.9078 344.866 57.9827 344.866 57.9827C345.232 57.8287 357.065 52.9776 357.045 53.3818C356.853 62.6798 361.015 67.3192 361.015 67.3192Z" fill="#FFB27D"/>
<path d="M355.87 55.5764C354.733 57.6939 350.821 61.8328 345.02 63.3343C344.981 59.8885 344.866 57.9634 344.866 57.9634C345.193 57.8864 356.217 54.9603 355.87 55.5764Z" fill="#ED975D"/>
<path d="M342.38 57.6168C342.38 57.6168 355.696 60.7354 357.508 52.4384C359.319 44.1221 362.268 38.9437 353.846 36.5952C345.424 34.2466 343.073 37.0572 341.782 39.6752C340.529 42.2933 338.968 56.5772 342.38 57.6168Z" fill="#FFB27D"/>
<path d="M357.065 54.6908C357.238 54.8063 360.11 55.6918 365.525 44.8923C366.373 43.1982 366.951 39.5406 364.966 36.2873C362.981 33.0532 355.947 30.5121 350.108 29.3956C344.268 28.279 342.862 31.5709 341.474 34.882C340.029 38.3471 335.847 41.1962 335.847 41.1962C340.896 44.0067 346.966 39.9834 349.067 40.6379C351.168 41.2924 351.919 44.6035 352.073 45.6815C352.228 46.7403 352.478 47.6258 355.118 46.6826C357.759 45.7393 356.313 50.4364 355.889 51.3219C355.908 51.3219 355.542 53.7283 357.065 54.6908Z" fill="#A9453D"/>
<path d="M391.349 261.904H399.405C401.101 261.904 402.97 260.21 403.433 257.13C403.895 254.03 407.383 252.356 408.135 249.815C408.886 247.273 405.032 243.712 405.032 243.712L404.396 242.884L403.722 242.018L397.343 243.52C397.343 243.52 397.189 245.04 397.092 246.965C397.015 248.371 396.996 249.969 397.073 251.393C397.266 254.762 396.129 258.4 393.122 259.055C390.097 259.729 391.349 261.904 391.349 261.904Z" fill="#354497"/>
<path d="M335.25 261.904H356.602C356.814 261.865 356.969 261.827 357.065 261.769C358.491 261.057 358.048 255.609 357.874 253.915C357.836 253.607 357.817 253.414 357.817 253.414C357.817 253.414 350.301 247.408 349.279 252.009C349.241 252.144 349.202 252.298 349.164 252.433C347.853 256.725 342.033 258.689 338.661 259.228C336.078 259.651 335.423 261.153 335.25 261.904Z" fill="#354497"/>
<path d="M339.547 138.854C339.547 138.854 340.684 153.08 342.033 170.156C343.864 193.372 346.041 221.882 346.273 227.291C346.639 236.666 348.142 251.682 348.142 251.682C348.142 251.682 351.707 255.243 358.838 253.741C358.838 253.741 365.197 232.316 367.009 209.658C367.028 209.292 367.067 208.907 367.086 208.541C368.782 185.479 371.403 136.891 371.403 136.891L339.547 138.854Z" fill="#2A377E"/>
<path d="M339.547 138.854C339.547 138.854 340.684 153.08 342.033 170.156L367.028 209.658C367.047 209.292 367.086 208.907 367.105 208.541C368.801 185.479 371.422 136.891 371.422 136.891L339.547 138.854Z" fill="#23235B" fill-opacity="0.2"/>
<path d="M344.75 140.529C344.75 140.529 365.313 192.024 378.823 216.222C392.351 240.42 396.572 247.177 396.572 247.177C396.572 247.177 404.319 244.078 405.013 241.979C405.013 241.979 399.848 195.258 390.79 183.881C385.683 177.452 379.671 158.143 379.382 151.386C379.093 144.629 377.551 131.27 377.551 131.27L344.75 140.529Z" fill="#2A377E"/>
<path d="M391.657 131.173L391.869 134.484C391.869 134.484 389.691 140.375 395.8 143.378C395.8 143.378 398.421 144.437 398.537 142.396C398.653 140.356 398.306 141.126 398.518 138.257C398.73 135.389 397.593 132.675 395.704 131.751L394.143 129.96L391.657 131.173Z" fill="#FFB27D"/>
<path d="M394.047 133.599C391.773 134.33 391.407 134.157 391.407 134.157C391.407 134.157 380.325 114.021 379.208 112.173C378.09 110.325 355.696 89.5728 355.696 89.5728L361.459 68.1277C361.459 68.1277 386.936 101.085 389.691 105.801C394.24 113.617 396.899 131.77 396.899 131.77C396.899 131.77 395.82 133.021 394.047 133.599Z" fill="#18184B" fill-opacity="0.2"/>
<path d="M335.211 97.9853C335.288 102.394 335.538 107.341 335.885 112.365C335.905 112.654 335.924 112.962 335.943 113.251C336.155 116.37 336.406 119.488 336.675 122.53C336.791 123.743 336.907 124.955 337.022 126.149L337.042 126.303C337.042 126.746 337.099 127.227 337.157 127.67C338.275 139.066 339.451 148.075 339.682 148.21C339.952 148.383 340.241 148.48 340.549 148.441C343.536 148.056 352.478 148.749 359.782 147.151C365.949 145.842 371.268 143.378 376.895 140.067C377.647 139.624 379.343 138.45 379.208 137.584C379.073 136.621 378.822 135.235 378.495 133.503C377.377 127.439 375.469 117.005 374.814 104.8C374.679 102.528 374.506 100.276 374.255 98.0623C373.619 92.3064 372.617 86.8393 371.268 81.9881C368.763 72.9789 365.082 66.0679 360.457 63.3728C359.859 63.0263 356.602 65.1054 353.615 67.0112C350.859 68.7823 347.949 69.2635 345.136 69.0133L342.65 71.7661C339.643 75.2504 336.444 79.9091 335.558 86.512C335.5 86.9933 335.442 87.513 335.384 88.0713C335.192 90.7664 335.134 94.1737 335.211 97.9853Z" fill="#2B2D79"/>
<path d="M335.211 97.9852C335.288 102.394 335.538 107.341 335.885 112.365C335.904 112.654 335.924 112.962 335.943 113.251C353.037 102.567 355.677 83.0083 355.677 83.0083C347.275 83.3741 340.587 85.2991 335.442 88.0712C335.191 90.7663 335.133 94.1736 335.211 97.9852Z" fill="#23235B" fill-opacity="0.2"/>
<path d="M292.004 106.417C291.83 103.876 293.141 103.472 293.141 103.472C293.141 103.472 318.926 98.8129 321.104 98.1199C323.301 97.4269 342.033 77.9646 342.033 77.9646C342.033 77.9646 349.221 69.8794 355.099 71.6697C360.206 73.229 362.21 77.2138 362.885 81.0062C363.694 85.5301 361.613 90.0732 357.681 92.4795C348.893 97.8697 331.279 108.496 327.117 109.709C317.885 112.404 293.083 109.921 293.083 109.921C293.083 109.921 292.139 108.4 292.004 106.417Z" fill="#2B2D79"/>
<path opacity="0.2" d="M322.337 155.872V251.585C322.337 257.168 317.77 261.73 312.181 261.73H213.684C212.836 261.73 211.988 261.634 211.198 261.422C209.483 260.999 207.941 260.152 206.688 258.997C205.782 258.169 205.031 257.207 204.472 256.109C204.433 256.051 204.414 255.994 204.376 255.936C203.778 254.762 203.412 253.433 203.316 252.067C203.296 251.836 203.296 251.585 203.296 251.354V156.488C203.296 151.117 206.072 146.15 210.6 143.262C210.6 143.262 210.6 143.262 210.62 143.262C214.397 140.856 216.902 136.621 216.902 131.808C216.902 130.384 216.69 129.017 216.266 127.727H309.367C308.963 129.017 308.731 130.384 308.731 131.808C308.731 136.409 311.025 140.49 314.551 142.954C314.783 143.108 315.033 143.282 315.265 143.416C319.639 146.073 322.337 150.77 322.337 155.872Z" fill="#ED9F4A"/>
<path opacity="0.2" d="M322.337 155.872V251.585C322.337 256.937 318.155 261.345 312.894 261.711C312.663 261.73 312.412 261.73 312.181 261.73H268.82C263.116 261.73 258.433 257.053 258.433 251.354V156.488C258.433 151.117 261.208 146.15 265.737 143.262C269.514 140.856 272.019 136.621 272.019 131.808C272.019 130.384 271.807 129.017 271.383 127.727H309.367C308.963 129.017 308.731 130.384 308.731 131.808C308.731 135.582 310.273 139.008 312.759 141.472C313.511 142.223 314.359 142.877 315.265 143.416C319.639 146.073 322.337 150.77 322.337 155.872Z" fill="#ED9F4A"/>
<path opacity="0.6" d="M314.552 142.955C311.507 141.145 298.344 134.696 264.831 134.966C226.461 135.274 211.082 143.032 210.601 143.263C214.378 140.856 216.883 136.621 216.883 131.808C216.883 130.384 216.671 129.017 216.247 127.727H309.348C308.944 129.017 308.712 130.384 308.712 131.808C308.751 136.429 311.044 140.49 314.552 142.955Z" fill="#ED9F4A"/>
<path d="M311.487 127.053V131.404C311.487 131.828 311.14 132.174 310.716 132.174H214.936C214.512 132.174 214.166 131.828 214.166 131.404V127.053C214.166 126.63 214.512 126.283 214.936 126.283H310.716C311.14 126.264 311.487 126.63 311.487 127.053Z" fill="#2A377E"/>
<path d="M311.487 127.053V131.404C311.487 131.828 311.14 132.174 310.716 132.174H274.466C274.042 132.174 273.695 131.828 273.695 131.404V127.053C273.695 126.63 274.042 126.283 274.466 126.283H310.716C311.14 126.264 311.487 126.63 311.487 127.053Z" fill="#23235B" fill-opacity="0.2"/>
<path d="M247.583 148.537C247.583 148.537 245.116 152.002 242.842 152.06C240.587 152.098 237.137 150.443 237.137 150.443C237.137 150.443 235.056 145.823 236.463 144.013C236.463 144.013 237.87 143.397 239.354 144.494C239.604 144.687 239.874 144.918 240.124 145.226C240.491 145.649 240.876 145.9 241.319 146.034C242.938 146.516 244.846 145.38 245.559 146.477C245.983 147.132 246.426 147.613 246.812 147.96C247.255 148.345 247.583 148.537 247.583 148.537Z" fill="#F9DDBF"/>
<path d="M215.399 173.582C215.399 173.582 224.129 152.464 239.835 152.06C239.835 152.06 254.328 153.677 255.137 173.582H215.399Z" fill="#F9DDBF"/>
<path d="M235.537 152.715C235.537 152.715 241.839 154.12 243.766 153.292C243.766 153.292 244.056 150.655 241.415 151.04C239.604 151.29 238.428 150.424 237.715 150.077C236.732 149.557 235.268 151.617 235.537 152.715Z" fill="#F1A34F"/>
<path d="M241.011 148.749C240.606 149.057 239.373 144.494 239.373 144.494C239.623 144.687 239.893 144.918 240.143 145.226C240.51 145.649 240.895 145.9 241.338 146.034C241.319 146.169 241.396 148.46 241.011 148.749Z" fill="#E5C1A1"/>
<path d="M246.811 147.959C246.715 148.017 243.805 149.75 243.42 149.75C243.015 149.75 245.559 146.477 245.559 146.477C245.983 147.132 246.445 147.613 246.811 147.959Z" fill="#E5C1A1"/>
<path d="M223.936 167.691C223.782 167.557 230.103 158.374 231.857 158.297C233.611 158.239 237.523 160.299 240.356 160.569C243.189 160.838 245.945 160.03 246.484 161.704C247.024 163.379 248.488 169.328 247.583 170.271C246.677 171.233 227.405 170.656 223.936 167.691Z" fill="#E5C1A1"/>
<path opacity="0.5" d="M216.864 254.512C216.363 254.781 215.842 255.031 215.341 255.262C214.859 255.551 214.358 255.821 213.857 256.09C211.525 257.303 209.136 258.285 206.688 259.016C205.782 258.188 205.031 257.226 204.472 256.129C204.087 256.34 203.701 256.533 203.296 256.725V184.517C205.089 184.748 206.862 185.113 208.615 185.575C218.386 188.213 227.078 194.411 232.377 203.555C242.861 221.689 235.942 244.501 216.864 254.512Z" fill="#E2810E"/>
<path d="M223.473 200.706C212.97 181.668 188.997 174.737 169.937 185.229C150.877 195.72 143.939 219.668 154.442 238.707C164.946 257.746 188.919 264.676 207.979 254.184C227.058 243.693 233.977 219.745 223.473 200.706Z" fill="#E2810E"/>
<path d="M206.457 254.993C205.975 255.282 205.474 255.57 204.973 255.859C204.8 255.955 204.626 256.052 204.472 256.129C204.087 256.34 203.701 256.533 203.296 256.725C184.526 265.927 161.631 258.862 151.437 240.382C141.704 222.748 146.927 200.899 162.903 189.426C164.175 188.501 165.524 187.654 166.931 186.884C167.432 186.615 167.952 186.345 168.453 186.095C168.954 185.845 169.455 185.614 169.957 185.383C171.498 184.69 173.059 184.112 174.659 183.65C177.01 182.938 179.4 182.457 181.789 182.207C189.209 181.417 196.686 182.784 203.316 186.018C210.35 189.445 216.42 195.008 220.487 202.362C230.701 220.919 224.399 244.097 206.457 254.993Z" fill="#FFB93E"/>
<path d="M186.222 257.669C182.868 257.669 179.496 257.187 176.2 256.244C166.989 253.588 159.357 247.485 154.732 239.111C150.107 230.718 149.027 221.035 151.687 211.833C154.346 202.631 160.456 195.008 168.839 190.388C177.241 185.768 186.935 184.69 196.147 187.346C205.358 190.003 212.99 196.105 217.615 204.479C222.24 212.873 223.32 222.556 220.66 231.757C218.001 240.959 211.891 248.582 203.508 253.203C198.132 256.167 192.215 257.669 186.222 257.669ZM156.601 238.072C160.957 245.964 168.126 251.682 176.798 254.184C185.47 256.687 194.586 255.667 202.487 251.316C210.388 246.965 216.112 239.804 218.617 231.141C221.123 222.479 220.101 213.373 215.746 205.48C211.39 197.588 204.221 191.87 195.549 189.368C186.877 186.865 177.761 187.885 169.86 192.236C161.959 196.587 156.235 203.748 153.73 212.411C151.224 221.073 152.246 230.179 156.601 238.072Z" fill="#FFA412"/>
<path d="M203.547 225.212C203.47 225.02 203.393 224.827 203.296 224.654C202.66 223.249 201.851 222.113 200.907 221.247C199.827 220.265 198.575 219.534 197.149 219.033C195.723 218.532 194.123 218.244 192.369 218.128C190.616 218.013 188.689 217.993 186.626 218.051C185.355 218.09 184.256 218.07 183.35 217.993C182.445 217.916 181.674 217.743 181.038 217.493C180.402 217.243 179.901 216.896 179.496 216.453C179.111 216.011 178.783 215.472 178.513 214.836C178.263 214.201 178.108 213.566 178.07 212.95C178.031 212.334 178.128 211.737 178.359 211.179C178.59 210.62 178.956 210.101 179.457 209.619C179.958 209.138 180.633 208.734 181.462 208.407C183.003 207.791 184.429 207.791 185.759 208.445C187.089 209.1 188.168 210.447 189.016 212.507L197.052 209.254C196.359 207.54 195.472 206.077 194.431 204.903C193.372 203.729 192.196 202.805 190.866 202.15C189.556 201.496 188.11 201.13 186.549 201.014C184.988 200.899 183.37 201.072 181.712 201.515L179.438 195.913L174.986 197.703L177.222 203.228C175.622 204.056 174.254 205.019 173.136 206.135C172.019 207.232 171.171 208.426 170.573 209.716C169.976 211.006 169.667 212.353 169.629 213.758C169.59 215.164 169.879 216.607 170.477 218.07C171.171 219.765 172.038 221.093 173.117 222.075C174.196 223.056 175.449 223.788 176.875 224.269C178.301 224.75 179.901 225.039 181.654 225.135C183.427 225.232 185.335 225.232 187.417 225.135C188.611 225.058 189.671 225.078 190.558 225.155C191.444 225.232 192.215 225.405 192.851 225.655C193.487 225.925 194.027 226.271 194.451 226.752C194.875 227.214 195.241 227.811 195.53 228.543C195.78 229.178 195.915 229.813 195.915 230.449C195.915 231.084 195.78 231.681 195.491 232.258C195.202 232.836 194.778 233.375 194.219 233.856C193.661 234.337 192.928 234.761 192.061 235.126C191.309 235.434 190.519 235.646 189.71 235.742C188.9 235.839 188.11 235.762 187.339 235.511C186.569 235.261 185.836 234.78 185.162 234.106C184.487 233.432 183.909 232.489 183.408 231.257L175.372 234.472C176.201 236.532 177.26 238.168 178.532 239.381C179.804 240.594 181.192 241.46 182.695 241.98C184.198 242.499 185.778 242.73 187.417 242.653C189.055 242.596 190.693 242.326 192.292 241.845L194.374 246.946L198.787 245.156L196.705 240.035C198.305 239.208 199.693 238.245 200.83 237.167C201.89 236.166 202.718 235.088 203.316 233.914C203.373 233.817 203.412 233.721 203.451 233.625C204.048 232.354 204.376 231.026 204.414 229.602C204.453 228.196 204.164 226.714 203.547 225.212Z" fill="#FFA412"/>
<path d="M156.659 82.7773C156.775 82.296 146.156 87.5707 145.617 88.1675C140.645 93.6924 142.051 100.892 144.904 100.95C146.734 100.988 146.368 104.03 146.368 104.03L166.719 95.4249C166.758 95.4249 164.291 81.141 156.659 82.7773Z" fill="#354497"/>
<path d="M159.165 83.8939C159.165 83.8939 159.897 75.9626 151.032 75.9626C151.032 75.9626 153.711 76.6942 155.098 78.138C155.098 78.138 149.452 74.8269 143.304 79.909C137.156 85.0104 140.972 97.7735 139.103 100.199C137.233 102.625 129.949 103.106 130.835 110.96C131.722 118.795 153.961 128.632 152.516 135.12C152.516 135.12 161.227 122.337 155.002 116.485C155.002 116.485 158.047 119.334 158.355 122.741C158.355 122.741 159.184 116.119 154.963 114.002C151.225 112.134 148.16 105.262 148.488 104.03C148.816 102.798 159.165 83.8939 159.165 83.8939Z" fill="#354497"/>
<path d="M151.128 121.163C149.76 114.599 141.222 112.558 137.195 117.929C136.462 118.891 135.961 120.027 135.788 121.375C134.863 128.844 146.811 159.221 148.526 161.974C151.648 166.979 169.976 184.151 169.976 184.151L173.348 182.11C173.348 182.11 160.34 160.126 158.336 158.066C156.004 155.679 153.71 133.637 151.128 121.163Z" fill="#ED985F"/>
<path d="M168.685 182.11C168.685 182.11 173.618 178.876 175.487 179.088C177.357 179.3 182.753 180.859 182.83 181.648C182.888 182.437 176.817 182.938 176.393 183.361C175.989 183.804 171.845 186.557 170.361 185.691C168.839 184.824 168.685 182.11 168.685 182.11Z" fill="#ED985F"/>
<path d="M134.285 255.185L129.872 254.531C129.872 254.531 115.052 242.769 112.855 220.823C112.623 218.59 112.585 216.318 112.758 214.047C112.778 213.777 112.739 213.527 112.604 213.296C112.122 212.565 110.947 210.755 109.347 208.156C107.767 205.615 105.069 200.783 102.12 195.374C96.7822 185.633 90.5575 173.987 88.4183 170.29C81.6155 158.49 84.8916 150.539 84.8916 150.539C84.8916 150.539 103.855 148.672 109.039 144.129L110.908 147.016C110.908 147.016 115.013 165.189 114.82 165.266C115.013 165.882 115.225 166.517 115.437 167.153C118.675 177.144 122.413 189.637 124.437 199.821C125.574 205.538 126.191 210.543 125.863 213.931C125.747 215.106 125.882 216.896 126.191 219.11C128.041 232.123 134.285 255.185 134.285 255.185Z" fill="#2A377E"/>
<path d="M143.516 260.749H125.131C125.131 260.749 124.688 257.957 125.651 255.821C126.576 253.78 127.887 253.722 125.825 250.527C127 251.72 130.739 252.221 133.399 251.874C133.726 252.394 135.499 255.936 136.578 256.725C137.793 257.592 143.15 257.284 143.516 260.749Z" fill="#23235B" fill-opacity="0.2"/>
<path d="M115.456 167.133C113.857 175.969 110.06 190.696 102.12 195.393C96.7822 185.652 90.5575 174.006 88.4183 170.31C81.6155 158.49 84.8916 150.539 84.8916 150.539C84.8916 150.539 103.855 148.672 109.039 144.129L110.908 147.016C110.908 147.016 115.013 165.189 114.82 165.266C115.032 165.882 115.244 166.498 115.456 167.133Z" fill="#23235B" fill-opacity="0.2"/>
<path d="M149.163 117.082C149.163 117.082 151.764 119.777 152.94 123.011C152.94 123.011 148.797 134.908 139.103 136.39C139.103 136.39 146.773 117.082 149.163 117.082Z" fill="#25C1B9"/>
<path d="M102.563 151.906L102.621 148.48C95.7799 149.346 79.0136 140.298 79.0136 140.298C79.0136 140.298 71.8445 145.053 70.8617 158.663C70.3799 165.305 67.3543 193.372 67.0266 201.746C66.911 204.787 66.8725 206.943 66.8532 207.81C66.8532 208.079 66.7183 208.31 66.5641 208.522C65.138 210.312 63.9239 212.218 62.8447 214.201C52.3995 233.625 57.8533 260.017 57.8533 260.017L60.2816 259.401C60.2816 259.401 69.1272 232.046 74.8895 220.207C75.8723 218.205 76.7588 216.646 77.5104 215.741C79.6881 213.104 81.9814 208.638 84.2362 203.247C88.4952 193.064 92.6386 179.627 95.6064 169.232C95.7992 169.251 102.563 151.906 102.563 151.906Z" fill="#2A377E"/>
<path d="M142.629 128.979C131.432 126.418 138.582 110.691 139.237 110.979C140.779 110.671 144.19 107.938 147.235 102.625L147.64 102.991L154.52 109.016C154.52 109.016 152.94 111.365 151.591 113.655C150.55 115.446 149.663 117.217 149.798 117.833C150.376 118.256 145.616 129.672 142.629 128.979Z" fill="#FFB27D"/>
<path d="M154.539 108.997C154.539 108.997 152.94 111.345 151.61 113.636C147.332 110.999 147.332 105.724 147.659 102.971L154.539 108.997Z" fill="#ED985F"/>
<path d="M154.732 112.019C154.732 112.019 144.345 106.244 148.045 99.8525C151.745 93.4421 152.901 88.3985 159.685 91.8058C166.469 95.2132 166.334 98.3895 165.621 100.834C164.908 103.26 157.526 113.366 154.732 112.019Z" fill="#FFB27D"/>
<path d="M167.374 97.0996C166.892 94.2505 165.447 93.981 164.445 94.1735C160.61 87.8401 154.347 90.3041 154.347 90.3041C150.993 94.5008 146.156 95.213 146.156 95.213C146.156 95.213 147.37 97.4461 152.323 98.8321C153.846 99.2556 155.561 99.0054 157.218 98.4471C153.769 100.372 150.165 101.104 150.165 101.104C156.698 101.7 162.923 95.7328 163.578 95.0975C163.886 96.0216 164.406 97.9659 164.098 99.3711C163.674 101.296 161.959 104.781 163 105.243C163 105.243 168.087 101.354 167.374 97.0996Z" fill="#354497"/>
<path d="M72.4615 260.749H54.0764C54.0764 260.749 53.6331 257.958 54.5967 255.821C55.5217 253.78 56.9479 252.856 56.6202 250.392C57.7958 251.586 59.6844 252.933 62.3439 252.587C62.6715 253.106 64.4445 255.936 65.5237 256.726C66.7378 257.592 72.0954 257.284 72.4615 260.749Z" fill="#23235B" fill-opacity="0.2"/>
<path d="M143.959 141.434C141.589 142.262 138.274 142.704 134.882 143.07C130.045 143.59 125.054 143.956 122.452 144.995C121.508 145.38 120.852 145.842 120.66 146.439C119.523 149.846 114.531 155.102 114.531 155.102C82.5211 153.639 79.0137 140.279 79.0137 140.279C100.54 115.272 137.002 108.034 137.002 108.034C137.002 108.034 139.604 106.937 146.156 112.135C150.531 115.619 149.952 116.947 149.952 116.947C149.952 116.947 150.916 139.028 143.959 141.434Z" fill="#30D7CE"/>
<path d="M134.882 143.089C130.045 143.609 125.054 143.975 122.452 145.014C121.392 129.075 128.908 117.082 128.908 117.082C128.908 117.082 133.822 137.045 134.882 143.089Z" fill="#25C1B9"/>
<path d="M139.854 114.002C139.854 114.002 127.732 115.195 126.769 123.069C125.805 130.923 138.39 162.956 140.182 165.863C143.458 171.137 162.788 189.233 162.788 189.233L166.353 187.077C166.353 187.077 152.651 163.899 150.531 161.743C147.177 158.297 143.959 116.716 139.854 114.002Z" fill="#FFB27D"/>
<path d="M127.116 127.785C127.154 127.958 138.293 131.424 145.462 127.785C145.462 127.785 147.004 111.249 138.428 112.154C129.871 113.059 124.784 115.754 124.572 119.835C124.379 123.935 127.116 127.785 127.116 127.785Z" fill="#30D7CE"/>
<path d="M161.689 186.904C161.689 186.904 166.025 182.919 167.914 182.822C169.783 182.726 175.372 183.4 175.564 184.17C175.757 184.94 169.822 186.403 169.494 186.904C169.166 187.404 165.524 190.792 163.905 190.176C162.286 189.56 161.689 186.904 161.689 186.904Z" fill="#FFB27D"/>
<path d="M498.422 262H0.558877C0.250531 262 0 261.75 0 261.442V261.249C0 260.941 0.250531 260.691 0.558877 260.691H498.422C498.73 260.691 498.981 260.941 498.981 261.249V261.442C499 261.75 498.749 262 498.422 262Z" fill="#0E0E3E"/>
</svg>
